<svg width="206" height="62" viewBox="0 0 206 62" fill="none" xmlns="http://www.w3.org/2000/svg">
<path d="M82.278 26.374C82.6087 28.11 83.2597 29.4843 84.231 30.497C85.2023 31.489 86.3493 31.985 87.672 31.985C88.54 31.985 89.1807 31.737 89.594 31.241C90.0073 30.745 90.214 30.1973 90.214 29.598C90.214 28.7093 89.8213 27.9653 89.036 27.366C88.2713 26.746 87.1657 26.0847 85.719 25.382C83.7763 24.4313 82.309 23.3773 81.317 22.22C80.325 21.0627 79.829 19.6573 79.829 18.004C79.829 16.7847 80.1287 15.7307 80.728 14.842C81.348 13.9327 82.185 13.2403 83.239 12.765C84.293 12.2897 85.471 12.052 86.773 12.052C87.455 12.052 88.1887 12.1243 88.974 12.269C89.78 12.393 90.4207 12.5893 90.896 12.858L93.531 12.052C93.903 12.6927 94.1407 13.5813 94.244 14.718C94.3473 15.834 94.399 17.1257 94.399 18.593V19.058H91.826C91.082 16.0407 89.625 14.532 87.455 14.532C86.6283 14.532 86.0083 14.7697 85.595 15.245C85.1817 15.6997 84.975 16.3093 84.975 17.074C84.975 17.694 85.1403 18.2313 85.471 18.686C85.8017 19.1407 86.215 19.5333 86.711 19.864C87.2277 20.174 87.9097 20.5357 88.757 20.949C90.059 21.5897 91.144 22.189 92.012 22.747C92.9007 23.305 93.6653 24.049 94.306 24.979C94.9467 25.8883 95.267 26.9733 95.267 28.234C95.267 29.3913 94.9777 30.4453 94.399 31.396C93.8203 32.326 92.973 33.07 91.857 33.628C90.7617 34.186 89.4803 34.465 88.013 34.465C86.339 34.465 84.6753 34.1137 83.022 33.411L80.635 34.465C80.2423 33.6797 79.9013 32.4603 79.612 30.807C79.3227 29.133 79.178 27.6553 79.178 26.374H82.278ZM106.73 34.403C104.746 34.403 103.031 33.9483 101.584 33.039C100.158 32.109 99.0626 30.7967 98.298 29.102C97.5333 27.4073 97.151 25.444 97.151 23.212C97.151 20.8767 97.5436 18.872 98.329 17.198C99.1143 15.5033 100.22 14.2117 101.646 13.323C103.093 12.4343 104.777 11.99 106.699 11.99C108.683 11.99 110.398 12.455 111.845 13.385C113.292 14.315 114.397 15.6273 115.162 17.322C115.947 18.996 116.34 20.9593 116.34 23.212C116.34 25.5267 115.937 27.5313 115.131 29.226C114.346 30.9 113.23 32.1813 111.783 33.07C110.336 33.9587 108.652 34.403 106.73 34.403ZM106.73 32.14C107.867 32.14 108.786 31.489 109.489 30.187C110.212 28.885 110.574 26.5187 110.574 23.088C110.574 19.8227 110.243 17.539 109.582 16.237C108.921 14.935 107.991 14.284 106.792 14.284C105.655 14.284 104.725 14.935 104.002 16.237C103.299 17.539 102.948 19.895 102.948 23.305C102.948 26.5703 103.279 28.8643 103.94 30.187C104.622 31.489 105.552 32.14 106.73 32.14ZM135.682 27.459C135.682 28.141 135.517 29.3603 135.186 31.117C134.856 32.853 134.556 33.9793 134.287 34.496C133.957 34.4133 133.523 34.248 132.985 34H118.632C118.157 33.38 117.919 32.729 117.919 32.047C118.622 32.047 119.139 31.923 119.469 31.675C119.8 31.427 119.965 31.0137 119.965 30.435V15.896C119.965 15.338 119.8 14.935 119.469 14.687C119.159 14.439 118.653 14.315 117.95 14.315C117.95 13.633 118.188 12.982 118.663 12.362H130.691C131.043 12.1967 131.446 12.0727 131.9 11.99C132.376 11.8867 132.81 11.835 133.202 11.835C133.512 12.4343 133.843 13.261 134.194 14.315C134.566 15.369 134.752 16.1337 134.752 16.609C134.504 16.8363 134.081 17.074 133.481 17.322C132.882 17.57 132.365 17.7353 131.931 17.818C131.663 17.0533 131.239 16.392 130.66 15.834C130.082 15.276 129.41 14.997 128.645 14.997H125.142V21.538H127.374C128.718 21.538 129.389 20.7837 129.389 19.275C130.319 19.275 131.156 19.492 131.9 19.926V25.692C131.57 25.8987 131.187 26.064 130.753 26.188C130.319 26.2913 129.875 26.343 129.42 26.343C129.42 25.5577 129.234 24.9687 128.862 24.576C128.49 24.1833 128.005 23.987 127.405 23.987H125.142V31.272H128.893C129.761 31.272 130.516 30.9103 131.156 30.187C131.797 29.443 132.2 28.5337 132.365 27.459H135.682ZM157.328 29.908C157.534 30.5693 157.886 31.086 158.382 31.458C158.878 31.83 159.405 32.016 159.963 32.016C159.963 32.388 159.901 32.7497 159.777 33.101C159.653 33.4523 159.477 33.752 159.25 34H150.849C150.621 33.752 150.446 33.4523 150.322 33.101C150.198 32.7497 150.136 32.388 150.136 32.016C151.314 32.016 151.903 31.52 151.903 30.528C151.903 30.1147 151.83 29.629 151.686 29.071L151.5 28.42H144.556L144.37 29.071C144.184 29.7117 144.091 30.1663 144.091 30.435C144.091 31.489 144.752 32.016 146.075 32.016C146.075 32.388 146.013 32.7497 145.889 33.101C145.765 33.4523 145.589 33.752 145.362 34H138.449C138.221 33.752 138.046 33.4523 137.922 33.101C137.798 32.7497 137.736 32.388 137.736 32.016C138.314 32.016 138.841 31.8507 139.317 31.52C139.792 31.1687 140.143 30.6623 140.371 30.001L145.455 14.997C144.628 14.7283 143.584 14.594 142.324 14.594C142.324 13.7053 142.572 12.9613 143.068 12.362H151.562L157.328 29.908ZM150.818 26.002L148.617 18.314C148.431 17.694 148.193 17.167 147.904 16.733L145.238 26.002H150.818ZM179.049 29.226C179.276 30.0113 179.566 30.6003 179.917 30.993C180.289 31.365 180.764 31.5923 181.343 31.675V33.225C180.868 33.8863 179.969 34.217 178.646 34.217C177.406 34.217 176.424 34.0103 175.701 33.597C174.998 33.1837 174.471 32.6463 174.12 31.985C173.789 31.303 173.479 30.4143 173.19 29.319C172.88 28.0997 172.549 27.087 172.198 26.281C171.847 25.475 171.392 24.979 170.834 24.793H168.788V30.466C168.788 31.0033 168.984 31.4063 169.377 31.675C169.77 31.923 170.286 32.047 170.927 32.047C170.927 32.791 170.7 33.442 170.245 34H162.464C161.989 33.4213 161.751 32.7703 161.751 32.047C162.454 32.047 162.96 31.923 163.27 31.675C163.601 31.427 163.766 31.024 163.766 30.466V15.896C163.766 15.338 163.601 14.935 163.27 14.687C162.939 14.439 162.423 14.315 161.72 14.315C161.72 13.4883 161.927 12.8373 162.34 12.362C163.704 12.362 165.233 12.3207 166.928 12.238C168.416 12.1553 169.584 12.114 170.431 12.114C176.342 12.114 179.297 14.1083 179.297 18.097C179.297 21.135 177.685 22.9847 174.461 23.646C175.391 23.9147 176.28 24.5657 177.127 25.599C177.974 26.6117 178.615 27.8207 179.049 29.226ZM170.152 22.654C171.392 22.654 172.363 22.2717 173.066 21.507C173.769 20.7217 174.12 19.6883 174.12 18.407C174.12 17.0843 173.81 16.1027 173.19 15.462C172.591 14.8007 171.63 14.47 170.307 14.47C169.604 14.47 169.098 14.5113 168.788 14.594V22.592C169.16 22.6333 169.615 22.654 170.152 22.654ZM201.704 29.908C201.91 30.5693 202.262 31.086 202.758 31.458C203.254 31.83 203.781 32.016 204.339 32.016C204.339 32.388 204.277 32.7497 204.153 33.101C204.029 33.4523 203.853 33.752 203.626 34H195.225C194.997 33.752 194.822 33.4523 194.698 33.101C194.574 32.7497 194.512 32.388 194.512 32.016C195.69 32.016 196.279 31.52 196.279 30.528C196.279 30.1147 196.206 29.629 196.062 29.071L195.876 28.42H188.932L188.746 29.071C188.56 29.7117 188.467 30.1663 188.467 30.435C188.467 31.489 189.128 32.016 190.451 32.016C190.451 32.388 190.389 32.7497 190.265 33.101C190.141 33.4523 189.965 33.752 189.738 34H182.825C182.597 33.752 182.422 33.4523 182.298 33.101C182.174 32.7497 182.112 32.388 182.112 32.016C182.69 32.016 183.217 31.8507 183.693 31.52C184.168 31.1687 184.519 30.6623 184.747 30.001L189.831 14.997C189.004 14.7283 187.96 14.594 186.7 14.594C186.7 13.7053 186.948 12.9613 187.444 12.362H195.938L201.704 29.908ZM195.194 26.002L192.993 18.314C192.807 17.694 192.569 17.167 192.28 16.733L189.614 26.002H195.194Z" fill="white"/>
<path d="M81.276 50.108C81.036 50.108 80.756 50.092 80.436 50.06C80.116 50.036 79.796 50.004 79.476 49.964C79.164 49.916 78.888 49.876 78.648 49.844L78.744 49.052C78.976 49.076 79.244 49.104 79.548 49.136C79.86 49.168 80.164 49.196 80.46 49.22C80.764 49.244 81.02 49.256 81.228 49.256C81.812 49.256 82.248 49.124 82.536 48.86C82.824 48.596 82.968 48.184 82.968 47.624C82.968 47.32 82.908 47.08 82.788 46.904C82.676 46.72 82.484 46.576 82.212 46.472C81.948 46.36 81.592 46.26 81.144 46.172C80.568 46.052 80.088 45.912 79.704 45.752C79.328 45.584 79.044 45.348 78.852 45.044C78.668 44.74 78.576 44.328 78.576 43.808C78.576 43.272 78.684 42.84 78.9 42.512C79.124 42.184 79.436 41.944 79.836 41.792C80.244 41.64 80.716 41.564 81.252 41.564C81.492 41.564 81.764 41.58 82.068 41.612C82.38 41.636 82.684 41.668 82.98 41.708C83.284 41.74 83.544 41.776 83.76 41.816L83.676 42.62C83.444 42.588 83.176 42.56 82.872 42.536C82.568 42.504 82.276 42.476 81.996 42.452C81.716 42.428 81.492 42.416 81.324 42.416C80.74 42.416 80.296 42.524 79.992 42.74C79.696 42.956 79.548 43.292 79.548 43.748C79.548 44.1 79.612 44.368 79.74 44.552C79.876 44.736 80.092 44.88 80.388 44.984C80.684 45.088 81.072 45.196 81.552 45.308C81.968 45.404 82.324 45.508 82.62 45.62C82.924 45.732 83.172 45.872 83.364 46.04C83.564 46.2 83.708 46.404 83.796 46.652C83.892 46.892 83.94 47.192 83.94 47.552C83.94 48.16 83.832 48.652 83.616 49.028C83.4 49.404 83.092 49.68 82.692 49.856C82.292 50.024 81.82 50.108 81.276 50.108ZM88.4639 50.12C87.5999 50.12 86.9279 49.96 86.4479 49.64C85.9759 49.32 85.6439 48.848 85.4519 48.224C85.2679 47.592 85.1759 46.816 85.1759 45.896C85.1759 44.976 85.2719 44.196 85.4639 43.556C85.6559 42.916 85.9879 42.428 86.4599 42.092C86.9399 41.748 87.6079 41.576 88.4639 41.576C89.3199 41.576 89.9839 41.744 90.4559 42.08C90.9359 42.416 91.2719 42.908 91.4639 43.556C91.6559 44.196 91.7519 44.976 91.7519 45.896C91.7519 46.84 91.6559 47.628 91.4639 48.26C91.2799 48.884 90.9479 49.352 90.4679 49.664C89.9959 49.968 89.3279 50.12 88.4639 50.12ZM88.4639 49.268C89.0959 49.268 89.5759 49.148 89.9039 48.908C90.2319 48.668 90.4559 48.3 90.5759 47.804C90.6959 47.3 90.7559 46.664 90.7559 45.896C90.7559 45.152 90.6919 44.524 90.5639 44.012C90.4439 43.492 90.2199 43.1 89.8919 42.836C89.5639 42.564 89.0879 42.428 88.4639 42.428C87.8399 42.428 87.3639 42.564 87.0359 42.836C86.7079 43.1 86.4799 43.488 86.3519 44C86.2319 44.512 86.1719 45.144 86.1719 45.896C86.1719 46.64 86.2319 47.264 86.3519 47.768C86.4719 48.264 86.6959 48.64 87.0239 48.896C87.3519 49.144 87.8319 49.268 88.4639 49.268ZM93.4338 50V41.708H98.5098V42.56H94.3938V45.368H97.7898V46.208H94.3938V49.148H98.5098V50H93.4338ZM100.067 50V41.708H103.031C103.639 41.708 104.143 41.808 104.543 42.008C104.943 42.2 105.259 42.476 105.491 42.836C105.723 43.188 105.887 43.612 105.983 44.108C106.079 44.596 106.127 45.136 106.127 45.728C106.127 46.328 106.079 46.888 105.983 47.408C105.895 47.92 105.735 48.372 105.503 48.764C105.271 49.156 104.955 49.46 104.555 49.676C104.155 49.892 103.647 50 103.031 50H100.067ZM101.027 49.148H103.031C103.463 49.148 103.815 49.056 104.087 48.872C104.359 48.688 104.571 48.436 104.723 48.116C104.875 47.796 104.979 47.432 105.035 47.024C105.099 46.616 105.131 46.184 105.131 45.728C105.131 45.28 105.099 44.864 105.035 44.48C104.979 44.096 104.875 43.76 104.723 43.472C104.571 43.184 104.359 42.96 104.087 42.8C103.815 42.64 103.463 42.56 103.031 42.56H101.027V49.148ZM107.789 50V41.708H108.749V50H107.789ZM110.766 50V41.708H113.85C114.434 41.708 114.922 41.796 115.314 41.972C115.714 42.148 116.014 42.424 116.214 42.8C116.414 43.168 116.514 43.644 116.514 44.228C116.514 44.836 116.39 45.348 116.142 45.764C115.902 46.18 115.522 46.472 115.002 46.64L116.586 50H115.518L114.054 46.844H111.726V50H110.766ZM111.726 46.004H113.862C114.27 46.004 114.594 45.928 114.834 45.776C115.082 45.624 115.258 45.416 115.362 45.152C115.466 44.88 115.518 44.576 115.518 44.24C115.518 43.672 115.382 43.248 115.11 42.968C114.838 42.688 114.418 42.548 113.85 42.548H111.726V46.004ZM118.16 50V41.708H119.9L122.192 48.668L124.496 41.708H126.236V50H125.276V42.728H125.096L122.732 49.7H121.664L119.3 42.728H119.12V50H118.16ZM127.518 50L129.786 41.708H131.862L134.118 50H133.158L132.57 47.9H129.066L128.478 50H127.518ZM129.27 47.048H132.366L131.13 42.524H130.506L129.27 47.048ZM135.399 50V41.708H137.187L140.307 49.148H140.547V41.708H141.507V50H139.755L136.587 42.56H136.359V50H135.399ZM146.156 50V41.708H149.18C149.724 41.708 150.176 41.78 150.536 41.924C150.904 42.068 151.18 42.296 151.364 42.608C151.556 42.92 151.652 43.324 151.652 43.82C151.652 44.172 151.608 44.472 151.52 44.72C151.44 44.96 151.324 45.16 151.172 45.32C151.02 45.48 150.832 45.616 150.608 45.728C150.848 45.808 151.064 45.924 151.256 46.076C151.456 46.228 151.612 46.432 151.724 46.688C151.844 46.944 151.904 47.272 151.904 47.672C151.904 48.104 151.844 48.472 151.724 48.776C151.604 49.072 151.428 49.312 151.196 49.496C150.972 49.672 150.7 49.8 150.38 49.88C150.068 49.96 149.716 50 149.324 50H146.156ZM147.116 49.16H149.288C149.624 49.16 149.912 49.116 150.152 49.028C150.4 48.94 150.592 48.788 150.728 48.572C150.864 48.348 150.932 48.036 150.932 47.636C150.932 47.324 150.872 47.072 150.752 46.88C150.64 46.688 150.496 46.544 150.32 46.448C150.144 46.352 149.96 46.288 149.768 46.256C149.576 46.224 149.4 46.208 149.24 46.208H147.116V49.16ZM147.116 45.368H149.228C149.74 45.368 150.108 45.248 150.332 45.008C150.564 44.76 150.68 44.392 150.68 43.904C150.68 43.432 150.552 43.088 150.296 42.872C150.048 42.656 149.664 42.548 149.144 42.548H147.116V45.368ZM153.539 50V41.708H158.615V42.56H154.499V45.368H157.895V46.208H154.499V49.148H158.615V50H153.539ZM160.172 50V41.708H163.256C163.84 41.708 164.328 41.796 164.72 41.972C165.12 42.148 165.42 42.424 165.62 42.8C165.82 43.168 165.92 43.644 165.92 44.228C165.92 44.836 165.796 45.348 165.548 45.764C165.308 46.18 164.928 46.472 164.408 46.64L165.992 50H164.924L163.46 46.844H161.132V50H160.172ZM161.132 46.004H163.268C163.676 46.004 164 45.928 164.24 45.776C164.488 45.624 164.664 45.416 164.768 45.152C164.872 44.88 164.924 44.576 164.924 44.24C164.924 43.672 164.788 43.248 164.516 42.968C164.244 42.688 163.824 42.548 163.256 42.548H161.132V46.004ZM167.567 50V41.708H170.591C171.135 41.708 171.587 41.78 171.947 41.924C172.315 42.068 172.591 42.296 172.775 42.608C172.967 42.92 173.063 43.324 173.063 43.82C173.063 44.172 173.019 44.472 172.931 44.72C172.851 44.96 172.735 45.16 172.583 45.32C172.431 45.48 172.243 45.616 172.019 45.728C172.259 45.808 172.475 45.924 172.667 46.076C172.867 46.228 173.023 46.432 173.135 46.688C173.255 46.944 173.315 47.272 173.315 47.672C173.315 48.104 173.255 48.472 173.135 48.776C173.015 49.072 172.839 49.312 172.607 49.496C172.383 49.672 172.111 49.8 171.791 49.88C171.479 49.96 171.127 50 170.735 50H167.567ZM168.527 49.16H170.699C171.035 49.16 171.323 49.116 171.563 49.028C171.811 48.94 172.003 48.788 172.139 48.572C172.275 48.348 172.343 48.036 172.343 47.636C172.343 47.324 172.283 47.072 172.163 46.88C172.051 46.688 171.907 46.544 171.731 46.448C171.555 46.352 171.371 46.288 171.179 46.256C170.987 46.224 170.811 46.208 170.651 46.208H168.527V49.16ZM168.527 45.368H170.639C171.151 45.368 171.519 45.248 171.743 45.008C171.975 44.76 172.091 44.392 172.091 43.904C172.091 43.432 171.963 43.088 171.707 42.872C171.459 42.656 171.075 42.548 170.555 42.548H168.527V45.368ZM174.949 50V41.708H175.909V50H174.949ZM180.662 50.12C180.038 50.12 179.526 50.028 179.126 49.844C178.734 49.66 178.426 49.388 178.202 49.028C177.978 48.668 177.822 48.224 177.734 47.696C177.654 47.168 177.614 46.56 177.614 45.872C177.614 45.168 177.654 44.548 177.734 44.012C177.822 43.476 177.978 43.028 178.202 42.668C178.426 42.308 178.734 42.036 179.126 41.852C179.526 41.668 180.038 41.576 180.662 41.576C180.95 41.576 181.234 41.592 181.514 41.624C181.802 41.648 182.07 41.684 182.318 41.732C182.566 41.772 182.778 41.812 182.954 41.852L182.918 42.656C182.742 42.624 182.526 42.592 182.27 42.56C182.014 42.528 181.754 42.5 181.49 42.476C181.226 42.452 180.986 42.44 180.77 42.44C180.314 42.44 179.942 42.508 179.654 42.644C179.374 42.78 179.158 42.992 179.006 43.28C178.854 43.56 178.75 43.916 178.694 44.348C178.638 44.772 178.61 45.28 178.61 45.872C178.61 46.448 178.638 46.952 178.694 47.384C178.75 47.808 178.85 48.16 178.994 48.44C179.146 48.712 179.366 48.916 179.654 49.052C179.942 49.188 180.318 49.256 180.782 49.256C181.118 49.256 181.486 49.236 181.886 49.196C182.294 49.148 182.638 49.1 182.918 49.052L182.954 49.868C182.762 49.908 182.538 49.948 182.282 49.988C182.026 50.028 181.758 50.06 181.478 50.084C181.198 50.108 180.926 50.12 180.662 50.12ZM183.721 50L185.989 41.708H188.065L190.321 50H189.361L188.773 47.9H185.269L184.681 50H183.721ZM185.473 47.048H188.569L187.333 42.524H186.709L185.473 47.048ZM191.602 50V41.708H194.686C195.27 41.708 195.758 41.796 196.15 41.972C196.55 42.148 196.85 42.424 197.05 42.8C197.25 43.168 197.35 43.644 197.35 44.228C197.35 44.836 197.226 45.348 196.978 45.764C196.738 46.18 196.358 46.472 195.838 46.64L197.422 50H196.354L194.89 46.844H192.562V50H191.602ZM192.562 46.004H194.698C195.106 46.004 195.43 45.928 195.67 45.776C195.918 45.624 196.094 45.416 196.198 45.152C196.302 44.88 196.354 44.576 196.354 44.24C196.354 43.672 196.218 43.248 195.946 42.968C195.674 42.688 195.254 42.548 194.686 42.548H192.562V46.004ZM198.264 50L200.532 41.708H202.608L204.864 50H203.904L203.316 47.9H199.812L199.224 50H198.264ZM200.016 47.048H203.112L201.876 42.524H201.252L200.016 47.048Z" fill="white"/>
<path d="M14.5 48C13.5 48 4 51 3 52C2 53 1 59.5 1 61H59V56C59 54 47.5 54 47 54C46.5 54 45.5 51 45 50.5C44.5 50 40.5 50.5 40 50C39.5 49.5 40 47.5 41 47C42 46.5 48 47 49 46C50 45 48 41.5 48.5 41C49 40.5 52.5 39.5 52 39.5C51.5 39.5 43 39.5 44.5 36.5C46 33.5 52.5 34.5 53 34.5C53.5 34.5 51.6996 33.6717 52 32.5C52.069 31.816 55.5 31.5 54 30C52.5 28.5 52 20 52 20C52 20 50.0718 14.5171 48.5 10.5C49.3077 5.73106 45.5 1 45 1C44.5 1 36.9182 2.35423 32 4.5C24.7806 4.8465 19.5 6.5 18 7.5C16.5 8.5 12.9252 21.851 16 28L15.5 30C15.5 30 11.7306 31.7566 9.5 34C8.30906 35.4895 7.98673 36.5938 8 39C10.3599 38.7098 11.6805 38.5416 13.5 37C14.8739 35.88 15.504 35.352 16.5 34.5C20.0744 35.4974 22 41.5 20 42C18 42.5 18 42 17 42.5C16 43 15.5 48 14.5 48Z" fill="white" stroke="white" stroke-width="1.5"/>
<path d="M59 32.5L65.5 29" stroke="white" stroke-width="1.5" stroke-linecap="round"/>
<path d="M59 37H66" stroke="white" stroke-width="1.5" stroke-linecap="round"/>
<path d="M59 41L65.5 44" stroke="white" stroke-width="1.5" stroke-linecap="round"/>
</svg>
