<svg width="13" height="17" viewBox="0 0 13 17" fill="none" xmlns="http://www.w3.org/2000/svg">
<path d="M10.223 6.36667H9.68971V3.7C9.68971 2.85131 9.35257 2.03737 8.75246 1.43726C8.15234 0.837142 7.33841 0.5 6.48971 0.5C5.64102 0.5 4.82709 0.837142 4.22697 1.43726C3.62686 2.03737 3.28971 2.85131 3.28971 3.7V6.36667H2.75638C2.19077 6.36728 1.64851 6.59224 1.24857 6.99219C0.848624 7.39213 0.623664 7.93439 0.623047 8.5V14.3667C0.623664 14.9323 0.848624 15.4745 1.24857 15.8745C1.64851 16.2744 2.19077 16.4994 2.75638 16.5H10.223C10.7887 16.4994 11.3309 16.2744 11.7309 15.8745C12.1308 15.4745 12.3558 14.9323 12.3564 14.3667V8.5C12.3558 7.93439 12.1308 7.39213 11.7309 6.99219C11.3309 6.59224 10.7887 6.36728 10.223 6.36667ZM8.62305 6.36667H4.35638V3.7C4.35638 3.1342 4.58114 2.59158 4.98122 2.19151C5.3813 1.79143 5.92392 1.56667 6.48971 1.56667C7.05551 1.56667 7.59813 1.79143 7.99821 2.19151C8.39829 2.59158 8.62305 3.1342 8.62305 3.7V6.36667Z" fill="#C82323"/>
</svg>
