<svg width="21" height="24" viewBox="0 0 21 24" fill="none" xmlns="http://www.w3.org/2000/svg">
<path d="M19.7907 3.42857H14.6279V2.14286C14.6279 1.57454 14.4013 1.02949 13.9978 0.627628C13.5944 0.225765 13.0473 0 12.4767 0H8.17442C7.60389 0 7.05674 0.225765 6.65332 0.627628C6.2499 1.02949 6.02326 1.57454 6.02326 2.14286V3.42857H0.860465C0.632256 3.42857 0.413393 3.51888 0.252025 3.67962C0.0906561 3.84037 0 4.05839 0 4.28571C0 4.51304 0.0906561 4.73106 0.252025 4.89181C0.413393 5.05255 0.632256 5.14286 0.860465 5.14286H1.77471L2.79651 21.4779C2.87288 22.9163 3.97965 24 5.37791 24H15.2733C16.6785 24 17.7632 22.9404 17.8547 21.4821L18.8765 5.14286H19.7907C20.0189 5.14286 20.2378 5.05255 20.3991 4.89181C20.5605 4.73106 20.6512 4.51304 20.6512 4.28571C20.6512 4.05839 20.5605 3.84037 20.3991 3.67962C20.2378 3.51888 20.0189 3.42857 19.7907 3.42857ZM6.91438 20.5714H6.88372C6.66072 20.5716 6.44638 20.4855 6.28587 20.3313C6.12535 20.1771 6.0312 19.9668 6.02326 19.7448L5.59302 7.74482C5.58489 7.51749 5.66775 7.29626 5.82337 7.12979C5.97899 6.96331 6.19462 6.86524 6.42283 6.85714C6.65104 6.84904 6.87314 6.93158 7.04025 7.0866C7.20737 7.24162 7.30582 7.45642 7.31395 7.68375L7.74419 19.6838C7.74828 19.7963 7.73006 19.9086 7.69057 20.0142C7.65107 20.1197 7.59107 20.2165 7.514 20.2989C7.43693 20.3814 7.34431 20.4479 7.24142 20.4946C7.13853 20.5414 7.0274 20.5675 6.91438 20.5714ZM11.186 19.7143C11.186 19.9416 11.0954 20.1596 10.934 20.3204C10.7727 20.4811 10.5538 20.5714 10.3256 20.5714C10.0974 20.5714 9.87851 20.4811 9.71714 20.3204C9.55577 20.1596 9.46512 19.9416 9.46512 19.7143V7.71429C9.46512 7.48696 9.55577 7.26894 9.71714 7.10819C9.87851 6.94745 10.0974 6.85714 10.3256 6.85714C10.5538 6.85714 10.7727 6.94745 10.934 7.10819C11.0954 7.26894 11.186 7.48696 11.186 7.71429V19.7143ZM12.907 3.42857H7.74419V2.14286C7.74354 2.0864 7.75422 2.03038 7.77561 1.97809C7.79701 1.9258 7.82867 1.8783 7.86875 1.83837C7.90883 1.79845 7.95652 1.7669 8.00901 1.74559C8.0615 1.72428 8.11774 1.71364 8.17442 1.71429H12.4767C12.5334 1.71364 12.5897 1.72428 12.6422 1.74559C12.6946 1.7669 12.7423 1.79845 12.7824 1.83837C12.8225 1.8783 12.8542 1.9258 12.8755 1.97809C12.8969 2.03038 12.9076 2.0864 12.907 2.14286V3.42857ZM14.6279 19.7448C14.62 19.9668 14.5258 20.1771 14.3653 20.3313C14.2048 20.4855 13.9904 20.5716 13.7674 20.5714H13.7363C13.6233 20.5674 13.5122 20.5413 13.4094 20.4945C13.3065 20.4477 13.214 20.3812 13.137 20.2988C13.06 20.2163 13 20.1196 12.9605 20.014C12.9211 19.9085 12.9029 19.7963 12.907 19.6838L13.3372 7.68375C13.3412 7.57119 13.3675 7.46052 13.4144 7.35806C13.4614 7.2556 13.5282 7.16336 13.6109 7.0866C13.6937 7.00984 13.7908 6.95007 13.8967 6.9107C14.0026 6.87133 14.1153 6.85313 14.2283 6.85714C14.3413 6.86115 14.4524 6.88729 14.5553 6.93407C14.6581 6.98085 14.7507 7.04736 14.8278 7.12979C14.9048 7.21221 14.9648 7.30895 15.0044 7.41448C15.0439 7.52001 15.0622 7.63226 15.0581 7.74482L14.6279 19.7448Z" fill="#C82323"/>
</svg>
