<svg width="16" height="17" viewBox="0 0 16 17" fill="none" xmlns="http://www.w3.org/2000/svg">
<path d="M15.8438 0.701934C15.7876 0.640181 15.7195 0.590463 15.6435 0.555786C15.5676 0.521109 15.4854 0.502193 15.4019 0.50018C15.3184 0.498166 15.2354 0.513098 15.1579 0.544073C15.0803 0.575049 15.0099 0.621423 14.9508 0.680396L14.475 1.15386C14.4173 1.21155 14.3849 1.28979 14.3849 1.37136C14.3849 1.45293 14.4173 1.53116 14.475 1.58886L14.9112 2.02424C14.9397 2.05296 14.9737 2.07576 15.0112 2.09131C15.0486 2.10686 15.0887 2.11487 15.1292 2.11487C15.1698 2.11487 15.2099 2.10686 15.2473 2.09131C15.2847 2.07576 15.3187 2.05296 15.3473 2.02424L15.8112 1.5627C16.0458 1.32847 16.0677 0.946934 15.8438 0.701934ZM13.5131 2.11539L6.57001 9.04615C6.52791 9.08808 6.49732 9.14013 6.48116 9.19731L6.16001 10.1538C6.15232 10.1798 6.15177 10.2074 6.15843 10.2336C6.16509 10.2598 6.17871 10.2838 6.19786 10.3029C6.217 10.3221 6.24095 10.3357 6.26719 10.3423C6.29343 10.349 6.32098 10.3485 6.34693 10.3408L7.3027 10.0196C7.35987 10.0035 7.41193 9.97287 7.45385 9.93077L14.3846 2.98693C14.4487 2.92212 14.4847 2.83464 14.4847 2.74347C14.4847 2.6523 14.4487 2.56482 14.3846 2.50001L14.0019 2.11539C13.937 2.05069 13.8491 2.01435 13.7575 2.01435C13.6659 2.01435 13.578 2.05069 13.5131 2.11539Z" fill="white"/>
<path d="M13.0131 6.10219L8.32499 10.7995C8.1438 10.9811 7.9211 11.1159 7.67614 11.1922L6.67999 11.5256C6.44358 11.5924 6.19364 11.5949 5.95593 11.5329C5.71823 11.471 5.50135 11.3467 5.32764 11.173C5.15393 10.9993 5.02969 10.7824 4.9677 10.5447C4.90571 10.307 4.90823 10.0571 4.97499 9.82065L5.30845 8.8245C5.38451 8.57962 5.51902 8.35693 5.70038 8.17565L10.3977 3.48681C10.4407 3.4438 10.4701 3.38899 10.482 3.32931C10.4939 3.26962 10.4878 3.20775 10.4646 3.15151C10.4413 3.09528 10.4019 3.0472 10.3513 3.01336C10.3007 2.97953 10.2412 2.96145 10.1804 2.96143H2.15384C1.58261 2.96143 1.03477 3.18835 0.630846 3.59227C0.226922 3.9962 0 4.54403 0 5.11527V14.346C0 14.9173 0.226922 15.4651 0.630846 15.869C1.03477 16.2729 1.58261 16.4999 2.15384 16.4999H11.3846C11.9558 16.4999 12.5037 16.2729 12.9076 15.869C13.3115 15.4651 13.5384 14.9173 13.5384 14.346V6.3195C13.5384 6.25864 13.5203 6.19916 13.4865 6.14857C13.4527 6.09799 13.4046 6.05857 13.3484 6.03531C13.2921 6.01205 13.2302 6.00599 13.1706 6.01789C13.1109 6.0298 13.0561 6.05913 13.0131 6.10219Z" fill="white"/>
</svg>
