<svg width="21" height="16" viewBox="0 0 21 16" fill="none" xmlns="http://www.w3.org/2000/svg">
<path d="M17.9149 0H2.64213C1.96726 0.000721921 1.32023 0.269135 0.843023 0.746344C0.365815 1.22355 0.0974016 1.87058 0.0966797 2.54545V13.4545C0.0974016 14.1294 0.365815 14.7764 0.843023 15.2537C1.32023 15.7309 1.96726 15.9993 2.64213 16H17.9149C18.5897 15.9993 19.2368 15.7309 19.714 15.2537C20.1912 14.7764 20.4596 14.1294 20.4603 13.4545V2.54545C20.4596 1.87058 20.1912 1.22355 19.714 0.746344C19.2368 0.269135 18.5897 0.000721921 17.9149 0ZM17.2703 4.21045L10.7249 9.30136C10.5972 9.40059 10.4402 9.45445 10.2785 9.45445C10.1168 9.45445 9.95977 9.40059 9.83213 9.30136L3.28668 4.21045C3.20978 4.15238 3.14518 4.0796 3.09665 3.99634C3.04812 3.91309 3.01662 3.82102 3.00397 3.72548C2.99133 3.62995 2.99781 3.53285 3.02301 3.43984C3.04822 3.34683 3.09166 3.25975 3.15082 3.18367C3.20997 3.1076 3.28365 3.04403 3.36758 2.99668C3.45151 2.94932 3.54401 2.91912 3.63972 2.90782C3.73542 2.89653 3.83242 2.90436 3.92506 2.93088C4.01771 2.95739 4.10417 3.00206 4.17941 3.06227L10.2785 7.80591L16.3776 3.06227C16.5301 2.9471 16.7218 2.89659 16.9113 2.92166C17.1007 2.94673 17.2727 3.04536 17.39 3.19624C17.5073 3.34711 17.5605 3.5381 17.5381 3.72789C17.5157 3.91769 17.4195 4.09104 17.2703 4.21045Z" fill="white"/>
</svg>
