<svg width="21" height="17" viewBox="0 0 21 17" fill="none" xmlns="http://www.w3.org/2000/svg">
<path d="M18.1365 0.5H2.86381C2.18894 0.500722 1.54191 0.769135 1.0647 1.24634C0.587494 1.72355 0.319081 2.37058 0.318359 3.04545V13.9545C0.319081 14.6294 0.587494 15.2764 1.0647 15.7537C1.54191 16.2309 2.18894 16.4993 2.86381 16.5H18.1365C18.8114 16.4993 19.4584 16.2309 19.9357 15.7537C20.4129 15.2764 20.6813 14.6294 20.682 13.9545V3.04545C20.6813 2.37058 20.4129 1.72355 19.9357 1.24634C19.4584 0.769135 18.8114 0.500722 18.1365 0.5ZM17.492 4.71045L10.9465 9.80136C10.8189 9.90059 10.6618 9.95445 10.5002 9.95445C10.3385 9.95445 10.1814 9.90059 10.0538 9.80136L3.50836 4.71045C3.43146 4.65238 3.36686 4.5796 3.31833 4.49634C3.2698 4.41309 3.2383 4.32102 3.22565 4.22548C3.21301 4.12995 3.21948 4.03285 3.24469 3.93984C3.2699 3.84683 3.31334 3.75975 3.3725 3.68367C3.43165 3.6076 3.50533 3.54403 3.58926 3.49668C3.67319 3.44932 3.76569 3.41912 3.8614 3.40782C3.9571 3.39653 4.0541 3.40436 4.14674 3.43088C4.23939 3.45739 4.32585 3.50206 4.40109 3.56227L10.5002 8.30591L16.5993 3.56227C16.7518 3.4471 16.9435 3.39659 17.133 3.42166C17.3224 3.44673 17.4944 3.54536 17.6117 3.69624C17.729 3.84711 17.7822 4.0381 17.7598 4.22789C17.7374 4.41769 17.6412 4.59104 17.492 4.71045Z" fill="#C82323"/>
</svg>
