<svg width="16" height="16" viewBox="0 0 16 16" fill="none" xmlns="http://www.w3.org/2000/svg">
<path d="M11.3332 1.33321C12.2165 1.33585 13.0629 1.68791 13.6875 2.31251C14.3121 2.9371 14.6641 3.78348 14.6668 4.66679V11.3332C14.6641 12.2165 14.3121 13.0629 13.6875 13.6875C13.0629 14.3121 12.2165 14.6641 11.3332 14.6668H4.66679C3.78348 14.6641 2.9371 14.3121 2.31251 13.6875C1.68791 13.0629 1.33585 12.2165 1.33321 11.3332V4.66679C1.33585 3.78348 1.68791 2.9371 2.31251 2.31251C2.9371 1.68791 3.78348 1.33585 4.66679 1.33321H11.3332ZM11.3332 0H4.66679C2.1 0 0 2.1 0 4.66679V11.3332C0 13.9 2.1 16 4.66679 16H11.3332C13.9 16 16 13.9 16 11.3332V4.66679C16 2.1 13.9 0 11.3332 0Z" fill="white"/>
<path d="M12.3332 4.66675C12.1354 4.66675 11.9421 4.6081 11.7776 4.49822C11.6132 4.38834 11.485 4.23216 11.4093 4.04943C11.3336 3.86671 11.3138 3.66564 11.3524 3.47166C11.391 3.27768 11.4863 3.09949 11.6261 2.95964C11.766 2.81979 11.9441 2.72455 12.1381 2.68596C12.3321 2.64738 12.5332 2.66718 12.7159 2.74287C12.8986 2.81856 13.0548 2.94673 13.1647 3.11118C13.2746 3.27563 13.3332 3.46897 13.3332 3.66675C13.3335 3.79815 13.3078 3.92831 13.2577 4.04977C13.2075 4.17122 13.1339 4.28157 13.041 4.37449C12.948 4.4674 12.8377 4.54105 12.7162 4.5912C12.5948 4.64136 12.4646 4.66703 12.3332 4.66675ZM8 5.33318C8.52744 5.33318 9.04304 5.48958 9.48159 5.78261C9.92014 6.07564 10.2619 6.49214 10.4638 6.97943C10.6656 7.46672 10.7184 8.00292 10.6155 8.52023C10.5126 9.03753 10.2587 9.51271 9.8857 9.88566C9.51275 10.2586 9.03757 10.5126 8.52027 10.6155C8.00296 10.7184 7.46676 10.6656 6.97947 10.4638C6.49218 10.2619 6.07568 9.9201 5.78265 9.48155C5.48962 9.043 5.33322 8.5274 5.33322 7.99996C5.33397 7.29292 5.61518 6.61505 6.11513 6.1151C6.61509 5.61514 7.29296 5.33393 8 5.33318ZM8 3.99996C7.20888 3.99996 6.43552 4.23456 5.77772 4.67408C5.11992 5.11361 4.60723 5.73832 4.30448 6.46923C4.00173 7.20013 3.92252 8.0044 4.07686 8.78032C4.2312 9.55625 4.61216 10.269 5.17157 10.8284C5.73098 11.3878 6.44372 11.7688 7.21964 11.9231C7.99556 12.0774 8.79983 11.9982 9.53074 11.6955C10.2616 11.3927 10.8864 10.88 11.3259 10.2222C11.7654 9.56445 12 8.79109 12 7.99996C12 6.9391 11.5786 5.92168 10.8284 5.17154C10.0783 4.42139 9.06087 3.99996 8 3.99996Z" fill="white"/>
</svg>
