<svg width="38" height="32" viewBox="0 0 38 32" fill="none" xmlns="http://www.w3.org/2000/svg">
<path d="M32 0H5.33333C3.91932 0.00154405 2.56366 0.563943 1.5638 1.5638C0.563943 2.56366 0.00154405 3.91932 0 5.33333V26.6667C0.00154405 28.0807 0.563943 29.4363 1.5638 30.4362C2.56366 31.4361 3.91932 31.9985 5.33333 32H32C33.414 31.9985 34.7697 31.4361 35.7695 30.4362C36.7694 29.4363 37.3318 28.0807 37.3333 26.6667V5.33333C37.3318 3.91932 36.7694 2.56366 35.7695 1.5638C34.7697 0.563943 33.414 0.00154405 32 0ZM25.3333 5.33333C26.1245 5.33333 26.8978 5.56793 27.5556 6.00746C28.2134 6.44698 28.7261 7.0717 29.0289 7.8026C29.3316 8.5335 29.4108 9.33777 29.2565 10.1137C29.1021 10.8896 28.7212 11.6024 28.1618 12.1618C27.6023 12.7212 26.8896 13.1021 26.1137 13.2565C25.3378 13.4108 24.5335 13.3316 23.8026 13.0289C23.0717 12.7261 22.447 12.2134 22.0075 11.5556C21.5679 10.8978 21.3333 10.1245 21.3333 9.33333C21.3344 8.27281 21.7562 7.25603 22.5061 6.50612C23.256 5.75622 24.2728 5.33444 25.3333 5.33333ZM5.33333 29.3333C4.62609 29.3333 3.94781 29.0524 3.44771 28.5523C2.94762 28.0522 2.66667 27.3739 2.66667 26.6667V21.0308L10.57 14.0058C11.3325 13.3295 12.3242 12.9694 13.343 12.9988C14.3618 13.0283 15.3311 13.445 16.0533 14.1642L21.4658 19.565L11.6975 29.3333H5.33333ZM34.6667 26.6667C34.6667 27.3739 34.3857 28.0522 33.8856 28.5523C33.3855 29.0524 32.7072 29.3333 32 29.3333H15.4692L25.5875 19.215C26.3039 18.6058 27.213 18.2701 28.1534 18.2677C29.0938 18.2653 30.0046 18.5962 30.7242 19.2017L34.6667 22.4867V26.6667Z" fill="#C82323"/>
</svg>
