<svg width="461" height="321" viewBox="0 0 461 321" fill="none" xmlns="http://www.w3.org/2000/svg">
<path d="M322.478 157.587H138.44C138.289 156.659 139.686 151.042 140.261 148.684C144.168 132.614 159.13 116.582 176.155 114.221C180.213 113.657 184.115 113.525 187.146 110.187C188.836 106.892 190.567 103.509 192.222 100.28C192.725 99.2989 193.761 98.7057 194.868 98.7498C196.617 98.8232 198.257 99.199 199.636 97.8865C199.627 95.6197 199.693 93.2971 199.326 91.0479C199.065 89.4447 198.455 87.9971 197.493 86.6787C196.904 85.8712 196.235 85.1254 195.552 84.3972C195.122 83.9391 194.687 83.4899 194.246 83.0406C193.799 82.5855 193.296 82.1744 192.829 81.7369C192.518 82.3477 191.89 82.7411 191.245 82.9907C190.082 83.4429 188.987 83.6719 188.042 84.5352C187.246 85.2605 186.648 86.1649 185.893 86.9312C184.656 88.1791 183.36 89.3683 181.85 90.2933C180.119 91.3591 178.192 91.9963 176.179 92.2841C175.007 92.4514 173.823 92.5131 172.639 92.519C171.961 92.5219 171.283 92.5072 170.606 92.4779C170.372 92.4691 168.522 92.2342 168.454 92.3516C170.324 89.0512 169.978 85.0725 171.523 82.2185C173.207 79.1031 176.07 76.3518 179.095 73.853C181.936 71.501 187.214 73.5329 188.294 67.4166C180.942 53.622 184.257 40.4351 189.294 27.398C189.658 26.4613 190.067 25.5422 190.523 24.6467C193.995 17.8022 200.643 11.0546 208.549 9.83603C210.727 9.5013 212.935 9.30163 215.137 9.20179C231.488 8.47359 229.099 7.07592 238.837 3.91647C247.412 1.13581 259.767 -3.60923 266.705 4.56833C270.686 9.26052 271.962 16.0434 270.831 21.9805C270.783 22.2272 270.783 22.4973 270.84 22.8056C275.59 34.5537 280.581 46.3547 278.299 58.4991C280.291 62.3692 282.895 67.2728 284.366 70.1268C284.662 70.6994 284.648 71.3806 284.331 71.9415C283.298 73.7737 281.321 74.4608 279.793 75.7821C278.976 76.4898 278.512 77.5175 278.512 78.5951C278.515 81.1937 278.615 85.604 278.675 88.0118C278.698 89.0395 278.1 89.982 277.153 90.399C275.602 91.0861 273.37 92.0727 272.737 92.3457C271.272 92.977 269.804 93.6083 268.339 94.2396L268.291 94.2602C267.471 94.6125 267.474 95.7636 268.291 96.1159C269.064 96.4477 269.833 96.7883 270.606 97.1231C270.988 97.2875 271.367 97.452 271.748 97.6134C271.748 97.6134 271.751 97.6134 271.754 97.6134C272.388 97.8836 272.796 98.5002 272.799 99.1843C272.799 99.4281 272.799 99.6453 272.799 99.7452C272.787 100.362 272.767 100.981 272.722 101.595C272.616 103.104 272.734 104.176 272.829 105.697C272.912 107.036 272.053 110.562 267.332 110.093C265.618 109.922 263.899 109.802 262.179 109.79C259.412 109.773 254.664 109.453 252.503 111.743C252.08 112.192 251.837 112.87 251.358 113.343C250.985 113.71 248.62 117.809 250.191 117.806C253.35 117.792 256.505 117.797 259.66 117.797C259.977 117.797 260.279 117.924 260.507 118.141C263.499 121.033 264.352 124.152 265.752 127.264C289.881 127.279 309.68 135.773 322.475 157.578L322.478 157.587Z" fill="white"/>
<path d="M297.947 83.0264L283.956 90.7488C284.231 91.2392 284.447 91.756 284.607 92.2962L299.969 87.8301C299.477 86.1623 298.794 84.5474 297.944 83.0293L297.947 83.0264Z" fill="white"/>
<path d="M284.349 97.2291L284.337 97.2614C284.115 97.79 283.839 98.2832 283.52 98.7296L296.591 107.903C297.603 106.484 298.458 104.949 299.13 103.337L299.142 103.304L284.352 97.2291H284.349Z" fill="white"/>
<path d="M300.876 92.9835L284.896 93.9466C284.928 94.4986 284.902 95.0624 284.807 95.6203L300.601 98.2248C300.891 96.4983 300.983 94.7365 300.876 92.9865V92.9835Z" fill="white"/>
<path d="M33.0679 213.005C33.216 211.376 32.8211 210.101 31.8834 209.18C30.9456 208.242 29.3663 207.773 27.1453 207.773C25.7304 207.773 24.5459 207.938 23.5917 208.267C22.654 208.596 21.9219 209.048 21.3954 209.624C20.8854 210.2 20.5646 210.866 20.433 211.623C20.2849 212.215 20.2932 212.758 20.4577 213.252C20.6386 213.729 20.9759 214.165 21.4695 214.56C21.9795 214.955 22.6458 215.308 23.4683 215.621C24.3074 215.934 25.3027 216.213 26.4543 216.46L30.4027 217.348C33.1008 217.941 35.3629 218.722 37.1891 219.693C39.0316 220.647 40.4794 221.782 41.5323 223.098C42.5852 224.414 43.2762 225.887 43.6052 227.516C43.9507 229.144 43.9589 230.921 43.6299 232.846C43.0705 236.169 41.7791 238.982 39.7555 241.286C37.732 243.589 35.0915 245.341 31.834 246.542C28.5766 247.743 24.8092 248.343 20.5317 248.343C16.1556 248.343 12.4375 247.694 9.37747 246.394C6.3339 245.078 4.12938 243.071 2.76388 240.373C1.41485 237.658 1.08581 234.195 1.77678 229.983H14.8065C14.6091 231.53 14.7736 232.829 15.3001 233.882C15.8265 234.935 16.6738 235.733 17.8419 236.276C19.0099 236.819 20.4659 237.09 22.2098 237.09C23.6904 237.09 24.9572 236.909 26.0101 236.547C27.063 236.186 27.8938 235.684 28.5026 235.042C29.1113 234.401 29.4814 233.668 29.613 232.846C29.7447 232.089 29.613 231.415 29.2182 230.822C28.8234 230.23 28.1077 229.695 27.0713 229.218C26.0348 228.741 24.6117 228.305 22.802 227.91L17.9653 226.825C13.6714 225.837 10.4304 224.209 8.2423 221.938C6.05422 219.668 5.28099 216.559 5.92261 212.61C6.44906 209.386 7.77343 206.573 9.89569 204.171C12.0344 201.752 14.7489 199.877 18.0393 198.544C21.3461 197.195 25.0066 196.521 29.0208 196.521C33.1008 196.521 36.5145 197.203 39.262 198.569C42.0258 199.934 44.0083 201.851 45.2093 204.319C46.4267 206.786 46.7557 209.682 46.1964 213.005H33.0679ZM130.66 223.37C129.739 228.865 127.913 233.471 125.182 237.189C122.451 240.907 119.136 243.712 115.237 245.604C111.338 247.496 107.167 248.442 102.725 248.442C97.9871 248.442 93.8742 247.414 90.3864 245.357C86.8987 243.301 84.3569 240.29 82.7611 236.325C81.1653 232.361 80.8444 227.516 81.7986 221.79C82.687 216.295 84.4967 211.673 87.2277 207.922C89.9587 204.171 93.2902 201.333 97.2221 199.408C101.154 197.483 105.357 196.521 109.832 196.521C114.538 196.521 118.626 197.557 122.097 199.63C125.585 201.703 128.118 204.738 129.698 208.736C131.294 212.734 131.614 217.612 130.66 223.37ZM116.841 221.79C117.301 218.895 117.334 216.46 116.939 214.486C116.545 212.495 115.714 210.998 114.447 209.994C113.18 208.974 111.477 208.464 109.339 208.464C106.904 208.464 104.749 209.057 102.873 210.241C100.998 211.426 99.4431 213.129 98.2092 215.349C96.9753 217.57 96.1116 220.244 95.6181 223.37C95.0916 226.298 95.0423 228.733 95.47 230.674C95.9142 232.616 96.7861 234.072 98.0858 235.042C99.402 236.013 101.113 236.498 103.219 236.498C105.621 236.498 107.743 235.922 109.586 234.771C111.445 233.619 112.983 231.949 114.2 229.761C115.434 227.573 116.314 224.916 116.841 221.79ZM164.233 247.751L172.623 197.211H209.047L207.172 208.267H184.468L183.086 216.954H203.914L202.039 228.009H181.211L179.829 236.696H202.434L200.558 247.751H164.233ZM251.861 247.751H237.055L262.127 197.211H280.882L289.174 247.751H274.367L269.432 211.13H269.037L251.861 247.751ZM252.454 227.812H280.29L278.513 238.078H250.677L252.454 227.812ZM325.313 247.751L333.703 197.211H355.518C359.269 197.211 362.436 197.894 365.019 199.26C367.602 200.625 369.461 202.591 370.596 205.158C371.731 207.724 372.003 210.801 371.411 214.387C370.818 218.006 369.51 221.058 367.487 223.542C365.48 226.01 362.921 227.886 359.812 229.169C356.719 230.436 353.248 231.069 349.398 231.069H336.368L338.145 220.408H348.411C350.023 220.408 351.438 220.211 352.656 219.816C353.873 219.405 354.86 218.763 355.617 217.891C356.374 217.003 356.867 215.835 357.098 214.387C357.328 212.939 357.213 211.763 356.752 210.858C356.291 209.937 355.526 209.262 354.457 208.835C353.388 208.39 352.063 208.168 350.484 208.168H345.647L339.034 247.751H325.313ZM358.776 224.554L367.561 247.751H352.656L344.167 224.554H358.776ZM416.81 247.751H402.003L427.076 197.211H445.831L454.122 247.751H439.316L434.38 211.13H433.985L416.81 247.751ZM417.402 227.812H445.238L443.462 238.078H415.625L417.402 227.812Z" fill="white"/>
<path d="M27.4532 284.378C27.4532 282.569 26.8554 281.198 25.6599 280.265C24.4644 279.322 22.8467 278.851 20.8067 278.851C19.315 278.851 17.9715 279.092 16.776 279.574C15.5805 280.057 14.6044 280.721 13.8476 281.565C13.0908 282.41 12.6247 283.369 12.4492 284.444C12.3066 285.343 12.3999 286.117 12.7289 286.764C13.0579 287.4 13.5241 287.932 14.1273 288.36C14.7415 288.776 15.3995 289.122 16.1015 289.396C16.8034 289.659 17.4505 289.873 18.0428 290.038L21.3331 290.959C22.1557 291.189 23.0715 291.507 24.0806 291.913C25.0896 292.319 26.0328 292.873 26.9102 293.575C27.7877 294.266 28.4567 295.154 28.9174 296.24C29.389 297.326 29.4932 298.658 29.2299 300.238C28.9228 302.058 28.1715 303.704 26.9761 305.173C25.7915 306.643 24.2231 307.811 22.2709 308.677C20.3296 309.544 18.0647 309.977 15.4763 309.977C13.0634 309.977 11.0344 309.588 9.38919 308.809C7.75499 308.03 6.54853 306.945 5.76982 305.552C5.00208 304.159 4.70594 302.541 4.88143 300.698H9.09306C8.98339 301.971 9.23564 303.024 9.84984 303.857C10.464 304.68 11.3195 305.294 12.4163 305.7C13.5131 306.095 14.7305 306.292 16.0686 306.292C17.626 306.292 19.0628 306.04 20.3789 305.535C21.706 305.02 22.8028 304.307 23.6693 303.396C24.5467 302.475 25.0841 301.4 25.2815 300.172C25.4789 299.053 25.3254 298.143 24.8209 297.441C24.3164 296.739 23.587 296.169 22.6328 295.73C21.6786 295.291 20.6312 294.907 19.4905 294.578L15.5421 293.394C13.0415 292.637 11.1386 291.557 9.83339 290.153C8.53919 288.749 8.07306 286.912 8.435 284.642C8.76403 282.755 9.55919 281.11 10.8205 279.706C12.0818 278.291 13.6447 277.194 15.5092 276.416C17.3737 275.626 19.3809 275.231 21.5305 275.231C23.7022 275.231 25.5612 275.626 27.1077 276.416C28.6541 277.194 29.8057 278.275 30.5625 279.657C31.3193 281.028 31.599 282.602 31.4016 284.378H27.4532ZM44.3285 309.911C42.0033 309.911 40.0565 309.357 38.4881 308.25C36.9197 307.142 35.812 305.59 35.1649 303.594C34.5287 301.598 34.4246 299.273 34.8523 296.618C35.2691 294.03 36.0971 291.776 37.3365 289.857C38.5868 287.926 40.1388 286.435 41.9923 285.382C43.8569 284.318 45.9078 283.786 48.1453 283.786C50.4704 283.786 52.4117 284.345 53.9692 285.464C55.5376 286.572 56.6453 288.129 57.2924 290.136C57.9395 292.133 58.0492 294.469 57.6214 297.145C57.2047 299.711 56.3656 301.954 55.1043 303.874C53.854 305.782 52.3021 307.268 50.4485 308.332C48.6059 309.385 46.5659 309.911 44.3285 309.911ZM44.3943 306.424C46.1711 306.424 47.712 305.968 49.0172 305.058C50.3333 304.148 51.3972 302.947 52.2088 301.455C53.0314 299.964 53.5853 298.351 53.8705 296.618C54.1337 294.973 54.1227 293.443 53.8376 292.028C53.5524 290.603 52.9437 289.456 52.0114 288.59C51.0792 287.713 49.7685 287.274 48.0795 287.274C46.3027 287.274 44.7507 287.734 43.4236 288.656C42.1075 289.577 41.0436 290.789 40.232 292.292C39.4204 293.794 38.8775 295.412 38.6033 297.145C38.3401 298.79 38.3455 300.32 38.6197 301.735C38.9049 303.139 39.5136 304.274 40.4459 305.14C41.3891 305.996 42.7052 306.424 44.3943 306.424ZM72.0701 309.911C69.6463 309.911 67.6446 309.374 66.0653 308.299C64.4859 307.213 63.3836 305.7 62.7585 303.758C62.1333 301.806 62.0346 299.536 62.4624 296.947C62.8901 294.359 63.7401 292.078 65.0124 290.104C66.2846 288.118 67.8695 286.572 69.7669 285.464C71.6643 284.345 73.7482 283.786 76.0185 283.786C77.3347 283.786 78.6015 284.005 79.8189 284.444C81.0363 284.883 82.0892 285.596 82.9776 286.583C83.866 287.559 84.4857 288.853 84.8367 290.465C85.1876 292.078 85.1657 294.063 84.7708 296.421L84.5076 298.066H65.0288L65.5553 294.71H81.0857C81.3379 293.284 81.2721 292.012 80.8882 290.893C80.5153 289.774 79.8628 288.892 78.9305 288.244C78.0092 287.597 76.8411 287.274 75.4263 287.274C73.9676 287.274 72.6076 287.669 71.3463 288.458C70.085 289.237 69.0321 290.224 68.1875 291.42C67.343 292.604 66.8166 293.811 66.6082 295.039L66.1475 297.935C65.8185 300.029 65.8679 301.696 66.2956 302.936C66.7343 304.175 67.4966 305.069 68.5824 305.617C69.6682 306.155 71.0282 306.424 72.6624 306.424C73.7043 306.424 74.664 306.281 75.5414 305.996C76.4189 305.7 77.2031 305.261 77.894 304.68C78.585 304.087 79.1663 303.353 79.6379 302.475L83.1915 303.528C82.5883 304.8 81.7383 305.919 80.6415 306.884C79.5557 307.838 78.2834 308.584 76.8247 309.122C75.3769 309.648 73.7921 309.911 72.0701 309.911ZM98.1049 309.911C95.9882 309.911 94.2114 309.379 92.7746 308.316C91.3378 307.241 90.3233 305.727 89.731 303.775C89.1497 301.812 89.0784 299.492 89.5172 296.816C89.9668 294.162 90.8059 291.858 92.0343 289.906C93.2736 287.954 94.7927 286.446 96.5914 285.382C98.3901 284.318 100.353 283.786 102.481 283.786C104.126 283.786 105.382 284.06 106.249 284.609C107.126 285.146 107.762 285.76 108.157 286.451C108.552 287.131 108.853 287.691 109.062 288.129H109.391L111.464 275.692H115.346L109.753 309.385H106.002L106.66 305.502H106.199C105.837 305.963 105.333 306.544 104.686 307.246C104.039 307.937 103.183 308.557 102.119 309.105C101.066 309.643 99.7282 309.911 98.1049 309.911ZM99.0591 306.424C100.617 306.424 102.009 306.018 103.238 305.206C104.477 304.384 105.508 303.248 106.331 301.801C107.153 300.342 107.724 298.658 108.042 296.75C108.36 294.864 108.349 293.213 108.009 291.798C107.669 290.372 107.016 289.264 106.051 288.475C105.086 287.674 103.808 287.274 102.218 287.274C100.584 287.274 99.1633 287.696 97.9569 288.541C96.7504 289.374 95.7688 290.509 95.012 291.946C94.2552 293.372 93.7288 294.973 93.4327 296.75C93.1365 298.549 93.131 300.183 93.4162 301.653C93.7014 303.111 94.3046 304.274 95.2259 305.14C96.1582 305.996 97.4359 306.424 99.0591 306.424ZM117.37 309.385L121.582 284.115H125.464L121.252 309.385H117.37ZM124.707 279.838C123.951 279.838 123.298 279.58 122.75 279.064C122.212 278.549 121.943 277.929 121.943 277.205C121.943 276.482 122.212 275.862 122.75 275.346C123.298 274.831 123.951 274.573 124.707 274.573C125.464 274.573 126.111 274.831 126.649 275.346C127.197 275.862 127.471 276.482 127.471 277.205C127.471 277.929 127.197 278.549 126.649 279.064C126.111 279.58 125.464 279.838 124.707 279.838ZM128.364 309.385L132.575 284.115H136.326L135.668 287.932H135.931C136.59 286.682 137.593 285.667 138.942 284.888C140.291 284.11 141.722 283.72 143.236 283.72C143.532 283.72 143.889 283.726 144.305 283.737C144.722 283.737 145.046 283.753 145.276 283.786L144.618 287.734C144.486 287.702 144.19 287.652 143.73 287.586C143.269 287.51 142.775 287.471 142.249 287.471C141.021 287.471 139.885 287.729 138.843 288.244C137.802 288.749 136.93 289.451 136.228 290.35C135.526 291.239 135.076 292.253 134.879 293.394L132.246 309.385H128.364ZM145.691 309.385L149.903 284.115H153.654L152.996 288.063H153.325C154.082 286.714 155.107 285.667 156.402 284.921C157.707 284.164 159.182 283.786 160.827 283.786C162.472 283.786 163.794 284.164 164.792 284.921C165.79 285.667 166.486 286.714 166.881 288.063H167.144C168 286.747 169.141 285.705 170.566 284.938C172.003 284.17 173.626 283.786 175.436 283.786C177.674 283.786 179.395 284.493 180.602 285.908C181.819 287.323 182.181 289.511 181.688 292.473L178.858 309.385H174.975L177.805 292.473C178.101 290.597 177.805 289.264 176.917 288.475C176.039 287.674 174.91 287.274 173.528 287.274C171.751 287.274 170.287 287.806 169.135 288.87C167.984 289.934 167.276 291.288 167.013 292.933L164.249 309.385H160.301L163.196 292.078C163.426 290.63 163.152 289.467 162.373 288.59C161.595 287.713 160.465 287.274 158.984 287.274C157.975 287.274 156.988 287.548 156.023 288.096C155.058 288.634 154.23 289.38 153.539 290.334C152.848 291.277 152.404 292.363 152.206 293.591L149.574 309.385H145.691ZM193.327 309.977C191.726 309.977 190.322 309.676 189.116 309.072C187.909 308.458 187.015 307.575 186.434 306.424C185.853 305.261 185.694 303.857 185.957 302.212C186.209 300.764 186.697 299.591 187.421 298.691C188.145 297.781 189.022 297.068 190.053 296.553C191.095 296.026 192.214 295.637 193.41 295.384C194.616 295.121 195.817 294.918 197.013 294.776C198.57 294.578 199.837 294.425 200.813 294.315C201.789 294.205 202.524 294.024 203.017 293.772C203.511 293.52 203.813 293.087 203.922 292.473V292.341C204.185 290.729 203.972 289.473 203.281 288.573C202.59 287.663 201.356 287.208 199.579 287.208C197.736 287.208 196.195 287.614 194.956 288.425C193.717 289.237 192.801 290.104 192.209 291.025L188.787 289.709C189.686 288.173 190.761 286.978 192.011 286.122C193.262 285.256 194.572 284.653 195.943 284.313C197.314 283.962 198.636 283.786 199.908 283.786C200.72 283.786 201.635 283.885 202.655 284.082C203.675 284.269 204.63 284.658 205.518 285.25C206.417 285.843 207.092 286.736 207.542 287.932C208.002 289.127 208.068 290.729 207.739 292.736L204.975 309.385H201.093L201.685 305.963H201.487C201.136 306.511 200.599 307.098 199.875 307.723C199.162 308.348 198.257 308.88 197.161 309.319C196.075 309.758 194.797 309.977 193.327 309.977ZM194.446 306.489C195.982 306.489 197.325 306.188 198.477 305.585C199.639 304.981 200.572 304.203 201.274 303.248C201.986 302.294 202.431 301.291 202.606 300.238L203.198 296.684C203.001 296.882 202.612 297.063 202.03 297.227C201.449 297.381 200.791 297.518 200.056 297.638C199.332 297.748 198.625 297.847 197.934 297.935C197.254 298.011 196.705 298.077 196.289 298.132C195.258 298.264 194.276 298.477 193.344 298.774C192.422 299.059 191.644 299.492 191.008 300.073C190.382 300.644 189.993 301.422 189.84 302.409C189.609 303.758 189.933 304.778 190.81 305.469C191.688 306.149 192.9 306.489 194.446 306.489ZM218.445 294.184L215.944 309.385H212.062L216.273 284.115H220.024L219.366 288.063H219.695C220.485 286.78 221.554 285.749 222.903 284.971C224.252 284.181 225.881 283.786 227.79 283.786C229.479 283.786 230.904 284.137 232.067 284.839C233.241 285.53 234.069 286.583 234.551 287.998C235.045 289.402 235.116 291.178 234.765 293.328L232.067 309.385H228.184L230.817 293.591C231.146 291.617 230.888 290.071 230.043 288.952C229.21 287.833 227.888 287.274 226.079 287.274C224.828 287.274 223.671 287.543 222.607 288.08C221.554 288.617 220.66 289.402 219.926 290.433C219.202 291.464 218.708 292.714 218.445 294.184ZM252.718 309.385L258.312 275.692H270.091C272.438 275.692 274.308 276.098 275.701 276.909C277.094 277.71 278.048 278.79 278.564 280.15C279.079 281.499 279.194 282.996 278.909 284.642C278.668 286.089 278.213 287.285 277.544 288.228C276.885 289.171 276.096 289.917 275.175 290.465C274.264 291.014 273.315 291.42 272.328 291.683L272.263 292.012C273.272 292.078 274.242 292.44 275.175 293.098C276.107 293.756 276.825 294.699 277.33 295.927C277.834 297.156 277.944 298.658 277.659 300.435C277.374 302.124 276.732 303.643 275.734 304.992C274.736 306.341 273.343 307.411 271.555 308.2C269.767 308.99 267.546 309.385 264.892 309.385H252.718ZM257.39 305.766H265.484C268.15 305.766 270.129 305.25 271.424 304.219C272.729 303.177 273.513 301.916 273.776 300.435C273.952 299.295 273.825 298.242 273.398 297.276C272.981 296.3 272.284 295.522 271.308 294.94C270.343 294.348 269.126 294.052 267.656 294.052H259.364L257.39 305.766ZM259.957 290.498H267.524C268.753 290.498 269.904 290.257 270.979 289.774C272.054 289.292 272.954 288.612 273.677 287.734C274.401 286.857 274.851 285.826 275.026 284.642C275.29 283.161 274.994 281.905 274.138 280.874C273.283 279.832 271.736 279.311 269.499 279.311H261.799L259.957 290.498ZM292.852 309.911C290.428 309.911 288.426 309.374 286.847 308.299C285.268 307.213 284.165 305.7 283.54 303.758C282.915 301.806 282.816 299.536 283.244 296.947C283.672 294.359 284.522 292.078 285.794 290.104C287.066 288.118 288.651 286.572 290.549 285.464C292.446 284.345 294.53 283.786 296.8 283.786C298.116 283.786 299.383 284.005 300.601 284.444C301.818 284.883 302.871 285.596 303.759 286.583C304.648 287.559 305.267 288.853 305.618 290.465C305.969 292.078 305.947 294.063 305.553 296.421L305.289 298.066H285.811L286.337 294.71H301.867C302.12 293.284 302.054 292.012 301.67 290.893C301.297 289.774 300.644 288.892 299.712 288.244C298.791 287.597 297.623 287.274 296.208 287.274C294.749 287.274 293.389 287.669 292.128 288.458C290.867 289.237 289.814 290.224 288.969 291.42C288.125 292.604 287.598 293.811 287.39 295.039L286.929 297.935C286.6 300.029 286.65 301.696 287.077 302.936C287.516 304.175 288.278 305.069 289.364 305.617C290.45 306.155 291.81 306.424 293.444 306.424C294.486 306.424 295.446 306.281 296.323 305.996C297.201 305.7 297.985 305.261 298.676 304.68C299.367 304.087 299.948 303.353 300.42 302.475L303.973 303.528C303.37 304.8 302.52 305.919 301.423 306.884C300.337 307.838 299.065 308.584 297.606 309.122C296.159 309.648 294.574 309.911 292.852 309.911ZM309.378 309.385L313.589 284.115H317.34L316.682 287.932H316.945C317.603 286.682 318.607 285.667 319.956 284.888C321.305 284.11 322.736 283.72 324.25 283.72C324.546 283.72 324.902 283.726 325.319 283.737C325.736 283.737 326.06 283.753 326.29 283.786L325.632 287.734C325.5 287.702 325.204 287.652 324.743 287.586C324.283 287.51 323.789 287.471 323.263 287.471C322.034 287.471 320.899 287.729 319.857 288.244C318.815 288.749 317.943 289.451 317.241 290.35C316.54 291.239 316.09 292.253 315.892 293.394L313.26 309.385H309.378ZM327.232 309.385L332.825 275.692H336.708L334.668 288.129H334.997C335.348 287.691 335.836 287.131 336.461 286.451C337.086 285.76 337.925 285.146 338.978 284.609C340.031 284.06 341.38 283.786 343.025 283.786C345.153 283.786 346.935 284.318 348.372 285.382C349.82 286.446 350.834 287.954 351.416 289.906C352.008 291.858 352.085 294.162 351.646 296.816C351.207 299.492 350.368 301.812 349.129 303.775C347.901 305.727 346.387 307.241 344.588 308.316C342.801 309.379 340.854 309.911 338.748 309.911C337.125 309.911 335.869 309.643 334.981 309.105C334.103 308.557 333.456 307.937 333.039 307.246C332.633 306.544 332.321 305.963 332.101 305.502H331.641L330.983 309.385H327.232ZM333.154 296.75C332.847 298.658 332.853 300.342 333.171 301.801C333.489 303.248 334.12 304.384 335.063 305.206C336.006 306.018 337.256 306.424 338.814 306.424C340.437 306.424 341.863 305.996 343.091 305.14C344.32 304.274 345.329 303.111 346.118 301.653C346.908 300.183 347.456 298.549 347.763 296.75C348.049 294.973 348.038 293.372 347.731 291.946C347.434 290.509 346.809 289.374 345.855 288.541C344.912 287.696 343.618 287.274 341.972 287.274C340.393 287.274 338.995 287.674 337.777 288.475C336.571 289.264 335.573 290.372 334.783 291.798C334.004 293.213 333.461 294.864 333.154 296.75ZM355.479 309.385L359.691 284.115H363.574L359.362 309.385H355.479ZM362.817 279.838C362.06 279.838 361.407 279.58 360.859 279.064C360.322 278.549 360.053 277.929 360.053 277.205C360.053 276.482 360.322 275.862 360.859 275.346C361.407 274.831 362.06 274.573 362.817 274.573C363.574 274.573 364.221 274.831 364.758 275.346C365.306 275.862 365.581 276.482 365.581 277.205C365.581 277.929 365.306 278.549 364.758 279.064C364.221 279.58 363.574 279.838 362.817 279.838ZM376.673 309.911C374.293 309.911 372.341 309.352 370.816 308.233C369.303 307.115 368.25 305.574 367.658 303.61C367.065 301.647 366.978 299.404 367.394 296.882C367.811 294.315 368.656 292.05 369.928 290.087C371.2 288.113 372.785 286.572 374.683 285.464C376.58 284.345 378.669 283.786 380.951 283.786C382.727 283.786 384.274 284.115 385.59 284.773C386.906 285.431 387.921 286.353 388.634 287.537C389.347 288.722 389.681 290.104 389.637 291.683H385.755C385.645 290.531 385.151 289.511 384.274 288.623C383.407 287.723 382.124 287.274 380.424 287.274C378.911 287.274 377.518 287.669 376.245 288.458C374.973 289.237 373.904 290.339 373.037 291.765C372.171 293.18 371.584 294.842 371.277 296.75C370.948 298.702 370.975 300.402 371.359 301.85C371.743 303.298 372.44 304.422 373.449 305.223C374.458 306.023 375.73 306.424 377.265 306.424C378.275 306.424 379.218 306.248 380.095 305.897C380.973 305.546 381.751 305.042 382.431 304.384C383.111 303.726 383.649 302.936 384.044 302.015H387.926C387.444 303.506 386.67 304.85 385.606 306.045C384.543 307.23 383.254 308.173 381.74 308.875C380.227 309.566 378.538 309.911 376.673 309.911ZM399.722 309.977C398.121 309.977 396.717 309.676 395.51 309.072C394.304 308.458 393.41 307.575 392.829 306.424C392.247 305.261 392.088 303.857 392.352 302.212C392.604 300.764 393.092 299.591 393.816 298.691C394.54 297.781 395.417 297.068 396.448 296.553C397.49 296.026 398.609 295.637 399.804 295.384C401.011 295.121 402.212 294.918 403.407 294.776C404.965 294.578 406.231 294.425 407.208 294.315C408.184 294.205 408.919 294.024 409.412 293.772C409.906 293.52 410.207 293.087 410.317 292.473V292.341C410.58 290.729 410.366 289.473 409.675 288.573C408.984 287.663 407.75 287.208 405.974 287.208C404.131 287.208 402.59 287.614 401.351 288.425C400.111 289.237 399.196 290.104 398.603 291.025L395.181 289.709C396.081 288.173 397.156 286.978 398.406 286.122C399.656 285.256 400.967 284.653 402.338 284.313C403.709 283.962 405.03 283.786 406.303 283.786C407.114 283.786 408.03 283.885 409.05 284.082C410.07 284.269 411.024 284.658 411.913 285.25C412.812 285.843 413.487 286.736 413.936 287.932C414.397 289.127 414.463 290.729 414.134 292.736L411.37 309.385H407.487L408.079 305.963H407.882C407.531 306.511 406.994 307.098 406.27 307.723C405.557 308.348 404.652 308.88 403.555 309.319C402.469 309.758 401.192 309.977 399.722 309.977ZM400.841 306.489C402.376 306.489 403.72 306.188 404.871 305.585C406.034 304.981 406.966 304.203 407.668 303.248C408.381 302.294 408.825 301.291 409.001 300.238L409.593 296.684C409.396 296.882 409.006 297.063 408.425 297.227C407.844 297.381 407.186 297.518 406.451 297.638C405.727 297.748 405.019 297.847 404.329 297.935C403.649 298.011 403.1 298.077 402.683 298.132C401.652 298.264 400.671 298.477 399.738 298.774C398.817 299.059 398.038 299.492 397.402 300.073C396.777 300.644 396.388 301.422 396.234 302.409C396.004 303.758 396.328 304.778 397.205 305.469C398.082 306.149 399.294 306.489 400.841 306.489ZM418.456 309.385L422.668 284.115H426.419L425.761 287.932H426.024C426.682 286.682 427.686 285.667 429.035 284.888C430.384 284.11 431.815 283.72 433.329 283.72C433.625 283.72 433.981 283.726 434.398 283.737C434.815 283.737 435.138 283.753 435.369 283.786L434.711 287.734C434.579 287.702 434.283 287.652 433.822 287.586C433.362 287.51 432.868 287.471 432.342 287.471C431.113 287.471 429.978 287.729 428.936 288.244C427.894 288.749 427.022 289.451 426.32 290.35C425.618 291.239 425.169 292.253 424.971 293.394L422.339 309.385H418.456ZM443.155 309.977C441.553 309.977 440.149 309.676 438.943 309.072C437.736 308.458 436.843 307.575 436.261 306.424C435.68 305.261 435.521 303.857 435.784 302.212C436.036 300.764 436.524 299.591 437.248 298.691C437.972 297.781 438.85 297.068 439.881 296.553C440.923 296.026 442.041 295.637 443.237 295.384C444.443 295.121 445.644 294.918 446.84 294.776C448.397 294.578 449.664 294.425 450.64 294.315C451.616 294.205 452.351 294.024 452.845 293.772C453.338 293.52 453.64 293.087 453.749 292.473V292.341C454.013 290.729 453.799 289.473 453.108 288.573C452.417 287.663 451.183 287.208 449.406 287.208C447.564 287.208 446.023 287.614 444.783 288.425C443.544 289.237 442.628 290.104 442.036 291.025L438.614 289.709C439.513 288.173 440.588 286.978 441.838 286.122C443.089 285.256 444.399 284.653 445.77 284.313C447.141 283.962 448.463 283.786 449.735 283.786C450.547 283.786 451.463 283.885 452.483 284.082C453.503 284.269 454.457 284.658 455.345 285.25C456.245 285.843 456.919 286.736 457.369 287.932C457.829 289.127 457.895 290.729 457.566 292.736L454.802 309.385H450.92L451.512 305.963H451.315C450.964 306.511 450.426 307.098 449.702 307.723C448.989 308.348 448.085 308.88 446.988 309.319C445.902 309.758 444.624 309.977 443.155 309.977ZM444.273 306.489C445.809 306.489 447.152 306.188 448.304 305.585C449.466 304.981 450.399 304.203 451.101 303.248C451.814 302.294 452.258 301.291 452.433 300.238L453.026 296.684C452.828 296.882 452.439 297.063 451.857 297.227C451.276 297.381 450.618 297.518 449.883 297.638C449.159 297.748 448.452 297.847 447.761 297.935C447.081 298.011 446.533 298.077 446.116 298.132C445.085 298.264 444.103 298.477 443.171 298.774C442.25 299.059 441.471 299.492 440.835 300.073C440.21 300.644 439.82 301.422 439.667 302.409C439.436 303.758 439.76 304.778 440.637 305.469C441.515 306.149 442.727 306.489 444.273 306.489Z" fill="white"/>
</svg>
