<svg width="13" height="12" viewBox="0 0 13 12" fill="none" xmlns="http://www.w3.org/2000/svg">
<path d="M11.7861 4.28543L7.60742 3.96399L8.22352 1.56926C8.38424 0.856732 8.20262 0.447699 7.62162 0.267425L6.69239 0.00357569C6.6704 -0.00225284 6.64712 -0.000929677 6.62593 0.00735371C6.60474 0.0156371 6.58674 0.0304506 6.57453 0.0496487L3.11904 5.46967C3.09988 5.50084 3.07305 5.52658 3.04112 5.54445C3.00919 5.56231 2.97322 5.5717 2.93663 5.57173H0V11.1428H3.15038C3.28859 11.1428 3.42589 11.165 3.55701 11.2087L5.60083 11.8899C5.81935 11.9628 6.04818 12 6.27853 12H11.0447C11.5536 12 11.8885 11.6378 11.9884 11.1385L12.8576 7.32786V5.3569C12.8576 4.76598 12.3755 4.339 11.7861 4.28543Z" fill="white"/>
</svg>
