<svg width="39" height="21" viewBox="0 0 39 21" fill="none" xmlns="http://www.w3.org/2000/svg">
<path d="M14.7217 18.5H10C7.87827 18.5 5.84344 17.6571 4.34315 16.1569C2.84286 14.6566 2 12.6217 2 10.5C2 8.37827 2.84286 6.34344 4.34315 4.84315C5.84344 3.34286 7.87827 2.5 10 2.5H14.6175M24.0492 2.5H28.6667C30.7884 2.5 32.8232 3.34286 34.3235 4.84315C35.8238 6.34344 36.6667 8.37827 36.6667 10.5C36.6667 12.6217 35.8238 14.6566 34.3235 16.1569C32.8232 17.6571 30.7884 18.5 28.6667 18.5H23.945M12.0892 10.5H26.7442" stroke="#C82323" stroke-width="4" stroke-linecap="round" stroke-linejoin="round"/>
</svg>
