<svg width="236" height="55" viewBox="0 0 236 55" fill="none" xmlns="http://www.w3.org/2000/svg">
<path d="M63.3099 54.6433H0.00389791C-0.0480281 54.3216 0.432541 52.3738 0.630064 51.5562C1.97403 45.9839 7.12082 40.4247 12.9773 39.6061C14.3732 39.4106 15.7151 39.3648 16.7577 38.2072C17.339 37.0648 17.9347 35.8919 18.5038 34.7719C18.6769 34.4319 19.0333 34.2262 19.414 34.2415C20.0158 34.2669 20.5798 34.3972 21.0543 33.9421C21.0512 33.1561 21.0736 32.3507 20.9474 31.5708C20.8578 31.0149 20.6481 30.513 20.3172 30.0558C20.1145 29.7758 19.8844 29.5172 19.6492 29.2647C19.5016 29.1059 19.3519 28.9501 19.2002 28.7943C19.0465 28.6365 18.8734 28.494 18.7125 28.3423C18.6056 28.554 18.3898 28.6905 18.1678 28.777C17.7677 28.9338 17.391 29.0132 17.0662 29.3126C16.7923 29.564 16.5866 29.8776 16.327 30.1434C15.9014 30.5761 15.4555 30.9884 14.9362 31.3092C14.3406 31.6788 13.6777 31.8997 12.9854 31.9995C12.5822 32.0575 12.1749 32.0789 11.7677 32.0809C11.5345 32.0819 11.3014 32.0769 11.0682 32.0667C10.9878 32.0636 10.3514 31.9822 10.328 32.0229C10.9715 30.8785 10.8524 29.4989 11.3838 28.5092C11.9632 27.429 12.9477 26.475 13.9883 25.6085C14.9657 24.793 16.7811 25.4975 17.1527 23.3767C14.6236 18.5934 15.764 14.0209 17.4969 9.50024C17.6221 9.17545 17.7626 8.85676 17.9194 8.54623C19.1137 6.1729 21.4005 3.83318 24.12 3.41064C24.8693 3.29457 25.6289 3.22534 26.3864 3.19072C32.0107 2.93822 31.189 2.45357 34.5388 1.35804C37.4884 0.393841 41.7382 -1.2515 44.1247 1.58407C45.4941 3.21108 45.933 5.56303 45.544 7.62174C45.5277 7.70727 45.5277 7.80094 45.5471 7.90784C47.1812 11.9815 48.8978 16.0735 48.1128 20.2846C48.7981 21.6265 49.694 23.3268 50.2001 24.3165C50.3019 24.515 50.2968 24.7512 50.1878 24.9457C49.8325 25.581 49.1524 25.8193 48.627 26.2774C48.346 26.5228 48.1861 26.8792 48.1861 27.2528C48.1872 28.1539 48.2218 29.6832 48.2421 30.5181C48.2503 30.8744 48.0446 31.2012 47.7188 31.3458C47.1853 31.5841 46.4176 31.9262 46.1997 32.0209C45.6957 32.2398 45.1907 32.4587 44.6867 32.6776L44.6704 32.6847C44.3884 32.8069 44.3894 33.206 44.6704 33.3282C44.9362 33.4432 45.2009 33.5613 45.4666 33.6774C45.598 33.7344 45.7283 33.7914 45.8597 33.8474C45.8597 33.8474 45.8607 33.8474 45.8617 33.8474C46.0796 33.9411 46.2201 34.1549 46.2211 34.3921C46.2211 34.4767 46.2211 34.552 46.2211 34.5866C46.217 34.8004 46.2099 35.0153 46.1946 35.2281C46.158 35.7514 46.1987 36.123 46.2313 36.6504C46.2598 37.1147 45.9645 38.3375 44.3406 38.1746C43.7511 38.1155 43.1595 38.0738 42.568 38.0697C41.616 38.0636 39.9829 37.9526 39.2396 38.7468C39.094 38.9026 39.0105 39.1378 38.8456 39.3017C38.7173 39.429 37.9038 40.8503 38.4444 40.8493C39.5308 40.8442 40.6161 40.8462 41.7015 40.8462C41.8104 40.8462 41.9143 40.89 41.9927 40.9654C43.0221 41.9683 43.3153 43.0495 43.7969 44.1288C52.0969 44.1339 58.9073 47.0794 63.3088 54.6402L63.3099 54.6433Z" fill="#C82323"/>
<path d="M54.8714 28.7893L50.0586 31.4671C50.1533 31.6371 50.2276 31.8163 50.2826 32.0036L55.5668 30.455C55.3978 29.8767 55.1626 29.3167 54.8704 28.7903L54.8714 28.7893Z" fill="#C82323"/>
<path d="M50.194 33.7141L50.1899 33.7253C50.1136 33.9086 50.0189 34.0796 49.9089 34.2344L54.4051 37.4151C54.7533 36.9233 55.0476 36.3908 55.2787 35.8319L55.2828 35.8207L50.195 33.7141H50.194Z" fill="#C82323"/>
<path d="M55.8794 32.2419L50.3824 32.5759C50.3935 32.7673 50.3844 32.9628 50.3518 33.1562L55.7847 34.0594C55.8845 33.4607 55.916 32.8498 55.8794 32.243V32.2419Z" fill="#C82323"/>
<path d="M86.7303 14C86.7814 13.4375 86.645 12.9972 86.3212 12.679C85.9973 12.3551 85.4519 12.1932 84.6848 12.1932C84.1962 12.1932 83.7871 12.25 83.4575 12.3636C83.1337 12.4773 82.8808 12.6335 82.699 12.8324C82.5229 13.0312 82.4121 13.2614 82.3666 13.5227C82.3155 13.7273 82.3183 13.9148 82.3752 14.0852C82.4377 14.25 82.5541 14.4006 82.7246 14.5369C82.9007 14.6733 83.1308 14.7955 83.4149 14.9034C83.7047 15.0114 84.0485 15.108 84.4462 15.1932L85.8098 15.5C86.7416 15.7045 87.5229 15.9744 88.1536 16.3097C88.7899 16.6392 89.2899 17.0312 89.6536 17.4858C90.0172 17.9403 90.2558 18.4489 90.3695 19.0114C90.4888 19.5739 90.4916 20.1875 90.378 20.8523C90.1848 22 89.7388 22.9716 89.0399 23.767C88.3411 24.5625 87.4291 25.1676 86.3041 25.5824C85.1791 25.9972 83.878 26.2045 82.4007 26.2045C80.8894 26.2045 79.6053 25.9801 78.5485 25.5312C77.4973 25.0767 76.736 24.3835 76.2644 23.4517C75.7985 22.5142 75.6848 21.3182 75.9235 19.8636H80.4235C80.3553 20.3977 80.4121 20.8466 80.5939 21.2102C80.7757 21.5739 81.0683 21.8494 81.4717 22.0369C81.8752 22.2244 82.378 22.3182 82.9803 22.3182C83.4916 22.3182 83.9291 22.2557 84.2928 22.1307C84.6564 22.0057 84.9433 21.8324 85.1536 21.6108C85.3638 21.3892 85.4916 21.1364 85.5371 20.8523C85.5825 20.5909 85.5371 20.358 85.4007 20.1534C85.2644 19.9489 85.0172 19.7642 84.6592 19.5994C84.3013 19.4347 83.8098 19.2841 83.1848 19.1477L81.5144 18.7727C80.0314 18.4318 78.9121 17.8693 78.1564 17.0852C77.4007 16.3011 77.1337 15.2273 77.3553 13.8636C77.5371 12.75 77.9945 11.7784 78.7274 10.9489C79.4661 10.1136 80.4036 9.46591 81.5399 9.00568C82.682 8.53977 83.9462 8.30682 85.3325 8.30682C86.7416 8.30682 87.9206 8.54261 88.8695 9.0142C89.824 9.4858 90.5087 10.1477 90.9235 11C91.3439 11.8523 91.4575 12.8523 91.2644 14H86.7303ZM120.435 17.5795C120.117 19.4773 119.486 21.0682 118.543 22.3523C117.6 23.6364 116.455 24.6051 115.108 25.2585C113.762 25.9119 112.321 26.2386 110.787 26.2386C109.151 26.2386 107.731 25.8835 106.526 25.1733C105.321 24.4631 104.444 23.4233 103.892 22.054C103.341 20.6847 103.231 19.0114 103.56 17.0341C103.867 15.1364 104.492 13.5398 105.435 12.2443C106.378 10.9489 107.529 9.96875 108.887 9.30398C110.245 8.6392 111.696 8.30682 113.242 8.30682C114.867 8.30682 116.279 8.66477 117.478 9.38068C118.682 10.0966 119.557 11.1449 120.103 12.5256C120.654 13.9062 120.765 15.5909 120.435 17.5795ZM115.662 17.0341C115.821 16.0341 115.833 15.1932 115.696 14.5114C115.56 13.8239 115.273 13.3068 114.836 12.9602C114.398 12.608 113.81 12.4318 113.071 12.4318C112.231 12.4318 111.486 12.6364 110.839 13.0455C110.191 13.4545 109.654 14.0426 109.228 14.8097C108.802 15.5767 108.503 16.5 108.333 17.5795C108.151 18.5909 108.134 19.4318 108.282 20.1023C108.435 20.7727 108.736 21.2756 109.185 21.6108C109.64 21.946 110.231 22.1136 110.958 22.1136C111.787 22.1136 112.52 21.9148 113.157 21.517C113.799 21.1193 114.33 20.5426 114.75 19.7869C115.177 19.0312 115.481 18.1136 115.662 17.0341ZM132.03 26L134.928 8.54545H147.507L146.859 12.3636H139.018L138.541 15.3636H145.734L145.087 19.1818H137.893L137.416 22.1818H145.223L144.575 26H132.03ZM162.294 26H157.18L165.839 8.54545H172.316L175.18 26H170.066L168.362 13.3523H168.225L162.294 26ZM162.498 19.1136H172.112L171.498 22.6591H161.885L162.498 19.1136ZM187.661 26L190.559 8.54545H198.093C199.388 8.54545 200.482 8.78125 201.374 9.25284C202.266 9.72443 202.908 10.4034 203.3 11.2898C203.692 12.1761 203.786 13.2386 203.582 14.4773C203.377 15.7273 202.925 16.7812 202.226 17.6392C201.533 18.4915 200.65 19.1392 199.576 19.5824C198.508 20.0199 197.309 20.2386 195.979 20.2386H191.479L192.093 16.5568H195.638C196.195 16.5568 196.684 16.4886 197.104 16.3523C197.525 16.2102 197.866 15.9886 198.127 15.6875C198.388 15.3807 198.559 14.9773 198.638 14.4773C198.718 13.9773 198.678 13.571 198.519 13.2585C198.36 12.9403 198.096 12.7074 197.726 12.5597C197.357 12.4062 196.9 12.3295 196.354 12.3295H194.684L192.4 26H187.661ZM199.218 17.9886L202.252 26H197.104L194.172 17.9886H199.218ZM219.261 26H214.147L222.806 8.54545H229.284L232.147 26H227.034L225.329 13.3523H225.193L219.261 26ZM219.465 19.1136H229.079L228.465 22.6591H218.852L219.465 19.1136Z" fill="#C82323"/>
<path d="M84.7871 38.3636C84.7871 37.7386 84.5806 37.2652 84.1678 36.9432C83.7549 36.6174 83.1962 36.4545 82.4916 36.4545C81.9765 36.4545 81.5125 36.5379 81.0996 36.7045C80.6867 36.8712 80.3496 37.1004 80.0882 37.392C79.8269 37.6837 79.6659 38.0152 79.6053 38.3864C79.556 38.697 79.5882 38.964 79.7019 39.1875C79.8155 39.4072 79.9765 39.5909 80.1848 39.7386C80.3969 39.8826 80.6242 40.0019 80.8666 40.0966C81.1091 40.1875 81.3325 40.2614 81.5371 40.3182L82.6735 40.6364C82.9575 40.7159 83.2738 40.8258 83.6223 40.9659C83.9708 41.1061 84.2966 41.2973 84.5996 41.5398C84.9026 41.7784 85.1337 42.0852 85.2928 42.4602C85.4556 42.8352 85.4916 43.2955 85.4007 43.8409C85.2947 44.4697 85.0352 45.0379 84.6223 45.5455C84.2132 46.053 83.6716 46.4564 82.9973 46.7557C82.3269 47.0549 81.5447 47.2045 80.6507 47.2045C79.8174 47.2045 79.1166 47.0701 78.5485 46.8011C77.9841 46.5322 77.5674 46.1572 77.2985 45.6761C77.0333 45.1951 76.931 44.6364 76.9916 44H78.4462C78.4083 44.4394 78.4954 44.803 78.7075 45.0909C78.9197 45.375 79.2151 45.5871 79.5939 45.7273C79.9727 45.8636 80.3931 45.9318 80.8553 45.9318C81.3931 45.9318 81.8894 45.8447 82.3439 45.6705C82.8022 45.4924 83.181 45.2462 83.4803 44.9318C83.7833 44.6136 83.9689 44.2424 84.0371 43.8182C84.1053 43.4318 84.0522 43.1174 83.878 42.875C83.7038 42.6326 83.4519 42.4356 83.1223 42.2841C82.7928 42.1326 82.431 42 82.0371 41.8864L80.6735 41.4773C79.8098 41.2159 79.1526 40.8428 78.7019 40.358C78.2549 39.8731 78.0939 39.2386 78.2189 38.4545C78.3325 37.803 78.6072 37.2348 79.0428 36.75C79.4784 36.2614 80.0181 35.8826 80.6621 35.6136C81.306 35.3409 81.9992 35.2045 82.7416 35.2045C83.4916 35.2045 84.1337 35.3409 84.6678 35.6136C85.2019 35.8826 85.5996 36.2557 85.861 36.733C86.1223 37.2064 86.2189 37.75 86.1507 38.3636H84.7871ZM90.6152 47.1818C89.8122 47.1818 89.1398 46.9905 88.5982 46.608C88.0565 46.2254 87.6739 45.6894 87.4504 45C87.2307 44.3106 87.1948 43.5076 87.3425 42.5909C87.4864 41.697 87.7724 40.9186 88.2004 40.2557C88.6323 39.589 89.1682 39.0739 89.8084 38.7102C90.4523 38.3428 91.1607 38.1591 91.9334 38.1591C92.7364 38.1591 93.4069 38.3523 93.9448 38.7386C94.4864 39.1212 94.869 39.6591 95.0925 40.3523C95.316 41.0417 95.3538 41.8485 95.2061 42.7727C95.0622 43.6591 94.7724 44.4337 94.3368 45.0966C93.905 45.7557 93.369 46.2689 92.7288 46.6364C92.0925 47 91.3879 47.1818 90.6152 47.1818ZM90.6379 45.9773C91.2516 45.9773 91.7838 45.8201 92.2345 45.5057C92.6891 45.1913 93.0565 44.7765 93.3368 44.2614C93.6209 43.7462 93.8122 43.1894 93.9107 42.5909C94.0016 42.0227 93.9978 41.4943 93.8993 41.0057C93.8008 40.5133 93.5906 40.1174 93.2686 39.8182C92.9467 39.5152 92.494 39.3636 91.9107 39.3636C91.297 39.3636 90.761 39.5227 90.3027 39.8409C89.8482 40.1591 89.4807 40.5777 89.2004 41.0966C88.9201 41.6155 88.7326 42.1742 88.6379 42.7727C88.547 43.3409 88.5489 43.8693 88.6436 44.358C88.7421 44.8428 88.9523 45.2348 89.2743 45.5341C89.6001 45.8295 90.0546 45.9773 90.6379 45.9773ZM100.196 47.1818C99.3591 47.1818 98.6678 46.9962 98.1223 46.625C97.5769 46.25 97.1962 45.7273 96.9803 45.0568C96.7644 44.3826 96.7303 43.5985 96.878 42.7045C97.0257 41.8106 97.3193 41.0227 97.7587 40.3409C98.1981 39.6553 98.7454 39.1212 99.4007 38.7386C100.056 38.3523 100.776 38.1591 101.56 38.1591C102.014 38.1591 102.452 38.2348 102.872 38.3864C103.293 38.5379 103.656 38.7841 103.963 39.125C104.27 39.4621 104.484 39.9091 104.605 40.4659C104.726 41.0227 104.719 41.7083 104.583 42.5227L104.492 43.0909H97.7644L97.9462 41.9318H103.31C103.397 41.4394 103.374 41 103.242 40.6136C103.113 40.2273 102.887 39.9223 102.565 39.6989C102.247 39.4754 101.844 39.3636 101.355 39.3636C100.851 39.3636 100.382 39.5 99.9462 39.7727C99.5106 40.0417 99.1469 40.3826 98.8553 40.7955C98.5636 41.2045 98.3818 41.6212 98.3098 42.0455L98.1507 43.0455C98.0371 43.7689 98.0541 44.3447 98.2019 44.7727C98.3534 45.2008 98.6166 45.5095 98.9916 45.6989C99.3666 45.8845 99.8363 45.9773 100.401 45.9773C100.761 45.9773 101.092 45.928 101.395 45.8295C101.698 45.7273 101.969 45.5758 102.208 45.375C102.446 45.1705 102.647 44.9167 102.81 44.6136L104.037 44.9773C103.829 45.4167 103.535 45.803 103.156 46.1364C102.781 46.4659 102.342 46.7235 101.838 46.9091C101.338 47.0909 100.791 47.1818 100.196 47.1818ZM109.188 47.1818C108.457 47.1818 107.843 46.9981 107.347 46.6307C106.851 46.2595 106.5 45.7367 106.296 45.0625C106.095 44.3845 106.07 43.5833 106.222 42.6591C106.377 41.7424 106.667 40.947 107.091 40.2727C107.519 39.5985 108.044 39.0777 108.665 38.7102C109.286 38.3428 109.964 38.1591 110.699 38.1591C111.267 38.1591 111.701 38.2538 112 38.4432C112.303 38.6288 112.523 38.8409 112.659 39.0795C112.796 39.3144 112.9 39.5076 112.972 39.6591H113.085L113.801 35.3636H115.142L113.21 47H111.915L112.142 45.6591H111.983C111.858 45.8182 111.684 46.0189 111.46 46.2614C111.237 46.5 110.941 46.714 110.574 46.9034C110.21 47.089 109.748 47.1818 109.188 47.1818ZM109.517 45.9773C110.055 45.9773 110.536 45.8371 110.96 45.5568C111.388 45.2727 111.744 44.8807 112.029 44.3807C112.313 43.8769 112.51 43.2955 112.619 42.6364C112.729 41.9848 112.726 41.4148 112.608 40.9261C112.491 40.4337 112.265 40.0511 111.932 39.7784C111.599 39.5019 111.157 39.3636 110.608 39.3636C110.044 39.3636 109.553 39.5095 109.137 39.8011C108.72 40.089 108.381 40.4811 108.119 40.9773C107.858 41.4697 107.676 42.0227 107.574 42.6364C107.472 43.2576 107.47 43.822 107.568 44.3295C107.667 44.8333 107.875 45.2348 108.193 45.5341C108.515 45.8295 108.957 45.9773 109.517 45.9773ZM115.841 47L117.296 38.2727H118.637L117.182 47H115.841ZM118.375 36.7955C118.114 36.7955 117.888 36.7064 117.699 36.5284C117.513 36.3504 117.421 36.1364 117.421 35.8864C117.421 35.6364 117.513 35.4223 117.699 35.2443C117.888 35.0663 118.114 34.9773 118.375 34.9773C118.637 34.9773 118.86 35.0663 119.046 35.2443C119.235 35.4223 119.33 35.6364 119.33 35.8864C119.33 36.1364 119.235 36.3504 119.046 36.5284C118.86 36.7064 118.637 36.7955 118.375 36.7955ZM119.638 47L121.092 38.2727H122.388L122.161 39.5909H122.252C122.479 39.1591 122.825 38.8087 123.291 38.5398C123.757 38.2708 124.252 38.1364 124.774 38.1364C124.877 38.1364 125 38.1383 125.144 38.142C125.288 38.142 125.399 38.1477 125.479 38.1591L125.252 39.5227C125.206 39.5114 125.104 39.4943 124.945 39.4716C124.786 39.4451 124.615 39.4318 124.433 39.4318C124.009 39.4318 123.617 39.5208 123.257 39.6989C122.897 39.8731 122.596 40.1155 122.354 40.4261C122.111 40.733 121.956 41.0833 121.888 41.4773L120.979 47H119.638ZM125.622 47L127.077 38.2727H128.372L128.145 39.6364H128.259C128.52 39.1705 128.874 38.8087 129.321 38.5511C129.772 38.2898 130.281 38.1591 130.85 38.1591C131.418 38.1591 131.874 38.2898 132.219 38.5511C132.564 38.8087 132.804 39.1705 132.94 39.6364H133.031C133.327 39.1818 133.721 38.822 134.213 38.5568C134.709 38.2917 135.27 38.1591 135.895 38.1591C136.668 38.1591 137.262 38.4034 137.679 38.892C138.1 39.3807 138.225 40.1364 138.054 41.1591L137.077 47H135.736L136.713 41.1591C136.815 40.5114 136.713 40.0511 136.406 39.7784C136.103 39.5019 135.713 39.3636 135.236 39.3636C134.622 39.3636 134.117 39.5473 133.719 39.9148C133.321 40.2822 133.077 40.75 132.986 41.3182L132.031 47H130.668L131.668 41.0227C131.747 40.5227 131.653 40.1212 131.384 39.8182C131.115 39.5152 130.725 39.3636 130.213 39.3636C129.865 39.3636 129.524 39.4583 129.19 39.6477C128.857 39.8333 128.571 40.0909 128.333 40.4205C128.094 40.7462 127.94 41.1212 127.872 41.5455L126.963 47H125.622ZM142.074 47.2045C141.521 47.2045 141.036 47.1004 140.619 46.892C140.203 46.6799 139.894 46.375 139.693 45.9773C139.493 45.5758 139.438 45.0909 139.529 44.5227C139.616 44.0227 139.784 43.6174 140.034 43.3068C140.284 42.9924 140.587 42.7462 140.943 42.5682C141.303 42.3864 141.69 42.2519 142.102 42.1648C142.519 42.0739 142.934 42.0038 143.347 41.9545C143.885 41.8864 144.322 41.8333 144.659 41.7955C144.996 41.7576 145.25 41.6951 145.421 41.608C145.591 41.5208 145.695 41.3712 145.733 41.1591V41.1136C145.824 40.5568 145.75 40.1231 145.512 39.8125C145.273 39.4981 144.847 39.3409 144.233 39.3409C143.597 39.3409 143.065 39.4811 142.637 39.7614C142.208 40.0417 141.892 40.3409 141.688 40.6591L140.506 40.2045C140.816 39.6742 141.188 39.2614 141.619 38.9659C142.051 38.6667 142.504 38.4583 142.977 38.3409C143.451 38.2197 143.907 38.1591 144.347 38.1591C144.627 38.1591 144.943 38.1932 145.296 38.2614C145.648 38.3258 145.977 38.4602 146.284 38.6648C146.595 38.8693 146.828 39.178 146.983 39.5909C147.142 40.0038 147.165 40.5568 147.051 41.25L146.097 47H144.756L144.96 45.8182H144.892C144.771 46.0076 144.585 46.2102 144.335 46.4261C144.089 46.642 143.777 46.8258 143.398 46.9773C143.023 47.1288 142.582 47.2045 142.074 47.2045ZM142.46 46C142.991 46 143.455 45.8958 143.852 45.6875C144.254 45.4792 144.576 45.2102 144.818 44.8807C145.065 44.5511 145.218 44.2045 145.279 43.8409L145.483 42.6136C145.415 42.6818 145.28 42.7443 145.08 42.8011C144.879 42.8542 144.652 42.9015 144.398 42.9432C144.148 42.9811 143.904 43.0152 143.665 43.0455C143.43 43.072 143.241 43.0947 143.097 43.1136C142.741 43.1591 142.402 43.233 142.08 43.3352C141.762 43.4337 141.493 43.5833 141.273 43.7841C141.057 43.9811 140.923 44.25 140.869 44.5909C140.79 45.0568 140.902 45.4091 141.205 45.6477C141.508 45.8826 141.926 46 142.46 46ZM150.749 41.75L149.885 47H148.544L149.999 38.2727H151.294L151.067 39.6364H151.181C151.453 39.1932 151.823 38.8371 152.289 38.5682C152.754 38.2955 153.317 38.1591 153.976 38.1591C154.559 38.1591 155.052 38.2803 155.453 38.5227C155.859 38.7614 156.145 39.125 156.311 39.6136C156.482 40.0985 156.506 40.7121 156.385 41.4545L155.453 47H154.112L155.021 41.5455C155.135 40.8636 155.046 40.3295 154.754 39.9432C154.467 39.5568 154.01 39.3636 153.385 39.3636C152.953 39.3636 152.554 39.4564 152.186 39.642C151.823 39.8277 151.514 40.0985 151.26 40.4545C151.01 40.8106 150.84 41.2424 150.749 41.75ZM162.585 47L164.517 35.3636H168.585C169.396 35.3636 170.042 35.5038 170.523 35.7841C171.004 36.0606 171.333 36.4337 171.512 36.9034C171.69 37.3693 171.729 37.8864 171.631 38.4545C171.548 38.9545 171.39 39.3674 171.159 39.6932C170.932 40.0189 170.659 40.2765 170.341 40.4659C170.027 40.6553 169.699 40.7955 169.358 40.8864L169.335 41C169.684 41.0227 170.019 41.1477 170.341 41.375C170.663 41.6023 170.911 41.928 171.085 42.3523C171.26 42.7765 171.298 43.2955 171.199 43.9091C171.101 44.4924 170.879 45.017 170.534 45.483C170.19 45.9489 169.708 46.3182 169.091 46.5909C168.474 46.8636 167.707 47 166.79 47H162.585ZM164.199 45.75H166.994C167.915 45.75 168.599 45.572 169.046 45.2159C169.496 44.8561 169.767 44.4205 169.858 43.9091C169.919 43.5152 169.875 43.1515 169.727 42.8182C169.583 42.4811 169.343 42.2121 169.006 42.0114C168.673 41.8068 168.252 41.7045 167.744 41.7045H164.881L164.199 45.75ZM165.085 40.4773H167.699C168.123 40.4773 168.521 40.3939 168.892 40.2273C169.263 40.0606 169.574 39.8258 169.824 39.5227C170.074 39.2197 170.229 38.8636 170.29 38.4545C170.381 37.9432 170.279 37.5095 169.983 37.1534C169.688 36.7936 169.154 36.6136 168.381 36.6136H165.722L165.085 40.4773ZM176.446 47.1818C175.609 47.1818 174.918 46.9962 174.372 46.625C173.827 46.25 173.446 45.7273 173.23 45.0568C173.014 44.3826 172.98 43.5985 173.128 42.7045C173.276 41.8106 173.569 41.0227 174.009 40.3409C174.448 39.6553 174.995 39.1212 175.651 38.7386C176.306 38.3523 177.026 38.1591 177.81 38.1591C178.264 38.1591 178.702 38.2348 179.122 38.3864C179.543 38.5379 179.906 38.7841 180.213 39.125C180.52 39.4621 180.734 39.9091 180.855 40.4659C180.976 41.0227 180.969 41.7083 180.833 42.5227L180.742 43.0909H174.014L174.196 41.9318H179.56C179.647 41.4394 179.624 41 179.492 40.6136C179.363 40.2273 179.137 39.9223 178.815 39.6989C178.497 39.4754 178.094 39.3636 177.605 39.3636C177.101 39.3636 176.632 39.5 176.196 39.7727C175.761 40.0417 175.397 40.3826 175.105 40.7955C174.814 41.2045 174.632 41.6212 174.56 42.0455L174.401 43.0455C174.287 43.7689 174.304 44.3447 174.452 44.7727C174.603 45.2008 174.867 45.5095 175.242 45.6989C175.617 45.8845 176.086 45.9773 176.651 45.9773C177.011 45.9773 177.342 45.928 177.645 45.8295C177.948 45.7273 178.219 45.5758 178.458 45.375C178.696 45.1705 178.897 44.9167 179.06 44.6136L180.287 44.9773C180.079 45.4167 179.785 45.803 179.406 46.1364C179.031 46.4659 178.592 46.7235 178.088 46.9091C177.588 47.0909 177.041 47.1818 176.446 47.1818ZM182.154 47L183.608 38.2727H184.904L184.676 39.5909H184.767C184.994 39.1591 185.341 38.8087 185.807 38.5398C186.273 38.2708 186.767 38.1364 187.29 38.1364C187.392 38.1364 187.515 38.1383 187.659 38.142C187.803 38.142 187.915 38.1477 187.994 38.1591L187.767 39.5227C187.722 39.5114 187.619 39.4943 187.46 39.4716C187.301 39.4451 187.131 39.4318 186.949 39.4318C186.525 39.4318 186.133 39.5208 185.773 39.6989C185.413 39.8731 185.112 40.1155 184.869 40.4261C184.627 40.733 184.472 41.0833 184.404 41.4773L183.494 47H182.154ZM188.32 47L190.252 35.3636H191.592L190.888 39.6591H191.002C191.123 39.5076 191.291 39.3144 191.507 39.0795C191.723 38.8409 192.013 38.6288 192.377 38.4432C192.74 38.2538 193.206 38.1591 193.774 38.1591C194.509 38.1591 195.125 38.3428 195.621 38.7102C196.121 39.0777 196.471 39.5985 196.672 40.2727C196.877 40.947 196.903 41.7424 196.752 42.6591C196.6 43.5833 196.31 44.3845 195.882 45.0625C195.458 45.7367 194.935 46.2595 194.314 46.6307C193.697 46.9981 193.024 47.1818 192.297 47.1818C191.736 47.1818 191.303 47.089 190.996 46.9034C190.693 46.714 190.469 46.5 190.325 46.2614C190.185 46.0189 190.077 45.8182 190.002 45.6591H189.842L189.615 47H188.32ZM190.365 42.6364C190.259 43.2955 190.261 43.8769 190.371 44.3807C190.481 44.8807 190.699 45.2727 191.024 45.5568C191.35 45.8371 191.782 45.9773 192.32 45.9773C192.88 45.9773 193.373 45.8295 193.797 45.5341C194.221 45.2348 194.57 44.8333 194.842 44.3295C195.115 43.822 195.305 43.2576 195.411 42.6364C195.509 42.0227 195.505 41.4697 195.399 40.9773C195.297 40.4811 195.081 40.089 194.752 39.8011C194.426 39.5095 193.979 39.3636 193.411 39.3636C192.865 39.3636 192.382 39.5019 191.962 39.7784C191.545 40.0511 191.2 40.4337 190.928 40.9261C190.659 41.4148 190.471 41.9848 190.365 42.6364ZM198.075 47L199.53 38.2727H200.871L199.416 47H198.075ZM200.61 36.7955C200.348 36.7955 200.123 36.7064 199.933 36.5284C199.748 36.3504 199.655 36.1364 199.655 35.8864C199.655 35.6364 199.748 35.4223 199.933 35.2443C200.123 35.0663 200.348 34.9773 200.61 34.9773C200.871 34.9773 201.094 35.0663 201.28 35.2443C201.469 35.4223 201.564 35.6364 201.564 35.8864C201.564 36.1364 201.469 36.3504 201.28 36.5284C201.094 36.7064 200.871 36.7955 200.61 36.7955ZM205.395 47.1818C204.573 47.1818 203.899 46.9886 203.372 46.6023C202.85 46.2159 202.486 45.6837 202.281 45.0057C202.077 44.3277 202.047 43.553 202.19 42.6818C202.334 41.7955 202.626 41.0133 203.065 40.3352C203.505 39.6534 204.052 39.1212 204.708 38.7386C205.363 38.3523 206.084 38.1591 206.872 38.1591C207.486 38.1591 208.02 38.2727 208.475 38.5C208.929 38.7273 209.28 39.0455 209.526 39.4545C209.772 39.8636 209.887 40.3409 209.872 40.8864H208.531C208.494 40.4886 208.323 40.1364 208.02 39.8295C207.721 39.5189 207.278 39.3636 206.69 39.3636C206.168 39.3636 205.687 39.5 205.247 39.7727C204.808 40.0417 204.439 40.4223 204.139 40.9148C203.84 41.4034 203.637 41.9773 203.531 42.6364C203.418 43.3106 203.427 43.8977 203.56 44.3977C203.692 44.8977 203.933 45.286 204.281 45.5625C204.63 45.839 205.069 45.9773 205.6 45.9773C205.948 45.9773 206.274 45.9167 206.577 45.7955C206.88 45.6742 207.149 45.5 207.384 45.2727C207.619 45.0455 207.804 44.7727 207.94 44.4545H209.281C209.115 44.9697 208.848 45.4337 208.48 45.8466C208.113 46.2557 207.668 46.5814 207.145 46.8239C206.622 47.0625 206.039 47.1818 205.395 47.1818ZM213.355 47.2045C212.802 47.2045 212.317 47.1004 211.901 46.892C211.484 46.6799 211.175 46.375 210.975 45.9773C210.774 45.5758 210.719 45.0909 210.81 44.5227C210.897 44.0227 211.065 43.6174 211.315 43.3068C211.565 42.9924 211.869 42.7462 212.225 42.5682C212.584 42.3864 212.971 42.2519 213.384 42.1648C213.8 42.0739 214.215 42.0038 214.628 41.9545C215.166 41.8864 215.603 41.8333 215.94 41.7955C216.278 41.7576 216.531 41.6951 216.702 41.608C216.872 41.5208 216.976 41.3712 217.014 41.1591V41.1136C217.105 40.5568 217.031 40.1231 216.793 39.8125C216.554 39.4981 216.128 39.3409 215.514 39.3409C214.878 39.3409 214.346 39.4811 213.918 39.7614C213.49 40.0417 213.173 40.3409 212.969 40.6591L211.787 40.2045C212.098 39.6742 212.469 39.2614 212.901 38.9659C213.333 38.6667 213.785 38.4583 214.259 38.3409C214.732 38.2197 215.189 38.1591 215.628 38.1591C215.908 38.1591 216.225 38.1932 216.577 38.2614C216.929 38.3258 217.259 38.4602 217.565 38.6648C217.876 38.8693 218.109 39.178 218.264 39.5909C218.423 40.0038 218.446 40.5568 218.333 41.25L217.378 47H216.037L216.242 45.8182H216.173C216.052 46.0076 215.867 46.2102 215.617 46.4261C215.37 46.642 215.058 46.8258 214.679 46.9773C214.304 47.1288 213.863 47.2045 213.355 47.2045ZM213.742 46C214.272 46 214.736 45.8958 215.134 45.6875C215.535 45.4792 215.857 45.2102 216.1 44.8807C216.346 44.5511 216.499 44.2045 216.56 43.8409L216.764 42.6136C216.696 42.6818 216.562 42.7443 216.361 42.8011C216.16 42.8542 215.933 42.9015 215.679 42.9432C215.429 42.9811 215.185 43.0152 214.946 43.0455C214.711 43.072 214.522 43.0947 214.378 43.1136C214.022 43.1591 213.683 43.233 213.361 43.3352C213.043 43.4337 212.774 43.5833 212.554 43.7841C212.338 43.9811 212.204 44.25 212.151 44.5909C212.071 45.0568 212.183 45.4091 212.486 45.6477C212.789 45.8826 213.208 46 213.742 46ZM219.825 47L221.28 38.2727H222.575L222.348 39.5909H222.439C222.666 39.1591 223.013 38.8087 223.479 38.5398C223.945 38.2708 224.439 38.1364 224.962 38.1364C225.064 38.1364 225.187 38.1383 225.331 38.142C225.475 38.142 225.587 38.1477 225.666 38.1591L225.439 39.5227C225.394 39.5114 225.291 39.4943 225.132 39.4716C224.973 39.4451 224.803 39.4318 224.621 39.4318C224.197 39.4318 223.805 39.5208 223.445 39.6989C223.085 39.8731 222.784 40.1155 222.541 40.4261C222.299 40.733 222.144 41.0833 222.075 41.4773L221.166 47H219.825ZM228.355 47.2045C227.802 47.2045 227.317 47.1004 226.901 46.892C226.484 46.6799 226.175 46.375 225.975 45.9773C225.774 45.5758 225.719 45.0909 225.81 44.5227C225.897 44.0227 226.065 43.6174 226.315 43.3068C226.565 42.9924 226.869 42.7462 227.225 42.5682C227.584 42.3864 227.971 42.2519 228.384 42.1648C228.8 42.0739 229.215 42.0038 229.628 41.9545C230.166 41.8864 230.603 41.8333 230.94 41.7955C231.278 41.7576 231.531 41.6951 231.702 41.608C231.872 41.5208 231.976 41.3712 232.014 41.1591V41.1136C232.105 40.5568 232.031 40.1231 231.793 39.8125C231.554 39.4981 231.128 39.3409 230.514 39.3409C229.878 39.3409 229.346 39.4811 228.918 39.7614C228.49 40.0417 228.173 40.3409 227.969 40.6591L226.787 40.2045C227.098 39.6742 227.469 39.2614 227.901 38.9659C228.333 38.6667 228.785 38.4583 229.259 38.3409C229.732 38.2197 230.189 38.1591 230.628 38.1591C230.908 38.1591 231.225 38.1932 231.577 38.2614C231.929 38.3258 232.259 38.4602 232.565 38.6648C232.876 38.8693 233.109 39.178 233.264 39.5909C233.423 40.0038 233.446 40.5568 233.333 41.25L232.378 47H231.037L231.242 45.8182H231.173C231.052 46.0076 230.867 46.2102 230.617 46.4261C230.37 46.642 230.058 46.8258 229.679 46.9773C229.304 47.1288 228.863 47.2045 228.355 47.2045ZM228.742 46C229.272 46 229.736 45.8958 230.134 45.6875C230.535 45.4792 230.857 45.2102 231.1 44.8807C231.346 44.5511 231.499 44.2045 231.56 43.8409L231.764 42.6136C231.696 42.6818 231.562 42.7443 231.361 42.8011C231.16 42.8542 230.933 42.9015 230.679 42.9432C230.429 42.9811 230.185 43.0152 229.946 43.0455C229.711 43.072 229.522 43.0947 229.378 43.1136C229.022 43.1591 228.683 43.233 228.361 43.3352C228.043 43.4337 227.774 43.5833 227.554 43.7841C227.338 43.9811 227.204 44.25 227.151 44.5909C227.071 45.0568 227.183 45.4091 227.486 45.6477C227.789 45.8826 228.208 46 228.742 46Z" fill="white"/>
</svg>
