<svg width="13" height="17" viewBox="0 0 13 17" fill="none" xmlns="http://www.w3.org/2000/svg">
<path d="M10.5092 6.36667H4.64251V3.7C4.64251 3.1342 4.86727 2.59158 5.26735 2.19151C5.66743 1.79143 6.21005 1.56667 6.77585 1.56667C7.34164 1.56667 7.88426 1.79143 8.28434 2.19151C8.68442 2.59158 8.90918 3.1342 8.90918 3.7C8.90918 3.84145 8.96537 3.9771 9.06539 4.07712C9.16541 4.17714 9.30106 4.23333 9.44251 4.23333C9.58396 4.23333 9.71962 4.17714 9.81964 4.07712C9.91966 3.9771 9.97585 3.84145 9.97585 3.7C9.97585 2.85131 9.63871 2.03737 9.03859 1.43726C8.43847 0.837142 7.62454 0.5 6.77585 0.5C5.92715 0.5 5.11322 0.837142 4.5131 1.43726C3.91299 2.03737 3.57585 2.85131 3.57585 3.7V6.36667H3.04251C2.47691 6.36728 1.93464 6.59224 1.5347 6.99219C1.13476 7.39213 0.909797 7.93439 0.90918 8.5V14.3667C0.909797 14.9323 1.13476 15.4745 1.5347 15.8745C1.93464 16.2744 2.47691 16.4994 3.04251 16.5H10.5092C11.0748 16.4994 11.617 16.2744 12.017 15.8745C12.4169 15.4745 12.6419 14.9323 12.6425 14.3667V8.5C12.6419 7.93439 12.4169 7.39213 12.017 6.99219C11.617 6.59224 11.0748 6.36728 10.5092 6.36667Z" fill="#C82323"/>
</svg>
