<svg width="12" height="13" viewBox="0 0 12 13" fill="none" xmlns="http://www.w3.org/2000/svg">
<path d="M11.8161 11.2955L9.09574 8.57515C9.75068 7.70326 10.1042 6.64199 10.103 5.55152C10.103 2.76613 7.83691 0.5 5.05152 0.5C2.26613 0.5 0 2.76613 0 5.55152C0 8.33691 2.26613 10.603 5.05152 10.603C6.14199 10.6042 7.20326 10.2507 8.07515 9.59574L10.7955 12.3161C10.9332 12.4392 11.1128 12.5049 11.2974 12.4997C11.482 12.4945 11.6577 12.4189 11.7883 12.2883C11.9189 12.1577 11.9945 11.982 11.9997 11.7974C12.0049 11.6128 11.9392 11.4332 11.8161 11.2955ZM1.44329 5.55152C1.44329 4.83788 1.65491 4.14027 2.05139 3.5469C2.44786 2.95353 3.01139 2.49105 3.67071 2.21795C4.33003 1.94485 5.05552 1.8734 5.75545 2.01262C6.45538 2.15185 7.0983 2.4955 7.60292 3.00012C8.10754 3.50474 8.45119 4.14766 8.59042 4.84759C8.72964 5.54752 8.65819 6.27301 8.38509 6.93233C8.11199 7.59165 7.64951 8.15517 7.05614 8.55165C6.46277 8.94813 5.76516 9.15975 5.05152 9.15975C4.09491 9.1586 3.17781 8.77808 2.50138 8.10166C1.82496 7.42523 1.44444 6.50813 1.44329 5.55152Z" fill="white"/>
</svg>
