<svg width="13" height="13" viewBox="0 0 13 13" fill="none" xmlns="http://www.w3.org/2000/svg">
<path d="M10.0228 8.45838C9.49579 8.45822 8.98973 8.66456 8.61311 9.03316L4.94188 6.96905C5.01732 6.65773 5.01732 6.3329 4.94188 6.02158L8.61196 3.95747C8.95482 4.29098 9.4052 4.49156 9.88246 4.52332C10.3597 4.55507 10.8327 4.41591 11.2167 4.13076C11.6008 3.84561 11.8708 3.43309 11.9784 2.96704C12.086 2.50099 12.0242 2.01184 11.8041 1.58718C11.584 1.16251 11.22 0.830047 10.7771 0.649308C10.3343 0.468569 9.84154 0.451355 9.38716 0.600747C8.93277 0.75014 8.54639 1.05638 8.29719 1.46466C8.04798 1.87293 7.95223 2.35657 8.02708 2.82899L4.2704 4.94218C3.97532 4.69633 3.61629 4.53967 3.23538 4.49053C2.85446 4.4414 2.46744 4.50183 2.11963 4.66476C1.77183 4.82768 1.47766 5.08634 1.27158 5.41045C1.0655 5.73455 0.956055 6.11067 0.956055 6.49474C0.956055 6.87881 1.0655 7.25492 1.27158 7.57903C1.47766 7.90313 1.77183 8.16179 2.11963 8.32471C2.46744 8.48764 2.85446 8.54807 3.23538 8.49894C3.61629 8.44981 3.97532 8.29314 4.2704 8.04729L8.02708 10.1616C7.96213 10.5698 8.02389 10.988 8.20401 11.36C8.38413 11.7319 8.67396 12.0397 9.03442 12.2418C9.39489 12.4439 9.80866 12.5307 10.22 12.4904C10.6312 12.45 11.0203 12.2846 11.3346 12.0163C11.649 11.748 11.8735 11.3898 11.978 10.9899C12.0824 10.5901 12.0618 10.1678 11.9188 9.78009C11.7758 9.39234 11.5174 9.05775 11.1784 8.82142C10.8394 8.58509 10.436 8.45838 10.0228 8.45838Z" fill="white"/>
</svg>
