<svg width="17" height="12" viewBox="0 0 17 12" fill="none" xmlns="http://www.w3.org/2000/svg">
<path d="M10.909 5.99999C10.2081 5.99999 9.53041 5.68704 8.99995 5.11908C8.48416 4.56511 8.16916 3.82636 8.11359 3.03954C8.05427 2.20022 8.31029 1.42841 8.83427 0.865908C9.35825 0.303409 10.0909 0 10.909 0C11.7214 0 12.4561 0.308863 12.9784 0.869999C13.5057 1.43659 13.7624 2.20704 13.7031 3.0392C13.6462 3.82704 13.3315 4.56545 12.8168 5.11874C12.2877 5.68704 11.6103 5.99999 10.909 5.99999ZM15.4032 12H6.41518C6.27067 12.0008 6.12791 11.9684 5.99789 11.9053C5.86787 11.8422 5.75404 11.7502 5.66518 11.6362C5.57092 11.5127 5.50583 11.3694 5.47477 11.2172C5.44372 11.0649 5.44751 10.9076 5.48586 10.757C5.77291 9.60442 6.48404 8.64851 7.54222 7.99294C8.48143 7.41135 9.677 7.0909 10.909 7.0909C12.1653 7.0909 13.3295 7.39772 14.2741 7.97897C15.3347 8.63113 16.0469 9.59249 16.3326 10.7591C16.3704 10.9098 16.3738 11.0671 16.3424 11.2193C16.311 11.3714 16.2456 11.5146 16.1512 11.6379C16.0624 11.7514 15.9489 11.843 15.8192 11.9057C15.6896 11.9685 15.5473 12.0007 15.4032 12ZM4.46586 6.13636C3.26621 6.13636 2.21144 5.0209 2.1136 3.65011C2.06519 2.94784 2.28405 2.29841 2.72723 1.82216C3.16564 1.35068 3.78405 1.09091 4.46586 1.09091C5.14768 1.09091 5.76132 1.35204 6.20211 1.82625C6.6487 2.30625 6.86688 2.95431 6.81575 3.65079C6.71791 5.02124 5.66348 6.13636 4.46586 6.13636ZM6.70427 7.20851C6.10461 6.91533 5.32632 6.76874 4.46621 6.76874C3.46189 6.76874 2.48655 7.03056 1.7195 7.50579C0.849847 8.04545 0.264847 8.83124 0.0285976 9.77999C-0.00597566 9.91645 -0.00924568 10.059 0.0190321 10.1969C0.0473099 10.3348 0.106404 10.4645 0.191893 10.5764C0.273011 10.6805 0.376933 10.7646 0.495665 10.8223C0.614398 10.88 0.744778 10.9097 0.876778 10.9091H4.66086C4.72473 10.9091 4.78657 10.8866 4.8356 10.8457C4.88463 10.8048 4.91774 10.7479 4.92916 10.6851C4.93291 10.6636 4.93768 10.6421 4.94314 10.621C5.23223 9.45988 5.90961 8.47874 6.91052 7.76351C6.94733 7.73698 6.97694 7.70167 6.99667 7.6608C7.01639 7.61993 7.0256 7.57479 7.02347 7.52946C7.02134 7.48413 7.00793 7.44004 6.98445 7.40121C6.96098 7.36237 6.92819 7.33 6.88904 7.30704C6.83552 7.27567 6.77416 7.24261 6.70427 7.20851Z" fill="#C82323"/>
</svg>
