<svg width="1839" height="80" viewBox="0 0 1839 80" fill="none" xmlns="http://www.w3.org/2000/svg">
<mask id="mask0_1828_36" style="mask-type:luminance" maskUnits="userSpaceOnUse" x="0" y="2" width="479" height="76">
<path d="M0 2.5H478.125V77.5H0V2.5Z" fill="white"/>
</mask>
<g mask="url(#mask0_1828_36)">
<path d="M45.9744 20.3687C42.9236 19.1053 39.6414 18.4968 36.3401 18.5827C33.0391 18.6686 29.7929 19.447 26.8119 20.8675C24.3926 22.0328 22.1892 23.6015 20.2963 25.5062L4.18634 41.697C1.73566 44.1617 0.360461 47.4967 0.361329 50.9725C0.361329 58.167 6.25259 64.0862 13.4113 64.0862H13.4151C13.5726 64.0862 13.7301 64.0862 13.8876 64.077C12.323 63.493 10.9321 62.5215 9.84516 61.2537C8.75824 59.9857 8.01081 58.4627 7.67286 56.8272C7.33489 55.1917 7.41744 53.4972 7.91279 51.9025C8.40814 50.3075 9.30006 48.8645 10.5051 47.7082L23.9788 34.1745L25.4076 32.7307L25.8914 32.245L26.4389 31.692C26.7764 31.36 27.1231 31.0412 27.4814 30.7375C33.0421 25.8572 40.1901 23.169 47.5889 23.1756C48.7926 23.1756 49.9964 23.245 51.1926 23.3856C49.5904 22.1581 47.8356 21.1434 45.9726 20.3669L45.9744 20.3687ZM100.574 26.7625C97.8781 20.0987 90.2056 16.8381 83.5701 19.54L83.4031 19.6094C81.8491 20.268 80.4379 21.2226 79.2481 22.42L69.3914 32.3275L67.9681 33.7525C67.9251 33.7937 67.8819 33.837 67.8369 33.8762C67.0111 34.6352 65.9241 35.046 64.8026 35.023C63.6814 35 62.6121 34.5447 61.8181 33.7525L54.2544 26.1531C48.5989 24.7903 42.6611 25.1974 37.2444 27.3194C41.0894 27.3872 44.7554 28.9557 47.4594 31.69L60.5356 44.83C61.6934 45.9817 63.2601 46.6285 64.8931 46.6285C66.5264 46.6285 68.0929 45.9817 69.2506 44.83L85.3944 28.6075C85.5501 28.45 85.7189 28.3057 85.8969 28.1725C87.6691 26.6466 89.9296 25.807 92.2681 25.8062C94.2971 25.8119 96.2744 26.4461 97.9281 27.6215C99.5819 28.7972 100.831 30.4562 101.503 32.3707C101.605 30.4557 101.287 28.5415 100.571 26.7625H100.574ZM92.2756 27.9962C91.8331 27.9962 91.3944 28.0337 90.9594 28.1107C91.4816 28.4775 91.9174 28.954 92.2364 29.5067C92.5554 30.0597 92.7496 30.6755 92.8056 31.3112C92.8616 31.947 92.7781 32.5872 92.5611 33.1875C92.3439 33.7875 91.9981 34.333 91.5481 34.7857L75.5076 50.9107L75.4044 51.0137C75.1236 51.2965 74.8314 51.568 74.5289 51.8275C68.9319 56.8512 61.6741 59.627 54.1531 59.62C53.0339 59.62 51.9126 59.56 50.7989 59.4382C54.2249 61.9962 58.2826 63.5737 62.5371 64.0015C66.7914 64.4292 71.0819 63.6912 74.9489 61.8662C77.4034 60.7052 79.6366 59.1252 81.5489 57.1975L97.2031 41.4737L97.7001 40.9732C97.8764 40.797 98.0451 40.617 98.2101 40.4312C99.2929 39.0727 99.8826 37.3872 99.8826 35.65C99.8826 31.4537 96.4456 28 92.2719 28H92.2681L92.2756 27.9962ZM64.7376 55.3807C60.8444 55.344 57.1226 53.7735 54.3801 51.01L41.3656 37.932C40.7906 37.345 40.1054 36.8775 39.3491 36.5557C38.5931 36.234 37.7811 36.0645 36.9594 36.057C36.1474 36.0542 35.3431 36.2132 34.5934 36.525C33.8436 36.8365 33.1634 37.2945 32.5926 37.872L28.7544 41.7345L27.1381 43.3562L23.3845 47.1307L21.8282 48.6962L19.2557 51.2857L16.957 53.5957L16.4976 54.0607C16.0426 54.5182 15.4913 54.8687 14.8838 55.0862C14.2763 55.304 13.6279 55.3835 12.9858 55.319C12.3438 55.2545 11.7241 55.0477 11.1721 54.7135C10.62 54.3795 10.1494 53.9265 9.79446 53.3875C9.70344 53.8632 9.65761 54.3467 9.65759 54.8312C9.65759 59.0275 13.0926 62.4812 17.2682 62.485C19.1914 62.4845 21.0425 61.7532 22.447 60.4395L22.5463 60.342L22.6457 60.2445L22.7769 60.1132L27.0181 55.8495L33.9089 48.925C34.7281 48.1255 35.8291 47.6807 36.9739 47.687C38.1186 47.6932 39.2146 48.1502 40.0251 48.9587L47.7314 56.7025C53.3994 58.015 59.3376 57.5537 64.7376 55.3807ZM139.711 24.34V41.0462L122.563 24.1994H119.413V58.42H128.375V41.6687L145.471 58.4687H148.58V24.34H139.711ZM167.324 58.4875V24.4037H158.731V31.9975H158.746V50.8412H158.731V58.4837H167.324V58.4875ZM192.778 23.9256H189.05L173.788 57.1787L173.204 58.4445H182.261L184.248 54.16H197.621L199.608 58.4445H208.666L208.087 57.1787L192.778 23.9256ZM187.063 46.7107L190.889 37.7537L194.812 46.7107H187.063ZM243.144 39.0157H227.113V46.5607H234.322C232.771 49.8232 230.542 50.7495 227.054 50.7495C221.919 50.7495 218.624 47.0482 218.624 41.4007C218.624 36.19 221.579 31.9095 227.054 31.9095C230.493 31.9095 232.723 33.0775 234.127 35.9987H242.654C241.006 27.5275 233.885 23.9744 227.054 23.9237C218.431 23.9237 209.711 29.7682 209.656 41.41C209.705 53.0445 218.424 58.8382 227.054 58.8382C233.304 58.8382 239.746 56.112 242.171 49.0037C243.331 45.687 243.331 42.4225 243.144 39.0157ZM264.724 23.9256H260.997L245.733 57.1787L245.154 58.4445H254.209L256.197 54.16H269.569L271.557 58.4445H280.617L280.032 57.1787L264.724 23.9256ZM259.009 46.7107L262.834 37.7537L266.759 46.7107H259.009ZM303.942 24.4056V36.7695H293.477V24.4056H284.607V58.4875H293.477V44.8075H303.942V58.4875H312.807V24.4056H303.942ZM319.287 41.4607C319.287 65.0725 354.072 65.0725 354.072 41.4607C354.072 17.8956 319.287 17.8956 319.287 41.4607ZM328.202 41.4607C328.202 29.1907 345.207 29.1907 345.207 41.4607C345.019 43.5865 344.042 45.5655 342.469 47.007C340.894 48.4485 338.837 49.248 336.704 49.248C334.569 49.248 332.512 48.4485 330.939 47.007C329.364 45.5655 328.389 43.5865 328.202 41.4607ZM372.439 38.1737C369.384 37.8325 366.867 37.3 367.059 34.7182C367.349 30.6757 376.459 30.2857 376.459 34.8157H384.694C384.887 20.11 358.534 20.11 358.824 34.8157C358.919 42.2145 363.767 44.7457 371.127 45.282C374.517 45.477 377.327 46.0132 377.327 48.4037C377.327 52.3995 366.717 52.347 366.717 48.0137H358.334C358.144 63.01 385.757 62.7662 385.757 48.4525C385.759 39.9212 379.172 38.8995 372.439 38.1737ZM388.779 24.4056V32.1945H397.107V58.4875H405.679V32.1945H413.964V24.4056H388.779ZM427.849 50.7457V44.757H439.377V37.0132H427.849V32.1945H440.397V24.4056H419.224V58.4875H440.832V50.7437L427.849 50.7457ZM470.349 46.4125C478.924 40.57 476.502 24.4562 463.177 24.4056H448.302V58.4875H456.977V48.4562H461.484L467.299 58.4875H477.762L476.987 57.222L470.349 46.4125ZM463.177 40.7162H456.977V32.1945C459.012 32.1945 461.142 32.1475 463.177 32.1945C468.119 32.2432 467.877 40.7162 463.177 40.7162Z" fill="white"/>
</g>
<line x1="521.5" y1="20" x2="521.5" y2="60" stroke="#8A3EFF" stroke-width="3"/>
<g clip-path="url(#clip0_1828_36)">
<path d="M637.626 18.0903C637.655 18.1971 637.669 18.307 637.67 18.4172V35.5815C637.67 35.8018 637.612 36.0182 637.501 36.2088C637.391 36.3994 637.232 36.5576 637.041 36.6673L622.636 44.9617V61.4017C622.636 61.6216 622.578 61.8377 622.469 62.0283C622.359 62.2189 622.201 62.3772 622.01 62.4875L591.941 79.7986C591.873 79.8378 591.798 79.8631 591.722 79.8895C591.694 79.8988 591.668 79.9163 591.638 79.924C591.428 79.9792 591.207 79.9792 590.996 79.924C590.962 79.9147 590.931 79.8957 590.898 79.8832C590.829 79.858 590.757 79.8363 590.692 79.7986L560.629 62.4875C560.438 62.3777 560.279 62.2195 560.169 62.0289C560.058 61.8383 560 61.622 560 61.4017V9.90851C560 9.79589 560.016 9.68638 560.044 9.58036C560.053 9.54424 560.075 9.51123 560.088 9.4755C560.111 9.40949 560.133 9.3423 560.167 9.28133C560.191 9.24055 560.225 9.20754 560.254 9.17026C560.289 9.12017 560.322 9.06851 560.364 9.02502C560.4 8.9889 560.447 8.96211 560.488 8.93104C560.534 8.89337 560.574 8.85259 560.626 8.82308H560.627L575.659 0.167158C575.85 0.0576402 576.065 0 576.285 0C576.505 0 576.72 0.0576402 576.911 0.167158L591.943 8.82269H591.946C591.996 8.85376 592.038 8.89298 592.084 8.9291C592.124 8.96017 592.17 8.98851 592.206 9.02308C592.25 9.06813 592.281 9.12016 592.318 9.16987C592.345 9.20754 592.381 9.24017 592.403 9.28094C592.439 9.34347 592.459 9.4091 592.484 9.47512C592.497 9.51084 592.518 9.54385 592.528 9.58152C592.557 9.68793 592.572 9.79783 592.572 9.90851V42.0704L605.098 34.8569V18.4157C605.098 18.3062 605.114 18.1951 605.142 18.0903C605.153 18.053 605.173 18.0204 605.186 17.9839C605.211 17.9182 605.233 17.851 605.267 17.7897C605.29 17.7493 605.325 17.7167 605.351 17.679C605.389 17.6289 605.42 17.5772 605.464 17.5334C605.5 17.4976 605.546 17.4712 605.586 17.4398C605.633 17.4021 605.674 17.3613 605.724 17.3318H605.725L620.759 8.67589C620.949 8.56615 621.165 8.50838 621.385 8.50838C621.604 8.50838 621.82 8.56615 622.01 8.67589L637.043 17.3318C637.096 17.3629 637.136 17.4017 637.183 17.4382C637.222 17.4693 637.268 17.4976 637.304 17.5318C637.348 17.5772 637.379 17.6289 637.416 17.679C637.445 17.7167 637.479 17.7493 637.501 17.7901C637.537 17.851 637.557 17.9182 637.582 17.9842C637.596 18.02 637.617 18.053 637.626 18.0903ZM635.164 34.8572V20.5838L629.904 23.613L622.636 27.7974V42.0708L635.165 34.8572H635.164ZM620.132 60.6774V46.3947L612.983 50.4778L592.57 62.1291V76.5465L620.132 60.6774ZM562.506 12.0755V60.6774L590.064 76.545V62.1306L575.667 53.9819L575.663 53.9788L575.656 53.9757C575.608 53.9473 575.567 53.9069 575.522 53.8724C575.483 53.8409 575.437 53.8161 575.403 53.7815L575.4 53.7768C575.359 53.738 575.331 53.6895 575.297 53.6456C575.265 53.6033 575.228 53.5671 575.203 53.5236L575.201 53.519C575.173 53.472 575.156 53.4157 575.135 53.3625C575.115 53.3155 575.089 53.2716 575.076 53.2215V53.22C575.061 53.1605 575.057 53.098 575.051 53.037C575.045 52.9901 575.032 52.9431 575.032 52.8961V19.2887L567.766 15.1023L562.506 12.0771V12.0755ZM576.287 2.69842L563.762 9.9089L576.283 17.1186L588.807 9.90696L576.283 2.69842H576.287ZM582.8 47.6961L590.066 43.5132V12.0755L584.805 15.1039L577.538 19.2887V50.7264L582.8 47.6961ZM621.385 11.2072L608.862 18.4172L621.385 25.6277L633.906 18.4161L621.385 11.2072ZM620.132 27.7974L612.864 23.6126L607.604 20.5838V34.8572L614.87 39.0405L620.132 42.0708V27.7974ZM591.316 59.9625L609.684 49.4747L618.866 44.2343L606.353 37.0289L591.945 45.3244L578.813 52.8852L591.316 59.9625Z" fill="#FF2D20"/>
</g>
<line x1="679.17" y1="20" x2="679.17" y2="60" stroke="#8A3EFF" stroke-width="3"/>
<g clip-path="url(#clip1_1828_36)">
<path fill-rule="evenodd" clip-rule="evenodd" d="M836.028 5L869.844 38.6685L836.028 72.3362L802.211 38.6677L836.028 5Z" fill="#77C1D2"/>
<path fill-rule="evenodd" clip-rule="evenodd" d="M751.486 5L821.592 74.7984H753.959L717.67 38.6677L751.486 5Z" fill="#2D3441"/>
</g>
<line x1="911.344" y1="20" x2="911.344" y2="60" stroke="#8A3EFF" stroke-width="3"/>
<g clip-path="url(#clip2_1828_36)">
<path fill-rule="evenodd" clip-rule="evenodd" d="M994.293 13C982.439 13 975.032 18.8912 972.067 30.6737C976.513 24.7825 981.699 22.5737 987.625 24.0456C991.006 24.8852 993.423 27.3239 996.097 30.0239C1000.46 34.4206 1005.5 39.5088 1016.52 39.5088C1028.37 39.5088 1035.78 33.6175 1038.74 21.8368C1034.3 27.7281 1029.11 29.9368 1023.18 28.4632C1019.8 27.6235 1017.38 25.1848 1014.71 22.4866C1010.35 18.0865 1005.31 13 994.293 13ZM972.067 39.5088C960.215 39.5088 952.807 45.4 949.844 57.1824C954.289 51.2912 959.475 49.0824 965.399 50.5544C968.782 51.394 971.2 53.8327 973.874 56.5327C978.232 60.9294 983.275 66.0175 994.293 66.0175C1006.14 66.0175 1013.55 60.1281 1016.52 48.3456C1012.07 54.2368 1006.89 56.4456 1000.96 54.9737C997.578 54.1323 995.16 51.6936 992.486 48.9954C988.128 44.5987 983.083 39.5088 972.067 39.5088Z" fill="#38BDF8"/>
<path fill-rule="evenodd" clip-rule="evenodd" d="M1083.18 35.3405H1075.42V50.2636C1075.42 54.244 1078.05 54.1812 1083.18 53.9321V59.9645C1072.8 61.2082 1068.67 58.348 1068.67 50.2636V35.3405H1062.91V28.8727H1068.67V20.5218L1075.42 18.5308V28.8727H1083.18V35.3405ZM1112.75 28.8727H1119.5V59.9645H1112.75V55.4877C1110.37 58.7817 1106.68 60.7727 1101.8 60.7727C1093.29 60.7727 1086.22 53.6221 1086.22 44.4177C1086.22 35.1541 1093.29 28.0644 1101.8 28.0644C1106.68 28.0644 1110.37 30.0537 1112.75 33.2885V28.8727ZM1102.87 54.3676C1108.5 54.3676 1112.75 50.2009 1112.75 44.4177C1112.75 38.6345 1108.5 34.4695 1102.87 34.4695C1097.24 34.4695 1092.98 38.6362 1092.98 44.4177C1092.98 50.2009 1097.24 54.3676 1102.87 54.3676ZM1130.76 24.2095C1128.39 24.2095 1126.45 22.2202 1126.45 19.9191C1126.45 18.7787 1126.91 17.6869 1127.72 16.8828C1128.53 16.0787 1129.62 15.6278 1130.76 15.6287C1131.9 15.6273 1133 16.0781 1133.81 16.8822C1134.62 17.6864 1135.07 18.7784 1135.08 19.9191C1135.08 22.2185 1133.14 24.2095 1130.76 24.2095ZM1127.39 59.9645V28.8727H1134.14V59.9645H1127.39ZM1141.96 59.9645V14.5679H1148.72V59.9627H1141.96V59.9645ZM1192.57 28.8727H1199.7L1189.88 59.9645H1183.25L1176.74 39.009L1170.18 59.9645H1163.55L1153.72 28.8727H1160.85L1166.92 50.3246L1173.49 28.8727H1179.94L1186.44 50.3246L1192.57 28.8727ZM1208.09 24.2095C1205.71 24.2095 1203.77 22.2202 1203.77 19.9191C1203.77 18.7784 1204.23 17.6864 1205.04 16.8822C1205.85 16.0781 1206.94 15.6273 1208.09 15.6287C1209.23 15.6273 1210.32 16.0781 1211.13 16.8822C1211.94 17.6864 1212.4 18.7784 1212.4 19.9191C1212.4 22.2185 1210.46 24.2095 1208.09 24.2095ZM1204.71 59.9645V28.8727H1211.46V59.9645H1204.71ZM1235.73 28.0644C1242.74 28.0644 1247.75 32.7903 1247.75 40.8746V59.9627H1240.99V41.5574C1240.99 36.8316 1238.24 34.3458 1233.98 34.3458C1229.54 34.3458 1226.04 36.957 1226.04 43.2994V59.9645H1219.28V28.8727H1226.04V32.853C1228.1 29.6199 1231.48 28.0644 1235.73 28.0644ZM1279.77 16.437H1286.53V59.9627H1279.77V55.4859C1277.4 58.7817 1273.71 60.771 1268.83 60.771C1260.32 60.771 1253.25 53.6203 1253.25 44.4159C1253.25 35.1523 1260.32 28.0627 1268.83 28.0627C1273.71 28.0627 1277.4 30.0519 1279.77 33.2867V16.437ZM1269.89 54.3676C1275.52 54.3676 1279.77 50.2009 1279.77 44.4177C1279.77 38.6345 1275.52 34.4695 1269.89 34.4695C1264.26 34.4695 1260.01 38.6362 1260.01 44.4177C1260.01 50.2009 1264.26 54.3676 1269.89 54.3676ZM1309.18 60.7727C1299.73 60.7727 1292.66 53.6221 1292.66 44.4177C1292.66 35.1541 1299.73 28.0644 1309.18 28.0644C1315.31 28.0644 1320.62 31.2347 1323.13 36.086L1317.31 39.4445C1315.93 36.5215 1312.87 34.6559 1309.11 34.6559C1303.61 34.6559 1299.42 38.8226 1299.42 44.4177C1299.42 50.0145 1303.61 54.1812 1309.11 54.1812C1312.87 54.1812 1315.93 52.2529 1317.43 49.3927L1323.25 52.6884C1320.62 57.6007 1315.31 60.7727 1309.18 60.7727ZM1334.39 37.4534C1334.39 43.113 1351.21 39.6918 1351.21 51.1973C1351.21 57.416 1345.77 60.7727 1339.02 60.7727C1332.76 60.7727 1328.26 57.9734 1326.25 53.4967L1332.07 50.1399C1333.07 52.9375 1335.58 54.6167 1339.02 54.6167C1342.02 54.6167 1344.33 53.6221 1344.33 51.1329C1344.33 45.6005 1327.51 48.7098 1327.51 37.5788C1327.51 31.7329 1332.57 28.0644 1338.95 28.0644C1344.08 28.0644 1348.34 30.4282 1350.53 34.5322L1344.83 37.7025C1343.71 35.2777 1341.52 34.1577 1338.95 34.1577C1336.51 34.1577 1334.39 35.215 1334.39 37.4534ZM1363.23 37.4534C1363.23 43.113 1380.05 39.6918 1380.05 51.1973C1380.05 57.416 1374.61 60.7727 1367.85 60.7727C1361.6 60.7727 1357.1 57.9734 1355.09 53.4967L1360.91 50.1399C1361.91 52.9375 1364.41 54.6167 1367.85 54.6167C1370.86 54.6167 1373.17 53.6221 1373.17 51.1329C1373.17 45.6005 1356.34 48.7098 1356.34 37.5788C1356.34 31.7329 1361.41 28.0644 1367.79 28.0644C1372.92 28.0644 1377.17 30.4282 1379.36 34.5322L1373.67 37.7025C1372.55 35.2777 1370.36 34.1577 1367.79 34.1577C1365.35 34.1577 1363.23 35.215 1363.23 37.4534Z" fill="white"/>
</g>
<line x1="1423.34" y1="20" x2="1423.34" y2="60" stroke="#8A3EFF" stroke-width="3"/>
<g clip-path="url(#clip3_1828_36)">
<path fill-rule="evenodd" clip-rule="evenodd" d="M1528.45 53.0253C1527.15 54.9926 1526.16 57.4161 1523.51 57.4161C1519.06 57.4161 1518.82 50.5512 1514.37 50.5512C1509.91 50.5512 1510.15 57.4161 1505.7 57.4161C1501.25 57.4161 1501.01 50.5512 1496.55 50.5512C1492.1 50.5512 1492.34 57.4161 1487.89 57.4161C1483.43 57.4161 1483.19 50.5512 1478.74 50.5512C1474.28 50.5512 1474.53 57.4161 1470.07 57.4161C1468.67 57.4161 1467.69 56.7382 1466.86 55.8084C1463.68 50.2642 1461.84 43.7674 1461.84 36.8214C1461.84 16.4856 1477.55 0 1496.93 0C1516.31 0 1532.02 16.4856 1532.02 36.8214C1532.02 42.6358 1530.73 48.1358 1528.45 53.0253Z" fill="#FB70A9"/>
<mask id="mask1_1828_36" style="mask-type:alpha" maskUnits="userSpaceOnUse" x="1473" y="43" width="47" height="37">
<path d="M1482.92 49.3901V64.6417C1482.92 67.3785 1480.7 69.5971 1477.96 69.5971C1475.23 69.5971 1473.01 67.3785 1473.01 64.6417V46.2297C1473.93 44.5322 1474.99 43.062 1476.89 43.062C1480 43.062 1481.08 46.9574 1482.92 49.3901ZM1501.64 50.1848V74.3024C1501.64 77.3434 1499.17 79.8087 1496.13 79.8087C1493.09 79.8087 1490.63 77.3434 1490.63 74.3024V47.0059C1491.66 45.0066 1492.73 43.062 1494.92 43.062C1498.39 43.062 1499.34 47.936 1501.64 50.1848ZM1519.26 49.742V67.2508C1519.26 69.988 1517.04 72.2066 1514.3 72.2066C1511.57 72.2066 1509.35 69.988 1509.35 67.2508V45.7308C1510.21 44.2539 1511.24 43.062 1512.95 43.062C1516.21 43.062 1517.24 47.3553 1519.26 49.742Z" fill="white"/>
</mask>
<g mask="url(#mask1_1828_36)">
<path d="M1482.92 49.3901V64.6417C1482.92 67.3785 1480.7 69.5971 1477.96 69.5971C1475.23 69.5971 1473.01 67.3785 1473.01 64.6417V46.2297C1473.93 44.5322 1474.99 43.062 1476.89 43.062C1480 43.062 1481.08 46.9574 1482.92 49.3901ZM1501.64 50.1848V74.3024C1501.64 77.3434 1499.17 79.8087 1496.13 79.8087C1493.09 79.8087 1490.63 77.3434 1490.63 74.3024V47.0059C1491.66 45.0066 1492.73 43.062 1494.92 43.062C1498.39 43.062 1499.34 47.936 1501.64 50.1848ZM1519.26 49.742V67.2508C1519.26 69.988 1517.04 72.2066 1514.3 72.2066C1511.57 72.2066 1509.35 69.988 1509.35 67.2508V45.7308C1510.21 44.2539 1511.24 43.062 1512.95 43.062C1516.21 43.062 1517.24 47.3553 1519.26 49.742Z" fill="#4E56A6"/>
</g>
<mask id="mask2_1828_36" style="mask-type:alpha" maskUnits="userSpaceOnUse" x="1473" y="34" width="47" height="26">
<path d="M1482.92 54.0646C1482.04 52.9881 1481 52.1895 1479.49 52.1895C1475.92 52.1895 1475.27 56.693 1473.01 58.7236V39.2972C1473.01 36.5604 1475.23 34.3418 1477.96 34.3418C1480.7 34.3418 1482.92 36.5604 1482.92 39.2972V54.0646ZM1501.64 54.412C1500.7 53.1646 1499.61 52.1895 1497.94 52.1895C1493.97 52.1895 1493.6 57.7639 1490.63 59.3053V50.7141C1490.63 47.673 1493.09 45.2078 1496.13 45.2078C1499.17 45.2078 1501.64 47.673 1501.64 50.7141V54.412ZM1519.26 53.4478C1518.5 52.6969 1517.59 52.1895 1516.39 52.1895C1512.54 52.1895 1512.08 57.4207 1509.35 59.1492V41.712C1509.35 38.9751 1511.57 36.7562 1514.3 36.7562C1517.04 36.7562 1519.26 38.9751 1519.26 41.712V53.4478Z" fill="white"/>
</mask>
<g mask="url(#mask2_1828_36)">
<path d="M1482.92 54.0646C1482.04 52.9881 1481 52.1895 1479.49 52.1895C1475.92 52.1895 1475.27 56.693 1473.01 58.7236V39.2972C1473.01 36.5604 1475.23 34.3418 1477.96 34.3418C1480.7 34.3418 1482.92 36.5604 1482.92 39.2972V54.0646ZM1501.64 54.412C1500.7 53.1646 1499.61 52.1895 1497.94 52.1895C1493.97 52.1895 1493.6 57.7639 1490.63 59.3053V50.7141C1490.63 47.673 1493.09 45.2078 1496.13 45.2078C1499.17 45.2078 1501.64 47.673 1501.64 50.7141V54.412ZM1519.26 53.4478C1518.5 52.6969 1517.59 52.1895 1516.39 52.1895C1512.54 52.1895 1512.08 57.4207 1509.35 59.1492V41.712C1509.35 38.9751 1511.57 36.7562 1514.3 36.7562C1517.04 36.7562 1519.26 38.9751 1519.26 41.712V53.4478Z" fill="black" fill-opacity="0.299"/>
</g>
<path fill-rule="evenodd" clip-rule="evenodd" d="M1528.45 53.0253C1527.15 54.9926 1526.16 57.4161 1523.51 57.4161C1519.06 57.4161 1518.82 50.5512 1514.37 50.5512C1509.91 50.5512 1510.15 57.4161 1505.7 57.4161C1501.25 57.4161 1501.01 50.5512 1496.55 50.5512C1492.1 50.5512 1492.34 57.4161 1487.89 57.4161C1483.43 57.4161 1483.19 50.5512 1478.74 50.5512C1474.28 50.5512 1474.53 57.4161 1470.07 57.4161C1468.67 57.4161 1467.69 56.7382 1466.86 55.8084C1463.68 50.2642 1461.84 43.7674 1461.84 36.8214C1461.84 16.4856 1477.55 0 1496.93 0C1516.31 0 1532.02 16.4856 1532.02 36.8214C1532.02 42.6358 1530.73 48.1358 1528.45 53.0253Z" fill="#FB70A9"/>
<path fill-rule="evenodd" clip-rule="evenodd" d="M1520.86 56.6827C1530.05 43.0037 1530.29 27.8311 1521.57 11.1641C1528.03 17.7858 1532.02 26.8725 1532.02 36.8988C1532.02 42.6914 1530.69 48.1704 1528.32 53.0416C1526.97 55.0016 1525.94 57.416 1523.2 57.416C1522.26 57.416 1521.51 57.1332 1520.86 56.6827Z" fill="#E24CA6"/>
<path fill-rule="evenodd" clip-rule="evenodd" d="M1495.05 46.0065C1507.25 46.0065 1512.39 38.9279 1512.39 28.8753C1512.39 18.8227 1504.63 9.56934 1495.05 9.56934C1485.47 9.56934 1477.71 18.8227 1477.71 28.8753C1477.71 38.9279 1482.85 46.0065 1495.05 46.0065Z" fill="white"/>
<path d="M1490.39 29.4444C1493.98 29.4444 1496.89 26.231 1496.89 22.2675C1496.89 18.3037 1493.98 15.0903 1490.39 15.0903C1486.8 15.0903 1483.89 18.3037 1483.89 22.2675C1483.89 26.231 1486.8 29.4444 1490.39 29.4444Z" fill="#030776"/>
<path d="M1489.3 23.9237C1491.1 23.9237 1492.56 22.4406 1492.56 20.6115C1492.56 18.7816 1491.1 17.2988 1489.3 17.2988C1487.51 17.2988 1486.05 18.7816 1486.05 20.6111C1486.05 22.4406 1487.51 23.9237 1489.3 23.9237Z" fill="white"/>
</g>
<line x1="1573.52" y1="20" x2="1573.52" y2="60" stroke="#8A3EFF" stroke-width="3"/>
<rect x="1612.02" y="2.5" width="226.064" height="75" rx="20" fill="url(#paint0_linear_1828_36)"/>
<g clip-path="url(#clip4_1828_36)">
<path d="M1645.7 56.7634C1646.04 55.1513 1646.37 53.592 1646.68 52.0854C1646.94 50.8298 1647.23 49.4383 1647.55 47.9107L1647.74 46.978L1649.33 39.2941H1655.42L1656.49 34.2093H1650.13C1650.17 33.9833 1650.24 33.648 1650.33 33.2036C1650.42 32.7591 1650.49 32.3863 1650.55 32.0849C1650.79 30.9248 1651.22 30.0548 1651.84 29.4747C1652.46 28.8947 1653.32 28.6046 1654.42 28.6046C1655.04 28.6046 1655.66 28.68 1656.27 28.8306C1656.88 28.9813 1657.45 29.1922 1658 29.4634L1659.61 24.0396C1659.13 23.8286 1658.58 23.6441 1657.95 23.4859C1657.32 23.3277 1656.65 23.2072 1655.96 23.1243C1655.26 23.0414 1654.56 23 1653.86 23C1652.77 23 1651.71 23.1318 1650.7 23.3955C1649.7 23.6591 1648.78 24.1036 1647.95 24.7289C1647.11 25.3541 1646.39 26.2016 1645.78 27.2713C1645.16 28.341 1644.69 29.6743 1644.36 31.2714C1644.15 32.2808 1643.93 33.3769 1643.68 34.5596L1643.76 34.2093H1640.07L1639 39.2941H1642.69L1642.64 39.5531C1642.54 40.0225 1642.44 40.4872 1642.35 40.9471L1642.2 41.6332C1641.97 42.7707 1641.75 43.8064 1641.56 44.7405L1641.09 47.0004C1640.71 48.8688 1640.35 50.5599 1640.03 52.0741C1639.72 53.5882 1639.39 55.1513 1639.07 56.7634H1645.7Z" fill="black"/>
<path d="M1664.64 34.1652L1664.01 35.8001L1666.98 37.8921C1667.14 38.004 1667.23 38.2135 1667.2 38.4239L1667.19 38.487L1666.99 39.4032C1666.94 39.6339 1666.77 39.8007 1666.56 39.8146L1663.93 39.9909L1666.18 41.5569C1666.34 41.6688 1666.43 41.8781 1666.4 42.0886L1666.39 42.1518L1666.19 43.068C1666.14 43.2987 1665.97 43.4655 1665.76 43.4794L1663.13 43.6561L1665.38 45.2217C1665.54 45.3335 1665.63 45.5429 1665.6 45.7534L1665.59 45.8165L1665.39 46.7327C1665.34 46.9635 1665.17 47.1303 1664.96 47.1441L1662.34 47.3207L1664.58 48.8864C1664.74 48.9983 1664.83 49.2076 1664.8 49.4182L1664.79 49.4813L1664.59 50.3975C1664.54 50.6282 1664.37 50.795 1664.16 50.8089L1661.54 50.9854L1663.78 52.5512C1663.94 52.6631 1664.03 52.8724 1664 53.083L1663.99 53.1461L1663.79 54.0623C1663.74 54.293 1663.57 54.4598 1663.36 54.4737L1659.68 54.7985L1659.22 56.7636H1656.28L1657.19 53.1531C1657.24 52.9224 1657.41 52.7556 1657.62 52.7417L1660.25 52.5644L1658 50.9994C1657.84 50.8875 1657.75 50.678 1657.78 50.4676L1657.79 50.4045L1657.99 49.4883C1658.04 49.2576 1658.21 49.0908 1658.42 49.0769L1661.05 48.8998L1658.8 47.3346C1658.64 47.2227 1658.55 47.0134 1658.58 46.8029L1658.59 46.7397L1658.79 45.8235C1658.84 45.5928 1659.01 45.426 1659.22 45.4122L1661.85 45.2351L1659.6 43.6698C1659.44 43.558 1659.35 43.3486 1659.38 43.1381L1659.39 43.075L1659.59 42.1588C1659.64 41.928 1659.81 41.7613 1660.02 41.7474L1662.65 41.5705L1660.4 40.0051C1660.24 39.8932 1660.15 39.6839 1660.18 39.4733L1660.19 39.4102L1660.39 38.494C1660.44 38.2633 1660.61 38.0965 1660.82 38.0826L1663.45 37.9059L1661.2 36.3403C1661.04 36.2285 1660.95 36.0191 1660.98 35.8085L1660.99 35.7454L1661.4 34.29L1664.64 34.1652ZM1666.9 23.2036C1668.11 23.2036 1669 23.6142 1669.58 24.4353C1670.16 25.2564 1670.34 26.2395 1670.1 27.3845C1669.84 28.6953 1669.3 29.5804 1668.48 30.0399C1667.66 30.4994 1666.64 30.7292 1665.42 30.7292C1664.23 30.7292 1663.33 30.3714 1662.73 29.6557C1662.13 28.9401 1661.96 27.9193 1662.22 26.5935C1662.46 25.3882 1663 24.5219 1663.84 23.9946C1664.68 23.4673 1665.7 23.2036 1666.9 23.2036Z" fill="black"/>
<path d="M1675.51 52.0856C1675.2 53.5922 1674.88 55.1515 1674.56 56.7636H1667.9C1668.25 55.1515 1668.57 53.5885 1668.88 52.0743C1669.19 50.5602 1669.55 48.8689 1669.95 47.0007L1672.53 34.4807C1672.93 32.6426 1673.32 30.8271 1673.69 29.0342C1674.06 27.2414 1674.43 25.4409 1674.8 23.633L1681.57 23.0454C1681.2 24.8232 1680.81 26.65 1680.42 28.5258C1680.03 30.4015 1679.62 32.3789 1679.19 34.4581L1676.58 46.978C1676.18 48.8764 1675.83 50.5789 1675.51 52.0856Z" fill="black"/>
<path d="M1693.06 33.5992C1695.2 33.5992 1696.95 33.9608 1698.33 34.684C1699.71 35.4072 1700.67 36.4354 1701.21 37.7688C1701.74 39.1022 1701.81 40.6879 1701.41 42.526C1701.26 43.2793 1701.1 44.0439 1700.94 44.8198C1700.77 45.5957 1700.6 46.4055 1700.43 47.2492L1700.03 49.1476C1699.79 50.2775 1699.54 51.4678 1699.28 52.7182C1699.02 53.9688 1698.74 55.3171 1698.42 56.7636H1692.68L1692.97 53.7579H1692.46C1691.91 54.5563 1691.31 55.2155 1690.65 55.7352C1689.99 56.255 1689.27 56.6467 1688.5 56.9104C1687.73 57.1741 1686.9 57.3059 1686.01 57.3059C1684.6 57.3059 1683.42 56.9557 1682.47 56.255C1681.52 55.5545 1680.86 54.6241 1680.49 53.464C1680.12 52.3039 1680.08 51.0384 1680.38 49.6673C1680.6 48.6127 1680.96 47.7313 1681.46 47.0232C1681.95 46.3151 1682.55 45.7351 1683.26 45.283C1683.96 44.8311 1684.74 44.4733 1685.6 44.2096C1686.45 43.9459 1687.33 43.7463 1688.25 43.6107L1695.22 42.5034C1695.37 41.8254 1695.31 41.2341 1695.05 40.7293C1694.79 40.2246 1694.33 39.8329 1693.66 39.5542C1692.99 39.2754 1692.14 39.1361 1691.1 39.1361C1690.57 39.1361 1690 39.1776 1689.4 39.2603C1688.8 39.3433 1688.17 39.4637 1687.52 39.6219C1686.87 39.7801 1686.2 39.976 1685.51 40.2095C1684.82 40.4431 1684.11 40.718 1683.38 41.0344L1684.43 35.1134C1684.96 34.9326 1685.57 34.7556 1686.25 34.5823C1686.93 34.409 1687.65 34.2471 1688.41 34.0964C1689.17 33.9458 1689.94 33.8252 1690.74 33.7348C1691.53 33.6444 1692.3 33.5992 1693.06 33.5992ZM1694.4 45.5543C1694.19 45.7049 1693.94 45.8518 1693.64 45.995C1693.34 46.1381 1692.93 46.2812 1692.42 46.4243C1691.9 46.5675 1691.19 46.737 1690.3 46.9329C1689.72 47.0684 1689.2 47.2266 1688.72 47.4074C1688.25 47.5882 1687.85 47.8444 1687.54 48.1758C1687.23 48.5072 1687.02 48.9366 1686.92 49.4639C1686.77 50.2926 1686.91 50.9367 1687.34 51.3962C1687.77 51.8558 1688.36 52.0854 1689.1 52.0854C1689.63 52.0854 1690.17 51.9687 1690.71 51.7351C1691.25 51.5017 1691.77 51.1664 1692.27 50.7296C1692.77 50.2926 1693.22 49.7729 1693.64 49.1702L1694.4 45.5543ZM1726.74 37.624C1726.51 36.4898 1726.04 35.5852 1725.32 34.91C1724.39 34.0361 1723.1 33.5992 1721.44 33.5992C1720.41 33.5992 1719.43 33.78 1718.49 34.1416C1717.55 34.5032 1716.68 34.9966 1715.88 35.6219C1715.09 36.2471 1714.42 36.9439 1713.87 37.7123H1713.31L1713.78 33.8704L1708.17 34.2094C1707.79 36.0927 1707.41 37.9119 1707.04 39.6671C1706.67 41.4224 1706.32 43.1136 1705.99 44.7407L1705.53 47.0006C1705.13 48.8688 1704.77 50.5601 1704.46 52.0742C1704.15 53.5884 1703.82 55.1514 1703.48 56.7636H1710.13C1710.46 55.1514 1710.78 53.5996 1711.09 52.108C1711.4 50.6165 1711.73 49.0271 1712.09 47.3397L1713.05 42.6615C1713.52 42.1041 1714 41.607 1714.48 41.17C1714.96 40.733 1715.47 40.3865 1716 40.1305C1716.52 39.8743 1717.08 39.7463 1717.68 39.7463C1718.71 39.7463 1719.38 40.1567 1719.67 40.9779C1719.96 41.799 1719.96 42.8875 1719.68 44.2435L1719.03 47.3622C1718.68 49.0496 1718.35 50.6316 1718.05 52.108C1717.76 53.5846 1717.44 55.1363 1717.1 56.7636H1723.73C1724.07 55.1514 1724.4 53.5884 1724.72 52.0742C1725.04 50.5601 1725.39 48.8688 1725.78 47.0006C1725.95 46.1268 1726.13 45.283 1726.3 44.4695C1726.47 43.6559 1726.62 42.9328 1726.75 42.3L1726.72 42.4471L1726.77 42.3947C1727.09 42.0449 1727.41 41.7184 1727.73 41.4154L1727.98 41.1926C1728.47 40.7556 1728.98 40.4054 1729.5 40.1417C1730.03 39.8781 1730.59 39.7463 1731.18 39.7463C1732.22 39.7463 1732.88 40.1567 1733.17 40.9779C1733.46 41.799 1733.47 42.8875 1733.18 44.2435L1732.54 47.3622C1732.2 49.0646 1731.88 50.6504 1731.57 52.1193C1731.27 53.5884 1730.94 55.1363 1730.6 56.7636H1737.26C1737.58 55.1514 1737.9 53.5922 1738.21 52.0854C1738.53 50.5788 1738.88 48.8839 1739.28 47.0006C1739.46 46.1268 1739.63 45.283 1739.8 44.4695C1739.98 43.6559 1740.13 42.9328 1740.26 42.3C1740.82 39.6634 1740.65 37.5541 1739.73 35.9722C1738.81 34.3902 1737.21 33.5992 1734.94 33.5992C1733.92 33.5992 1732.93 33.7838 1731.98 34.1529C1731.03 34.522 1730.15 35.023 1729.35 35.6558C1728.54 36.2885 1727.84 37.0042 1727.27 37.8027H1726.78L1726.74 37.624ZM1755.51 33.5992C1757.84 33.5992 1759.74 34.0286 1761.21 34.8874C1762.67 35.7462 1763.67 36.9514 1764.19 38.5033C1764.71 40.0551 1764.71 41.863 1764.21 43.9272C1764.09 44.4243 1763.97 44.8913 1763.84 45.3283C1763.75 45.6559 1763.65 45.9752 1763.54 46.2859L1763.43 46.5938H1749.81L1749.8 46.683C1749.77 47.5451 1749.9 48.295 1750.18 48.9329C1750.6 49.8896 1751.3 50.6052 1752.28 51.0798C1753.26 51.5544 1754.46 51.7917 1755.89 51.7917C1756.51 51.7917 1757.2 51.7351 1757.97 51.6222C1758.73 51.5093 1759.49 51.3359 1760.25 51.1025C1761 50.8689 1761.7 50.5713 1762.34 50.2097L1761.45 55.95C1761.05 56.191 1760.5 56.4171 1759.8 56.628C1759.11 56.8388 1758.3 57.0122 1757.39 57.1478C1756.48 57.2833 1755.49 57.3512 1754.44 57.3512C1751.77 57.3512 1749.54 56.8275 1747.75 55.7805C1745.97 54.7334 1744.71 53.2455 1743.97 51.3172C1743.24 49.3887 1743.14 47.0986 1743.67 44.4469C1744.12 42.2623 1744.87 40.3564 1745.94 38.7293C1747.01 37.1022 1748.35 35.8403 1749.97 34.9439C1751.59 34.0474 1753.43 33.5992 1755.51 33.5992ZM1755.64 38.3677C1754.89 38.3677 1754.15 38.5711 1753.43 38.9779C1752.71 39.3846 1752.07 40.0174 1751.5 40.8763C1751.17 41.3914 1750.88 41.9963 1750.63 42.6905L1750.57 42.8888L1758.61 42.7183L1758.63 42.5242C1758.74 41.5326 1758.6 40.6443 1758.2 39.8592C1757.7 38.8648 1756.84 38.3677 1755.64 38.3677ZM1772.41 56.7636C1772.73 55.1514 1773.05 53.6033 1773.36 52.1193C1773.67 50.6353 1774.01 49.0422 1774.37 47.3397L1775.32 42.6615C1775.8 42.1041 1776.28 41.607 1776.78 41.17C1777.28 40.733 1777.8 40.3865 1778.34 40.1305C1778.88 39.8743 1779.47 39.7463 1780.11 39.7463C1781.28 39.7463 1782.02 40.1567 1782.33 40.9779C1782.64 41.799 1782.65 42.8875 1782.35 44.2435L1781.71 47.3622C1781.37 49.0496 1781.04 50.6316 1780.74 52.108C1780.44 53.5846 1780.11 55.1363 1779.77 56.7636H1786.43C1786.77 55.1514 1787.1 53.5884 1787.41 52.0742C1787.73 50.5601 1788.08 48.8688 1788.45 47.0006C1788.64 46.1268 1788.82 45.283 1789 44.4695C1789.17 43.6559 1789.32 42.9328 1789.45 42.3C1790 39.6634 1789.81 37.5541 1788.87 35.9722C1787.94 34.3902 1786.27 33.5992 1783.87 33.5992C1782.81 33.5992 1781.8 33.78 1780.83 34.1416C1779.86 34.5032 1778.97 34.9966 1778.17 35.6219C1777.37 36.2471 1776.69 36.9439 1776.14 37.7123H1775.59L1776.06 33.8704L1770.45 34.2094C1770.06 36.0927 1769.68 37.9157 1769.31 39.6785C1768.94 41.4412 1768.59 43.1286 1768.27 44.7407L1767.8 47.0006C1767.41 48.8538 1767.06 50.5412 1766.74 52.0629C1766.42 53.5846 1766.09 55.1514 1765.75 56.7636H1772.41ZM1801.84 57.3738C1802.37 57.3738 1802.95 57.3248 1803.57 57.2268C1804.2 57.1289 1804.78 57.0009 1805.32 56.8426C1805.86 56.6844 1806.29 56.4999 1806.6 56.2889L1807.31 50.7522C1806.73 51.1589 1806.16 51.4452 1805.59 51.6109C1805.02 51.7766 1804.49 51.8595 1804.02 51.8595C1802.93 51.8595 1802.2 51.4829 1801.8 50.7296C1801.41 49.9763 1801.37 48.8763 1801.68 47.43L1803.36 39.2943H1809.98L1811.05 34.2094H1804.42L1804.47 33.9975C1804.56 33.5413 1804.65 33.1004 1804.74 32.6749L1804.83 32.2546C1805.06 31.1472 1805.29 30.07 1805.51 29.0229C1805.73 27.9758 1805.96 26.8646 1806.2 25.6895L1799.39 26.8872C1799.08 28.3788 1798.78 29.8251 1798.49 31.2263C1798.31 32.067 1798.13 32.9646 1797.92 33.9192L1797.86 34.2094H1794.27L1793.2 39.2943H1796.81L1796.78 39.431L1796.7 39.8253C1796.46 40.993 1796.23 42.0852 1796.02 43.1023C1795.8 44.1193 1795.6 45.0985 1795.41 46.0401C1795.21 46.9817 1795.01 47.9422 1794.81 48.9215C1794.41 50.835 1794.45 52.417 1794.94 53.6674C1795.43 54.918 1796.27 55.8483 1797.47 56.4584C1798.66 57.0686 1800.12 57.3738 1801.84 57.3738Z" fill="black"/>
</g>
<defs>
<linearGradient id="paint0_linear_1828_36" x1="1612.02" y1="40" x2="1838.08" y2="40" gradientUnits="userSpaceOnUse">
<stop stop-color="#FFC978"/>
<stop offset="1" stop-color="#FFB750"/>
</linearGradient>
<clipPath id="clip0_1828_36">
<rect width="77.6699" height="80" fill="white" transform="translate(560)"/>
</clipPath>
<clipPath id="clip1_1828_36">
<rect width="152.174" height="70" fill="white" transform="translate(717.67 5)"/>
</clipPath>
<clipPath id="clip2_1828_36">
<rect width="432" height="54" fill="white" transform="translate(949.844 13)"/>
</clipPath>
<clipPath id="clip3_1828_36">
<rect width="70.1754" height="80" fill="white" transform="translate(1461.84)"/>
</clipPath>
<clipPath id="clip4_1828_36">
<rect width="172.308" height="35" fill="white" transform="translate(1639 23)"/>
</clipPath>
</defs>
</svg>
