<svg width="2089" height="80" viewBox="0 0 2089 80" fill="none" xmlns="http://www.w3.org/2000/svg">
<mask id="mask0_1828_36" style="mask-type:luminance" maskUnits="userSpaceOnUse" x="0" y="2" width="479" height="76">
<path d="M0 2.5H478.125V77.5H0V2.5Z" fill="white"/>
</mask>
<g mask="url(#mask0_1828_36)">
<path d="M45.9744 20.3687C42.9236 19.1053 39.6414 18.4968 36.3401 18.5827C33.0391 18.6686 29.7929 19.447 26.8119 20.8675C24.3926 22.0328 22.1892 23.6015 20.2963 25.5062L4.18634 41.697C1.73566 44.1617 0.360461 47.4967 0.361329 50.9725C0.361329 58.167 6.25259 64.0862 13.4113 64.0862H13.4151C13.5726 64.0862 13.7301 64.0862 13.8876 64.077C12.323 63.493 10.9321 62.5215 9.84516 61.2537C8.75824 59.9857 8.01081 58.4627 7.67286 56.8272C7.33489 55.1917 7.41744 53.4972 7.91279 51.9025C8.40814 50.3075 9.30006 48.8645 10.5051 47.7082L23.9788 34.1745L25.4076 32.7307L25.8914 32.245L26.4389 31.692C26.7764 31.36 27.1231 31.0412 27.4814 30.7375C33.0421 25.8572 40.1901 23.169 47.5889 23.1756C48.7926 23.1756 49.9964 23.245 51.1926 23.3856C49.5904 22.1581 47.8356 21.1434 45.9726 20.3669L45.9744 20.3687ZM100.574 26.7625C97.8781 20.0987 90.2056 16.8381 83.5701 19.54L83.4031 19.6094C81.8491 20.268 80.4379 21.2226 79.2481 22.42L69.3914 32.3275L67.9681 33.7525C67.9251 33.7937 67.8819 33.837 67.8369 33.8762C67.0111 34.6352 65.9241 35.046 64.8026 35.023C63.6814 35 62.6121 34.5447 61.8181 33.7525L54.2544 26.1531C48.5989 24.7903 42.6611 25.1974 37.2444 27.3194C41.0894 27.3872 44.7554 28.9557 47.4594 31.69L60.5356 44.83C61.6934 45.9817 63.2601 46.6285 64.8931 46.6285C66.5264 46.6285 68.0929 45.9817 69.2506 44.83L85.3944 28.6075C85.5501 28.45 85.7189 28.3057 85.8969 28.1725C87.6691 26.6466 89.9296 25.807 92.2681 25.8062C94.2971 25.8119 96.2744 26.4461 97.9281 27.6215C99.5819 28.7972 100.831 30.4562 101.503 32.3707C101.605 30.4557 101.287 28.5415 100.571 26.7625H100.574ZM92.2756 27.9962C91.8331 27.9962 91.3944 28.0337 90.9594 28.1107C91.4816 28.4775 91.9174 28.954 92.2364 29.5067C92.5554 30.0597 92.7496 30.6755 92.8056 31.3112C92.8616 31.947 92.7781 32.5872 92.5611 33.1875C92.3439 33.7875 91.9981 34.333 91.5481 34.7857L75.5076 50.9107L75.4044 51.0137C75.1236 51.2965 74.8314 51.568 74.5289 51.8275C68.9319 56.8512 61.6741 59.627 54.1531 59.62C53.0339 59.62 51.9126 59.56 50.7989 59.4382C54.2249 61.9962 58.2826 63.5737 62.5371 64.0015C66.7914 64.4292 71.0819 63.6912 74.9489 61.8662C77.4034 60.7052 79.6366 59.1252 81.5489 57.1975L97.2031 41.4737L97.7001 40.9732C97.8764 40.797 98.0451 40.617 98.2101 40.4312C99.2929 39.0727 99.8826 37.3872 99.8826 35.65C99.8826 31.4537 96.4456 28 92.2719 28H92.2681L92.2756 27.9962ZM64.7376 55.3807C60.8444 55.344 57.1226 53.7735 54.3801 51.01L41.3656 37.932C40.7906 37.345 40.1054 36.8775 39.3491 36.5557C38.5931 36.234 37.7811 36.0645 36.9594 36.057C36.1474 36.0542 35.3431 36.2132 34.5934 36.525C33.8436 36.8365 33.1634 37.2945 32.5926 37.872L28.7544 41.7345L27.1381 43.3562L23.3845 47.1307L21.8282 48.6962L19.2557 51.2857L16.957 53.5957L16.4976 54.0607C16.0426 54.5182 15.4913 54.8687 14.8838 55.0862C14.2763 55.304 13.6279 55.3835 12.9858 55.319C12.3438 55.2545 11.7241 55.0477 11.1721 54.7135C10.62 54.3795 10.1494 53.9265 9.79446 53.3875C9.70344 53.8632 9.65761 54.3467 9.65759 54.8312C9.65759 59.0275 13.0926 62.4812 17.2682 62.485C19.1914 62.4845 21.0425 61.7532 22.447 60.4395L22.5463 60.342L22.6457 60.2445L22.7769 60.1132L27.0181 55.8495L33.9089 48.925C34.7281 48.1255 35.8291 47.6807 36.9739 47.687C38.1186 47.6932 39.2146 48.1502 40.0251 48.9587L47.7314 56.7025C53.3994 58.015 59.3376 57.5537 64.7376 55.3807ZM139.711 24.34V41.0462L122.563 24.1994H119.413V58.42H128.375V41.6687L145.471 58.4687H148.58V24.34H139.711ZM167.324 58.4875V24.4037H158.731V31.9975H158.746V50.8412H158.731V58.4837H167.324V58.4875ZM192.778 23.9256H189.05L173.788 57.1787L173.204 58.4445H182.261L184.248 54.16H197.621L199.608 58.4445H208.666L208.087 57.1787L192.778 23.9256ZM187.063 46.7107L190.889 37.7537L194.812 46.7107H187.063ZM243.144 39.0157H227.113V46.5607H234.322C232.771 49.8232 230.542 50.7495 227.054 50.7495C221.919 50.7495 218.624 47.0482 218.624 41.4007C218.624 36.19 221.579 31.9095 227.054 31.9095C230.493 31.9095 232.723 33.0775 234.127 35.9987H242.654C241.006 27.5275 233.885 23.9744 227.054 23.9237C218.431 23.9237 209.711 29.7682 209.656 41.41C209.705 53.0445 218.424 58.8382 227.054 58.8382C233.304 58.8382 239.746 56.112 242.171 49.0037C243.331 45.687 243.331 42.4225 243.144 39.0157ZM264.724 23.9256H260.997L245.733 57.1787L245.154 58.4445H254.209L256.197 54.16H269.569L271.557 58.4445H280.617L280.032 57.1787L264.724 23.9256ZM259.009 46.7107L262.834 37.7537L266.759 46.7107H259.009ZM303.942 24.4056V36.7695H293.477V24.4056H284.607V58.4875H293.477V44.8075H303.942V58.4875H312.807V24.4056H303.942ZM319.287 41.4607C319.287 65.0725 354.072 65.0725 354.072 41.4607C354.072 17.8956 319.287 17.8956 319.287 41.4607ZM328.202 41.4607C328.202 29.1907 345.207 29.1907 345.207 41.4607C345.019 43.5865 344.042 45.5655 342.469 47.007C340.894 48.4485 338.837 49.248 336.704 49.248C334.569 49.248 332.512 48.4485 330.939 47.007C329.364 45.5655 328.389 43.5865 328.202 41.4607ZM372.439 38.1737C369.384 37.8325 366.867 37.3 367.059 34.7182C367.349 30.6757 376.459 30.2857 376.459 34.8157H384.694C384.887 20.11 358.534 20.11 358.824 34.8157C358.919 42.2145 363.767 44.7457 371.127 45.282C374.517 45.477 377.327 46.0132 377.327 48.4037C377.327 52.3995 366.717 52.347 366.717 48.0137H358.334C358.144 63.01 385.757 62.7662 385.757 48.4525C385.759 39.9212 379.172 38.8995 372.439 38.1737ZM388.779 24.4056V32.1945H397.107V58.4875H405.679V32.1945H413.964V24.4056H388.779ZM427.849 50.7457V44.757H439.377V37.0132H427.849V32.1945H440.397V24.4056H419.224V58.4875H440.832V50.7437L427.849 50.7457ZM470.349 46.4125C478.924 40.57 476.502 24.4562 463.177 24.4056H448.302V58.4875H456.977V48.4562H461.484L467.299 58.4875H477.762L476.987 57.222L470.349 46.4125ZM463.177 40.7162H456.977V32.1945C459.012 32.1945 461.142 32.1475 463.177 32.1945C468.119 32.2432 467.877 40.7162 463.177 40.7162Z" fill="white"/>
</g>
<path d="M545.001 42.9168L534.792 53.1252C534.41 53.5071 533.924 53.6981 533.334 53.6981C532.744 53.6981 532.258 53.5071 531.876 53.1252C531.494 52.7432 531.303 52.2571 531.303 51.6668C531.303 51.0766 531.494 50.5904 531.876 50.2085L542.084 40.0002L531.876 29.7918C531.494 29.4099 531.303 28.9238 531.303 28.3335C531.303 27.7432 531.494 27.2571 531.876 26.8752C532.258 26.4932 532.744 26.3022 533.334 26.3022C533.924 26.3022 534.41 26.4932 534.792 26.8752L545.001 37.0835L555.209 26.8752C555.591 26.4932 556.077 26.3022 556.667 26.3022C557.258 26.3022 557.744 26.4932 558.126 26.8752C558.508 27.2571 558.699 27.7432 558.699 28.3335C558.699 28.9238 558.508 29.4099 558.126 29.7918L547.917 40.0002L558.126 50.2085C558.508 50.5904 558.699 51.0766 558.699 51.6668C558.699 52.2571 558.508 52.7432 558.126 53.1252C557.744 53.5071 557.258 53.6981 556.667 53.6981C556.077 53.6981 555.591 53.5071 555.209 53.1252L545.001 42.9168Z" fill="#9CA3AF"/>
<g clip-path="url(#clip0_1828_36)">
<path d="M687.626 18.0903C687.655 18.1971 687.669 18.307 687.67 18.4172V35.5815C687.67 35.8018 687.612 36.0182 687.501 36.2088C687.391 36.3994 687.232 36.5576 687.041 36.6673L672.636 44.9617V61.4017C672.636 61.6216 672.578 61.8377 672.469 62.0283C672.359 62.2189 672.201 62.3772 672.01 62.4875L641.941 79.7986C641.873 79.8378 641.798 79.8631 641.722 79.8895C641.694 79.8988 641.668 79.9163 641.638 79.924C641.428 79.9792 641.207 79.9792 640.996 79.924C640.962 79.9147 640.931 79.8957 640.898 79.8832C640.829 79.858 640.757 79.8363 640.692 79.7986L610.629 62.4875C610.438 62.3777 610.279 62.2195 610.169 62.0289C610.058 61.8383 610 61.622 610 61.4017V9.90851C610 9.79589 610.016 9.68638 610.044 9.58036C610.053 9.54424 610.075 9.51123 610.088 9.4755C610.111 9.40949 610.133 9.3423 610.167 9.28133C610.191 9.24055 610.225 9.20754 610.254 9.17026C610.289 9.12017 610.322 9.06851 610.364 9.02502C610.4 8.9889 610.447 8.96211 610.488 8.93104C610.534 8.89337 610.574 8.85259 610.626 8.82308H610.627L625.659 0.167158C625.85 0.0576402 626.065 0 626.285 0C626.505 0 626.72 0.0576402 626.911 0.167158L641.943 8.82269H641.946C641.996 8.85376 642.038 8.89298 642.084 8.9291C642.124 8.96017 642.17 8.98851 642.206 9.02308C642.25 9.06813 642.281 9.12016 642.318 9.16987C642.345 9.20754 642.381 9.24017 642.403 9.28094C642.439 9.34347 642.459 9.4091 642.484 9.47512C642.497 9.51085 642.518 9.54385 642.528 9.58152C642.557 9.68793 642.572 9.79783 642.572 9.90851V42.0704L655.098 34.8569V18.4157C655.098 18.3062 655.114 18.1951 655.142 18.0903C655.153 18.053 655.173 18.0204 655.186 17.9839C655.211 17.9182 655.233 17.851 655.267 17.7897C655.29 17.7493 655.325 17.7167 655.351 17.679C655.389 17.6289 655.42 17.5772 655.464 17.5334C655.5 17.4976 655.546 17.4712 655.586 17.4398C655.633 17.4021 655.674 17.3613 655.724 17.3318H655.725L670.759 8.67589C670.949 8.56615 671.165 8.50838 671.385 8.50838C671.604 8.50838 671.82 8.56615 672.01 8.67589L687.043 17.3318C687.096 17.3629 687.136 17.4017 687.183 17.4382C687.222 17.4693 687.268 17.4976 687.304 17.5318C687.348 17.5772 687.379 17.6289 687.416 17.679C687.445 17.7167 687.479 17.7493 687.501 17.7901C687.537 17.851 687.557 17.9182 687.582 17.9842C687.596 18.02 687.617 18.053 687.626 18.0903ZM685.164 34.8572V20.5838L679.904 23.613L672.636 27.7974V42.0708L685.165 34.8572H685.164ZM670.132 60.6774V46.3947L662.983 50.4778L642.57 62.1291V76.5465L670.132 60.6774ZM612.506 12.0755V60.6774L640.064 76.545V62.1306L625.667 53.9819L625.663 53.9788L625.656 53.9757C625.608 53.9473 625.567 53.9069 625.522 53.8724C625.483 53.8409 625.437 53.8161 625.403 53.7815L625.4 53.7768C625.359 53.738 625.331 53.6895 625.297 53.6456C625.265 53.6033 625.228 53.5671 625.203 53.5236L625.201 53.519C625.173 53.472 625.156 53.4157 625.135 53.3625C625.115 53.3155 625.089 53.2716 625.076 53.2215V53.22C625.061 53.1605 625.057 53.098 625.051 53.037C625.045 52.9901 625.032 52.9431 625.032 52.8961V19.2887L617.766 15.1023L612.506 12.0771V12.0755ZM626.287 2.69842L613.762 9.9089L626.283 17.1186L638.807 9.90696L626.283 2.69842H626.287ZM632.8 47.6961L640.066 43.5132V12.0755L634.805 15.1039L627.538 19.2887V50.7264L632.8 47.6961ZM671.385 11.2072L658.862 18.4172L671.385 25.6277L683.906 18.4161L671.385 11.2072ZM670.132 27.7974L662.864 23.6126L657.604 20.5838V34.8572L664.87 39.0405L670.132 42.0708V27.7974ZM641.316 59.9625L659.684 49.4747L668.866 44.2343L656.353 37.0289L641.945 45.3244L628.813 52.8852L641.316 59.9625Z" fill="#FF2D20"/>
</g>
<path d="M752.671 42.9168L742.462 53.1252C742.08 53.5071 741.594 53.6981 741.004 53.6981C740.414 53.6981 739.928 53.5071 739.546 53.1252C739.164 52.7432 738.973 52.2571 738.973 51.6668C738.973 51.0766 739.164 50.5904 739.546 50.2085L749.754 40.0002L739.546 29.7918C739.164 29.4099 738.973 28.9238 738.973 28.3335C738.973 27.7432 739.164 27.2571 739.546 26.8752C739.928 26.4932 740.414 26.3022 741.004 26.3022C741.594 26.3022 742.08 26.4932 742.462 26.8752L752.671 37.0835L762.879 26.8752C763.261 26.4932 763.747 26.3022 764.337 26.3022C764.928 26.3022 765.414 26.4932 765.796 26.8752C766.178 27.2571 766.368 27.7432 766.368 28.3335C766.368 28.9238 766.178 29.4099 765.796 29.7918L755.587 40.0002L765.796 50.2085C766.178 50.5904 766.368 51.0766 766.368 51.6668C766.368 52.2571 766.178 52.7432 765.796 53.1252C765.414 53.5071 764.928 53.6981 764.337 53.6981C763.747 53.6981 763.261 53.5071 762.879 53.1252L752.671 42.9168Z" fill="#9CA3AF"/>
<g clip-path="url(#clip1_1828_36)">
<path fill-rule="evenodd" clip-rule="evenodd" d="M936.028 5L969.844 38.6685L936.028 72.3362L902.211 38.6677L936.028 5Z" fill="#77C1D2"/>
<path fill-rule="evenodd" clip-rule="evenodd" d="M851.486 5L921.592 74.7984H853.959L817.67 38.6677L851.486 5Z" fill="#2D3441"/>
</g>
<path d="M1034.84 42.9168L1024.64 53.1252C1024.25 53.5071 1023.77 53.6981 1023.18 53.6981C1022.59 53.6981 1022.1 53.5071 1021.72 53.1252C1021.34 52.7432 1021.15 52.2571 1021.15 51.6668C1021.15 51.0766 1021.34 50.5904 1021.72 50.2085L1031.93 40.0002L1021.72 29.7918C1021.34 29.4099 1021.15 28.9238 1021.15 28.3335C1021.15 27.7432 1021.34 27.2571 1021.72 26.8752C1022.1 26.4932 1022.59 26.3022 1023.18 26.3022C1023.77 26.3022 1024.25 26.4932 1024.64 26.8752L1034.84 37.0835L1045.05 26.8752C1045.43 26.4932 1045.92 26.3022 1046.51 26.3022C1047.1 26.3022 1047.59 26.4932 1047.97 26.8752C1048.35 27.2571 1048.54 27.7432 1048.54 28.3335C1048.54 28.9238 1048.35 29.4099 1047.97 29.7918L1037.76 40.0002L1047.97 50.2085C1048.35 50.5904 1048.54 51.0766 1048.54 51.6668C1048.54 52.2571 1048.35 52.7432 1047.97 53.1252C1047.59 53.5071 1047.1 53.6981 1046.51 53.6981C1045.92 53.6981 1045.43 53.5071 1045.05 53.1252L1034.84 42.9168Z" fill="#9CA3AF"/>
<g clip-path="url(#clip2_1828_36)">
<path fill-rule="evenodd" clip-rule="evenodd" d="M1144.29 13C1132.44 13 1125.03 18.8912 1122.07 30.6737C1126.51 24.7825 1131.7 22.5737 1137.62 24.0456C1141.01 24.8852 1143.42 27.3239 1146.1 30.0239C1150.46 34.4206 1155.5 39.5088 1166.52 39.5088C1178.37 39.5088 1185.78 33.6175 1188.74 21.8368C1184.3 27.7281 1179.11 29.9368 1173.18 28.4632C1169.8 27.6235 1167.38 25.1848 1164.71 22.4866C1160.35 18.0865 1155.31 13 1144.29 13ZM1122.07 39.5088C1110.22 39.5088 1102.81 45.4 1099.84 57.1824C1104.29 51.2912 1109.47 49.0825 1115.4 50.5544C1118.78 51.394 1121.2 53.8327 1123.87 56.5327C1128.23 60.9294 1133.27 66.0175 1144.29 66.0175C1156.14 66.0175 1163.55 60.1281 1166.52 48.3456C1162.07 54.2368 1156.89 56.4456 1150.96 54.9737C1147.58 54.1323 1145.16 51.6936 1142.49 48.9953C1138.13 44.5987 1133.08 39.5088 1122.07 39.5088Z" fill="#38BDF8"/>
<path fill-rule="evenodd" clip-rule="evenodd" d="M1233.18 35.3405H1225.42V50.2636C1225.42 54.2439 1228.05 54.1812 1233.18 53.9321V59.9645C1222.8 61.2082 1218.67 58.3479 1218.67 50.2636V35.3405H1212.91V28.8727H1218.67V20.5218L1225.42 18.5308V28.8727H1233.18V35.3405ZM1262.75 28.8727H1269.5V59.9645H1262.75V55.4877C1260.37 58.7817 1256.68 60.7727 1251.8 60.7727C1243.29 60.7727 1236.22 53.6221 1236.22 44.4177C1236.22 35.1541 1243.29 28.0644 1251.8 28.0644C1256.68 28.0644 1260.37 30.0537 1262.75 33.2885V28.8727ZM1252.87 54.3676C1258.5 54.3676 1262.75 50.2009 1262.75 44.4177C1262.75 38.6345 1258.5 34.4695 1252.87 34.4695C1247.24 34.4695 1242.98 38.6362 1242.98 44.4177C1242.98 50.2009 1247.24 54.3676 1252.87 54.3676ZM1280.76 24.2095C1278.39 24.2095 1276.45 22.2202 1276.45 19.9191C1276.45 18.7787 1276.91 17.6869 1277.72 16.8828C1278.53 16.0787 1279.62 15.6278 1280.76 15.6287C1281.9 15.6273 1283 16.0781 1283.81 16.8822C1284.62 17.6864 1285.07 18.7784 1285.08 19.9191C1285.08 22.2185 1283.14 24.2095 1280.76 24.2095ZM1277.39 59.9645V28.8727H1284.14V59.9645H1277.39ZM1291.96 59.9645V14.5679H1298.72V59.9627H1291.96V59.9645ZM1342.57 28.8727H1349.7L1339.88 59.9645H1333.25L1326.74 39.009L1320.18 59.9645H1313.55L1303.72 28.8727H1310.85L1316.92 50.3246L1323.49 28.8727H1329.94L1336.44 50.3246L1342.57 28.8727ZM1358.09 24.2095C1355.71 24.2095 1353.77 22.2202 1353.77 19.9191C1353.77 18.7784 1354.23 17.6864 1355.04 16.8822C1355.85 16.0781 1356.94 15.6273 1358.09 15.6287C1359.23 15.6273 1360.32 16.0781 1361.13 16.8822C1361.94 17.6864 1362.4 18.7784 1362.4 19.9191C1362.4 22.2185 1360.46 24.2095 1358.09 24.2095ZM1354.71 59.9645V28.8727H1361.46V59.9645H1354.71ZM1385.73 28.0644C1392.74 28.0644 1397.75 32.7903 1397.75 40.8746V59.9627H1390.99V41.5574C1390.99 36.8316 1388.24 34.3458 1383.98 34.3458C1379.54 34.3458 1376.04 36.957 1376.04 43.2994V59.9645H1369.28V28.8727H1376.04V32.853C1378.1 29.6199 1381.48 28.0644 1385.73 28.0644ZM1429.77 16.437H1436.53V59.9627H1429.77V55.486C1427.4 58.7817 1423.71 60.771 1418.83 60.771C1410.32 60.771 1403.25 53.6203 1403.25 44.4159C1403.25 35.1523 1410.32 28.0627 1418.83 28.0627C1423.71 28.0627 1427.4 30.0519 1429.77 33.2867V16.437ZM1419.89 54.3676C1425.52 54.3676 1429.77 50.2009 1429.77 44.4177C1429.77 38.6345 1425.52 34.4695 1419.89 34.4695C1414.26 34.4695 1410.01 38.6362 1410.01 44.4177C1410.01 50.2009 1414.26 54.3676 1419.89 54.3676ZM1459.18 60.7727C1449.73 60.7727 1442.66 53.6221 1442.66 44.4177C1442.66 35.1541 1449.73 28.0644 1459.18 28.0644C1465.31 28.0644 1470.62 31.2347 1473.13 36.086L1467.31 39.4445C1465.93 36.5215 1462.87 34.6559 1459.11 34.6559C1453.61 34.6559 1449.42 38.8226 1449.42 44.4177C1449.42 50.0145 1453.61 54.1812 1459.11 54.1812C1462.87 54.1812 1465.93 52.2529 1467.43 49.3927L1473.25 52.6884C1470.62 57.6007 1465.31 60.7727 1459.18 60.7727ZM1484.39 37.4534C1484.39 43.113 1501.21 39.6918 1501.21 51.1973C1501.21 57.416 1495.77 60.7727 1489.02 60.7727C1482.76 60.7727 1478.26 57.9734 1476.25 53.4967L1482.07 50.1399C1483.07 52.9375 1485.58 54.6167 1489.02 54.6167C1492.02 54.6167 1494.33 53.6221 1494.33 51.1329C1494.33 45.6005 1477.51 48.7098 1477.51 37.5788C1477.51 31.7329 1482.57 28.0644 1488.95 28.0644C1494.08 28.0644 1498.34 30.4282 1500.53 34.5322L1494.83 37.7025C1493.71 35.2778 1491.52 34.1577 1488.95 34.1577C1486.51 34.1577 1484.39 35.215 1484.39 37.4534ZM1513.23 37.4534C1513.23 43.113 1530.05 39.6918 1530.05 51.1973C1530.05 57.416 1524.61 60.7727 1517.85 60.7727C1511.6 60.7727 1507.1 57.9734 1505.09 53.4967L1510.91 50.1399C1511.91 52.9375 1514.41 54.6167 1517.85 54.6167C1520.86 54.6167 1523.17 53.6221 1523.17 51.1329C1523.17 45.6005 1506.34 48.7098 1506.34 37.5788C1506.34 31.7329 1511.41 28.0644 1517.79 28.0644C1522.92 28.0644 1527.17 30.4282 1529.36 34.5322L1523.67 37.7025C1522.55 35.2778 1520.36 34.1577 1517.79 34.1577C1515.35 34.1577 1513.23 35.215 1513.23 37.4534Z" fill="white"/>
</g>
<path d="M1596.84 42.9168L1586.64 53.1252C1586.25 53.5071 1585.77 53.6981 1585.18 53.6981C1584.59 53.6981 1584.1 53.5071 1583.72 53.1252C1583.34 52.7432 1583.15 52.2571 1583.15 51.6668C1583.15 51.0766 1583.34 50.5904 1583.72 50.2085L1593.93 40.0002L1583.72 29.7918C1583.34 29.4099 1583.15 28.9238 1583.15 28.3335C1583.15 27.7432 1583.34 27.2571 1583.72 26.8752C1584.1 26.4932 1584.59 26.3022 1585.18 26.3022C1585.77 26.3022 1586.25 26.4932 1586.64 26.8752L1596.84 37.0835L1607.05 26.8752C1607.43 26.4932 1607.92 26.3022 1608.51 26.3022C1609.1 26.3022 1609.59 26.4932 1609.97 26.8752C1610.35 27.2571 1610.54 27.7432 1610.54 28.3335C1610.54 28.9238 1610.35 29.4099 1609.97 29.7918L1599.76 40.0002L1609.97 50.2085C1610.35 50.5904 1610.54 51.0766 1610.54 51.6668C1610.54 52.2571 1610.35 52.7432 1609.97 53.1252C1609.59 53.5071 1609.1 53.6981 1608.51 53.6981C1607.92 53.6981 1607.43 53.5071 1607.05 53.1252L1596.84 42.9168Z" fill="#9CA3AF"/>
<g clip-path="url(#clip3_1828_36)">
<path fill-rule="evenodd" clip-rule="evenodd" d="M1728.45 53.0253C1727.15 54.9926 1726.16 57.4161 1723.51 57.4161C1719.06 57.4161 1718.82 50.5512 1714.37 50.5512C1709.91 50.5512 1710.15 57.4161 1705.7 57.4161C1701.25 57.4161 1701.01 50.5512 1696.55 50.5512C1692.1 50.5512 1692.34 57.4161 1687.89 57.4161C1683.43 57.4161 1683.19 50.5512 1678.74 50.5512C1674.28 50.5512 1674.53 57.4161 1670.07 57.4161C1668.67 57.4161 1667.69 56.7382 1666.86 55.8084C1663.68 50.2642 1661.84 43.7674 1661.84 36.8214C1661.84 16.4856 1677.55 0 1696.93 0C1716.31 0 1732.02 16.4856 1732.02 36.8214C1732.02 42.6358 1730.73 48.1358 1728.45 53.0253Z" fill="#FB70A9"/>
<mask id="mask1_1828_36" style="mask-type:alpha" maskUnits="userSpaceOnUse" x="1673" y="43" width="47" height="37">
<path d="M1682.92 49.3901V64.6417C1682.92 67.3785 1680.7 69.5971 1677.96 69.5971C1675.23 69.5971 1673.01 67.3785 1673.01 64.6417V46.2297C1673.93 44.5322 1674.99 43.062 1676.89 43.062C1680 43.062 1681.08 46.9574 1682.92 49.3901ZM1701.64 50.1848V74.3024C1701.64 77.3434 1699.17 79.8087 1696.13 79.8087C1693.09 79.8087 1690.63 77.3434 1690.63 74.3024V47.0059C1691.66 45.0066 1692.73 43.062 1694.92 43.062C1698.39 43.062 1699.34 47.936 1701.64 50.1848ZM1719.26 49.742V67.2508C1719.26 69.988 1717.04 72.2066 1714.3 72.2066C1711.57 72.2066 1709.35 69.988 1709.35 67.2508V45.7308C1710.21 44.2539 1711.24 43.062 1712.95 43.062C1716.21 43.062 1717.24 47.3553 1719.26 49.742Z" fill="white"/>
</mask>
<g mask="url(#mask1_1828_36)">
<path d="M1682.92 49.3901V64.6417C1682.92 67.3785 1680.7 69.5971 1677.96 69.5971C1675.23 69.5971 1673.01 67.3785 1673.01 64.6417V46.2297C1673.93 44.5322 1674.99 43.062 1676.89 43.062C1680 43.062 1681.08 46.9574 1682.92 49.3901ZM1701.64 50.1848V74.3024C1701.64 77.3434 1699.17 79.8087 1696.13 79.8087C1693.09 79.8087 1690.63 77.3434 1690.63 74.3024V47.0059C1691.66 45.0066 1692.73 43.062 1694.92 43.062C1698.39 43.062 1699.34 47.936 1701.64 50.1848ZM1719.26 49.742V67.2508C1719.26 69.988 1717.04 72.2066 1714.3 72.2066C1711.57 72.2066 1709.35 69.988 1709.35 67.2508V45.7308C1710.21 44.2539 1711.24 43.062 1712.95 43.062C1716.21 43.062 1717.24 47.3553 1719.26 49.742Z" fill="#4E56A6"/>
</g>
<mask id="mask2_1828_36" style="mask-type:alpha" maskUnits="userSpaceOnUse" x="1673" y="34" width="47" height="26">
<path d="M1682.92 54.0646C1682.04 52.9881 1681 52.1895 1679.49 52.1895C1675.92 52.1895 1675.27 56.693 1673.01 58.7236V39.2972C1673.01 36.5604 1675.23 34.3418 1677.96 34.3418C1680.7 34.3418 1682.92 36.5604 1682.92 39.2972V54.0646ZM1701.64 54.412C1700.7 53.1646 1699.61 52.1895 1697.94 52.1895C1693.97 52.1895 1693.6 57.7639 1690.63 59.3053V50.7141C1690.63 47.673 1693.09 45.2078 1696.13 45.2078C1699.17 45.2078 1701.64 47.673 1701.64 50.7141V54.412ZM1719.26 53.4478C1718.5 52.6969 1717.59 52.1895 1716.39 52.1895C1712.54 52.1895 1712.08 57.4207 1709.35 59.1492V41.712C1709.35 38.9751 1711.57 36.7562 1714.3 36.7562C1717.04 36.7562 1719.26 38.9751 1719.26 41.712V53.4478Z" fill="white"/>
</mask>
<g mask="url(#mask2_1828_36)">
<path d="M1682.92 54.0646C1682.04 52.9881 1681 52.1895 1679.49 52.1895C1675.92 52.1895 1675.27 56.693 1673.01 58.7236V39.2972C1673.01 36.5604 1675.23 34.3418 1677.96 34.3418C1680.7 34.3418 1682.92 36.5604 1682.92 39.2972V54.0646ZM1701.64 54.412C1700.7 53.1646 1699.61 52.1895 1697.94 52.1895C1693.97 52.1895 1693.6 57.7639 1690.63 59.3053V50.7141C1690.63 47.673 1693.09 45.2078 1696.13 45.2078C1699.17 45.2078 1701.64 47.673 1701.64 50.7141V54.412ZM1719.26 53.4478C1718.5 52.6969 1717.59 52.1895 1716.39 52.1895C1712.54 52.1895 1712.08 57.4207 1709.35 59.1492V41.712C1709.35 38.9751 1711.57 36.7562 1714.3 36.7562C1717.04 36.7562 1719.26 38.9751 1719.26 41.712V53.4478Z" fill="black" fill-opacity="0.299"/>
</g>
<path fill-rule="evenodd" clip-rule="evenodd" d="M1728.45 53.0253C1727.15 54.9926 1726.16 57.4161 1723.51 57.4161C1719.06 57.4161 1718.82 50.5512 1714.37 50.5512C1709.91 50.5512 1710.15 57.4161 1705.7 57.4161C1701.25 57.4161 1701.01 50.5512 1696.55 50.5512C1692.1 50.5512 1692.34 57.4161 1687.89 57.4161C1683.43 57.4161 1683.19 50.5512 1678.74 50.5512C1674.28 50.5512 1674.53 57.4161 1670.07 57.4161C1668.67 57.4161 1667.69 56.7382 1666.86 55.8084C1663.68 50.2642 1661.84 43.7674 1661.84 36.8214C1661.84 16.4856 1677.55 0 1696.93 0C1716.31 0 1732.02 16.4856 1732.02 36.8214C1732.02 42.6358 1730.73 48.1358 1728.45 53.0253Z" fill="#FB70A9"/>
<path fill-rule="evenodd" clip-rule="evenodd" d="M1720.86 56.6827C1730.05 43.0037 1730.29 27.8311 1721.57 11.1641C1728.03 17.7858 1732.02 26.8725 1732.02 36.8988C1732.02 42.6914 1730.69 48.1704 1728.32 53.0416C1726.97 55.0016 1725.94 57.416 1723.2 57.416C1722.26 57.416 1721.51 57.1332 1720.86 56.6827Z" fill="#E24CA6"/>
<path fill-rule="evenodd" clip-rule="evenodd" d="M1695.05 46.0065C1707.25 46.0065 1712.39 38.9279 1712.39 28.8753C1712.39 18.8227 1704.63 9.56934 1695.05 9.56934C1685.47 9.56934 1677.71 18.8227 1677.71 28.8753C1677.71 38.9279 1682.85 46.0065 1695.05 46.0065Z" fill="white"/>
<path d="M1690.39 29.4444C1693.98 29.4444 1696.89 26.231 1696.89 22.2675C1696.89 18.3037 1693.98 15.0903 1690.39 15.0903C1686.8 15.0903 1683.89 18.3037 1683.89 22.2675C1683.89 26.231 1686.8 29.4444 1690.39 29.4444Z" fill="#030776"/>
<path d="M1689.3 23.9237C1691.1 23.9237 1692.56 22.4406 1692.56 20.6115C1692.56 18.7816 1691.1 17.2988 1689.3 17.2988C1687.51 17.2988 1686.05 18.7816 1686.05 20.6111C1686.05 22.4406 1687.51 23.9237 1689.3 23.9237Z" fill="white"/>
</g>
<path d="M1797.02 42.9168L1786.81 53.1252C1786.43 53.5071 1785.94 53.6981 1785.35 53.6981C1784.76 53.6981 1784.28 53.5071 1783.9 53.1252C1783.51 52.7432 1783.32 52.2571 1783.32 51.6668C1783.32 51.0766 1783.51 50.5904 1783.9 50.2085L1794.1 40.0002L1783.9 29.7918C1783.51 29.4099 1783.32 28.9238 1783.32 28.3335C1783.32 27.7432 1783.51 27.2571 1783.9 26.8752C1784.28 26.4932 1784.76 26.3022 1785.35 26.3022C1785.94 26.3022 1786.43 26.4932 1786.81 26.8752L1797.02 37.0835L1807.23 26.8752C1807.61 26.4932 1808.1 26.3022 1808.69 26.3022C1809.28 26.3022 1809.76 26.4932 1810.15 26.8752C1810.53 27.2571 1810.72 27.7432 1810.72 28.3335C1810.72 28.9238 1810.53 29.4099 1810.15 29.7918L1799.94 40.0002L1810.15 50.2085C1810.53 50.5904 1810.72 51.0766 1810.72 51.6668C1810.72 52.2571 1810.53 52.7432 1810.15 53.1252C1809.76 53.5071 1809.28 53.6981 1808.69 53.6981C1808.1 53.6981 1807.61 53.5071 1807.23 53.1252L1797.02 42.9168Z" fill="#9CA3AF"/>
<rect x="1862.02" y="2.5" width="226.064" height="75" rx="20" fill="url(#paint0_linear_1828_36)"/>
<g clip-path="url(#clip4_1828_36)">
<path d="M1895.7 56.7634C1896.04 55.1513 1896.37 53.592 1896.68 52.0854C1896.94 50.8298 1897.23 49.4383 1897.55 47.9107L1897.74 46.978L1899.33 39.2941H1905.42L1906.49 34.2093H1900.13C1900.17 33.9833 1900.24 33.648 1900.33 33.2036C1900.42 32.7591 1900.49 32.3863 1900.55 32.0849C1900.79 30.9248 1901.22 30.0548 1901.84 29.4747C1902.46 28.8947 1903.32 28.6046 1904.42 28.6046C1905.04 28.6046 1905.66 28.68 1906.27 28.8306C1906.88 28.9813 1907.45 29.1922 1908 29.4634L1909.61 24.0396C1909.13 23.8286 1908.58 23.6441 1907.95 23.4859C1907.32 23.3277 1906.65 23.2072 1905.96 23.1243C1905.26 23.0414 1904.56 23 1903.86 23C1902.77 23 1901.71 23.1318 1900.7 23.3955C1899.7 23.6591 1898.78 24.1036 1897.95 24.7289C1897.11 25.3541 1896.39 26.2016 1895.78 27.2713C1895.16 28.341 1894.69 29.6743 1894.36 31.2714C1894.15 32.2808 1893.93 33.3769 1893.68 34.5596L1893.76 34.2093H1890.07L1889 39.2941H1892.69L1892.64 39.5531C1892.54 40.0225 1892.44 40.4872 1892.35 40.9471L1892.2 41.6332C1891.97 42.7707 1891.75 43.8064 1891.56 44.7405L1891.09 47.0004C1890.71 48.8688 1890.35 50.5599 1890.03 52.0741C1889.72 53.5882 1889.39 55.1513 1889.07 56.7634H1895.7Z" fill="black"/>
<path d="M1914.64 34.1652L1914.01 35.8001L1916.98 37.8921C1917.14 38.004 1917.23 38.2135 1917.2 38.4239L1917.19 38.487L1916.99 39.4032C1916.94 39.6339 1916.77 39.8007 1916.56 39.8146L1913.93 39.9909L1916.18 41.5569C1916.34 41.6688 1916.43 41.8781 1916.4 42.0886L1916.39 42.1518L1916.19 43.068C1916.14 43.2987 1915.97 43.4655 1915.76 43.4794L1913.13 43.6561L1915.38 45.2217C1915.54 45.3335 1915.63 45.5429 1915.6 45.7534L1915.59 45.8165L1915.39 46.7327C1915.34 46.9635 1915.17 47.1303 1914.96 47.1441L1912.34 47.3207L1914.58 48.8864C1914.74 48.9983 1914.83 49.2076 1914.8 49.4182L1914.79 49.4813L1914.59 50.3975C1914.54 50.6282 1914.37 50.795 1914.16 50.8089L1911.54 50.9854L1913.78 52.5512C1913.94 52.6631 1914.03 52.8724 1914 53.083L1913.99 53.1461L1913.79 54.0623C1913.74 54.293 1913.57 54.4598 1913.36 54.4737L1909.68 54.7985L1909.22 56.7636H1906.28L1907.19 53.1531C1907.24 52.9224 1907.41 52.7556 1907.62 52.7417L1910.25 52.5644L1908 50.9994C1907.84 50.8875 1907.75 50.678 1907.78 50.4676L1907.79 50.4045L1907.99 49.4883C1908.04 49.2576 1908.21 49.0908 1908.42 49.0769L1911.05 48.8998L1908.8 47.3346C1908.64 47.2227 1908.55 47.0134 1908.58 46.8029L1908.59 46.7397L1908.79 45.8235C1908.84 45.5928 1909.01 45.426 1909.22 45.4122L1911.85 45.2351L1909.6 43.6698C1909.44 43.558 1909.35 43.3486 1909.38 43.1381L1909.39 43.075L1909.59 42.1588C1909.64 41.928 1909.81 41.7613 1910.02 41.7474L1912.65 41.5705L1910.4 40.0051C1910.24 39.8932 1910.15 39.6839 1910.18 39.4733L1910.19 39.4102L1910.39 38.494C1910.44 38.2633 1910.61 38.0965 1910.82 38.0826L1913.45 37.9059L1911.2 36.3403C1911.04 36.2285 1910.95 36.0191 1910.98 35.8085L1910.99 35.7454L1911.4 34.29L1914.64 34.1652ZM1916.9 23.2036C1918.11 23.2036 1919 23.6142 1919.58 24.4353C1920.16 25.2564 1920.34 26.2395 1920.1 27.3845C1919.84 28.6953 1919.3 29.5804 1918.48 30.0399C1917.66 30.4994 1916.64 30.7292 1915.42 30.7292C1914.23 30.7292 1913.33 30.3714 1912.73 29.6557C1912.13 28.9401 1911.96 27.9193 1912.22 26.5935C1912.46 25.3882 1913 24.5219 1913.84 23.9946C1914.68 23.4673 1915.7 23.2036 1916.9 23.2036Z" fill="black"/>
<path d="M1925.51 52.0856C1925.2 53.5922 1924.88 55.1515 1924.56 56.7636H1917.9C1918.25 55.1515 1918.57 53.5885 1918.88 52.0743C1919.19 50.5602 1919.55 48.8689 1919.95 47.0007L1922.53 34.4807C1922.93 32.6426 1923.32 30.8271 1923.69 29.0342C1924.06 27.2414 1924.43 25.4409 1924.8 23.633L1931.57 23.0454C1931.2 24.8232 1930.81 26.65 1930.42 28.5258C1930.03 30.4015 1929.62 32.3789 1929.19 34.4581L1926.58 46.978C1926.18 48.8764 1925.83 50.5789 1925.51 52.0856Z" fill="black"/>
<path d="M1943.06 33.5992C1945.2 33.5992 1946.95 33.9608 1948.33 34.684C1949.71 35.4072 1950.67 36.4354 1951.21 37.7688C1951.74 39.1022 1951.81 40.6879 1951.41 42.526C1951.26 43.2793 1951.1 44.0439 1950.94 44.8198C1950.77 45.5957 1950.6 46.4055 1950.43 47.2492L1950.03 49.1476C1949.79 50.2775 1949.54 51.4678 1949.28 52.7182C1949.02 53.9688 1948.74 55.3171 1948.42 56.7636H1942.68L1942.97 53.7579H1942.46C1941.91 54.5563 1941.31 55.2155 1940.65 55.7352C1939.99 56.255 1939.27 56.6467 1938.5 56.9104C1937.73 57.1741 1936.9 57.3059 1936.01 57.3059C1934.6 57.3059 1933.42 56.9557 1932.47 56.255C1931.52 55.5545 1930.86 54.6241 1930.49 53.464C1930.12 52.3039 1930.08 51.0384 1930.38 49.6673C1930.6 48.6127 1930.96 47.7313 1931.46 47.0232C1931.95 46.3151 1932.55 45.7351 1933.26 45.283C1933.96 44.8311 1934.74 44.4733 1935.6 44.2096C1936.45 43.9459 1937.33 43.7463 1938.25 43.6107L1945.22 42.5034C1945.37 41.8254 1945.31 41.2341 1945.05 40.7293C1944.79 40.2246 1944.33 39.8329 1943.66 39.5542C1942.99 39.2754 1942.14 39.1361 1941.1 39.1361C1940.57 39.1361 1940 39.1776 1939.4 39.2603C1938.8 39.3433 1938.17 39.4637 1937.52 39.6219C1936.87 39.7801 1936.2 39.976 1935.51 40.2095C1934.82 40.4431 1934.11 40.718 1933.38 41.0344L1934.43 35.1134C1934.96 34.9326 1935.57 34.7556 1936.25 34.5823C1936.93 34.409 1937.65 34.2471 1938.41 34.0964C1939.17 33.9458 1939.94 33.8252 1940.74 33.7348C1941.53 33.6444 1942.3 33.5992 1943.06 33.5992ZM1944.4 45.5543C1944.19 45.7049 1943.94 45.8518 1943.64 45.995C1943.34 46.1381 1942.93 46.2812 1942.42 46.4243C1941.9 46.5675 1941.19 46.737 1940.3 46.9329C1939.72 47.0684 1939.2 47.2266 1938.72 47.4074C1938.25 47.5882 1937.85 47.8444 1937.54 48.1758C1937.23 48.5072 1937.02 48.9366 1936.92 49.4639C1936.77 50.2926 1936.91 50.9367 1937.34 51.3962C1937.77 51.8558 1938.36 52.0854 1939.1 52.0854C1939.63 52.0854 1940.17 51.9687 1940.71 51.7351C1941.25 51.5017 1941.77 51.1664 1942.27 50.7296C1942.77 50.2926 1943.22 49.7729 1943.64 49.1702L1944.4 45.5543ZM1976.74 37.624C1976.51 36.4898 1976.04 35.5852 1975.32 34.91C1974.39 34.0361 1973.1 33.5992 1971.44 33.5992C1970.41 33.5992 1969.43 33.78 1968.49 34.1416C1967.55 34.5032 1966.68 34.9966 1965.88 35.6219C1965.09 36.2471 1964.42 36.9439 1963.87 37.7123H1963.31L1963.78 33.8704L1958.17 34.2094C1957.79 36.0927 1957.41 37.9119 1957.04 39.6671C1956.67 41.4224 1956.32 43.1136 1955.99 44.7407L1955.53 47.0006C1955.13 48.8688 1954.77 50.5601 1954.46 52.0742C1954.15 53.5884 1953.82 55.1514 1953.48 56.7636H1960.13C1960.46 55.1514 1960.78 53.5996 1961.09 52.108C1961.4 50.6165 1961.73 49.0271 1962.09 47.3397L1963.05 42.6615C1963.52 42.1041 1964 41.607 1964.48 41.17C1964.96 40.733 1965.47 40.3865 1966 40.1305C1966.52 39.8743 1967.08 39.7463 1967.68 39.7463C1968.71 39.7463 1969.38 40.1567 1969.67 40.9779C1969.96 41.799 1969.96 42.8875 1969.68 44.2435L1969.03 47.3622C1968.68 49.0496 1968.35 50.6316 1968.05 52.108C1967.76 53.5846 1967.44 55.1363 1967.1 56.7636H1973.73C1974.07 55.1514 1974.4 53.5884 1974.72 52.0742C1975.04 50.5601 1975.39 48.8688 1975.78 47.0006C1975.95 46.1268 1976.13 45.283 1976.3 44.4695C1976.47 43.6559 1976.62 42.9328 1976.75 42.3L1976.72 42.4471L1976.77 42.3947C1977.09 42.0449 1977.41 41.7184 1977.73 41.4154L1977.98 41.1926C1978.47 40.7556 1978.98 40.4054 1979.5 40.1417C1980.03 39.8781 1980.59 39.7463 1981.18 39.7463C1982.22 39.7463 1982.88 40.1567 1983.17 40.9779C1983.46 41.799 1983.47 42.8875 1983.18 44.2435L1982.54 47.3622C1982.2 49.0646 1981.88 50.6504 1981.57 52.1193C1981.27 53.5884 1980.94 55.1363 1980.6 56.7636H1987.26C1987.58 55.1514 1987.9 53.5922 1988.21 52.0854C1988.53 50.5788 1988.88 48.8839 1989.28 47.0006C1989.46 46.1268 1989.63 45.283 1989.8 44.4695C1989.98 43.6559 1990.13 42.9328 1990.26 42.3C1990.82 39.6634 1990.65 37.5541 1989.73 35.9722C1988.81 34.3902 1987.21 33.5992 1984.94 33.5992C1983.92 33.5992 1982.93 33.7838 1981.98 34.1529C1981.03 34.522 1980.15 35.023 1979.35 35.6558C1978.54 36.2885 1977.84 37.0042 1977.27 37.8027H1976.78L1976.74 37.624ZM2005.51 33.5992C2007.84 33.5992 2009.74 34.0286 2011.21 34.8874C2012.67 35.7462 2013.67 36.9514 2014.19 38.5033C2014.71 40.0551 2014.71 41.863 2014.21 43.9272C2014.09 44.4243 2013.97 44.8913 2013.84 45.3283C2013.75 45.6559 2013.65 45.9752 2013.54 46.2859L2013.43 46.5938H1999.81L1999.8 46.683C1999.77 47.5451 1999.9 48.295 2000.18 48.9329C2000.6 49.8896 2001.3 50.6052 2002.28 51.0798C2003.26 51.5544 2004.46 51.7917 2005.89 51.7917C2006.51 51.7917 2007.2 51.7351 2007.97 51.6222C2008.73 51.5093 2009.49 51.3359 2010.25 51.1025C2011 50.8689 2011.7 50.5713 2012.34 50.2097L2011.45 55.95C2011.05 56.191 2010.5 56.4171 2009.8 56.628C2009.11 56.8388 2008.3 57.0122 2007.39 57.1478C2006.48 57.2833 2005.49 57.3512 2004.44 57.3512C2001.77 57.3512 1999.54 56.8275 1997.75 55.7805C1995.97 54.7334 1994.71 53.2455 1993.97 51.3172C1993.24 49.3887 1993.14 47.0986 1993.67 44.4469C1994.12 42.2623 1994.87 40.3564 1995.94 38.7293C1997.01 37.1022 1998.35 35.8403 1999.97 34.9439C2001.59 34.0474 2003.43 33.5992 2005.51 33.5992ZM2005.64 38.3677C2004.89 38.3677 2004.15 38.5711 2003.43 38.9779C2002.71 39.3846 2002.07 40.0174 2001.5 40.8763C2001.17 41.3914 2000.88 41.9963 2000.63 42.6905L2000.57 42.8888L2008.61 42.7183L2008.63 42.5242C2008.74 41.5326 2008.6 40.6443 2008.2 39.8592C2007.7 38.8648 2006.84 38.3677 2005.64 38.3677ZM2022.41 56.7636C2022.73 55.1514 2023.05 53.6033 2023.36 52.1193C2023.67 50.6353 2024.01 49.0422 2024.37 47.3397L2025.32 42.6615C2025.8 42.1041 2026.28 41.607 2026.78 41.17C2027.28 40.733 2027.8 40.3865 2028.34 40.1305C2028.88 39.8743 2029.47 39.7463 2030.11 39.7463C2031.28 39.7463 2032.02 40.1567 2032.33 40.9779C2032.64 41.799 2032.65 42.8875 2032.35 44.2435L2031.71 47.3622C2031.37 49.0496 2031.04 50.6316 2030.74 52.108C2030.44 53.5846 2030.11 55.1363 2029.77 56.7636H2036.43C2036.77 55.1514 2037.1 53.5884 2037.41 52.0742C2037.73 50.5601 2038.08 48.8688 2038.45 47.0006C2038.64 46.1268 2038.82 45.283 2039 44.4695C2039.17 43.6559 2039.32 42.9328 2039.45 42.3C2040 39.6634 2039.81 37.5541 2038.87 35.9722C2037.94 34.3902 2036.27 33.5992 2033.87 33.5992C2032.81 33.5992 2031.8 33.78 2030.83 34.1416C2029.86 34.5032 2028.97 34.9966 2028.17 35.6219C2027.37 36.2471 2026.69 36.9439 2026.14 37.7123H2025.59L2026.06 33.8704L2020.45 34.2094C2020.06 36.0927 2019.68 37.9157 2019.31 39.6785C2018.94 41.4412 2018.59 43.1286 2018.27 44.7407L2017.8 47.0006C2017.41 48.8538 2017.06 50.5412 2016.74 52.0629C2016.42 53.5846 2016.09 55.1514 2015.75 56.7636H2022.41ZM2051.84 57.3738C2052.37 57.3738 2052.95 57.3248 2053.57 57.2268C2054.2 57.1289 2054.78 57.0009 2055.32 56.8426C2055.86 56.6844 2056.29 56.4999 2056.6 56.2889L2057.31 50.7522C2056.73 51.1589 2056.16 51.4452 2055.59 51.6109C2055.02 51.7766 2054.49 51.8595 2054.02 51.8595C2052.93 51.8595 2052.2 51.4829 2051.8 50.7296C2051.41 49.9763 2051.37 48.8763 2051.68 47.43L2053.36 39.2943H2059.98L2061.05 34.2094H2054.42L2054.47 33.9975C2054.56 33.5413 2054.65 33.1004 2054.74 32.6749L2054.83 32.2546C2055.06 31.1472 2055.29 30.07 2055.51 29.0229C2055.73 27.9758 2055.96 26.8646 2056.2 25.6895L2049.39 26.8872C2049.08 28.3788 2048.78 29.8251 2048.49 31.2263C2048.31 32.067 2048.13 32.9646 2047.92 33.9192L2047.86 34.2094H2044.27L2043.2 39.2943H2046.81L2046.78 39.431L2046.7 39.8253C2046.46 40.993 2046.23 42.0852 2046.02 43.1023C2045.8 44.1193 2045.6 45.0985 2045.41 46.0401C2045.21 46.9817 2045.01 47.9422 2044.81 48.9215C2044.41 50.835 2044.45 52.417 2044.94 53.6674C2045.43 54.918 2046.27 55.8483 2047.47 56.4584C2048.66 57.0686 2050.12 57.3738 2051.84 57.3738Z" fill="black"/>
</g>
<defs>
<linearGradient id="paint0_linear_1828_36" x1="1862.02" y1="40" x2="2088.08" y2="40" gradientUnits="userSpaceOnUse">
<stop stop-color="#FFC978"/>
<stop offset="1" stop-color="#FFB750"/>
</linearGradient>
<clipPath id="clip0_1828_36">
<rect width="77.6699" height="80" fill="white" transform="translate(610)"/>
</clipPath>
<clipPath id="clip1_1828_36">
<rect width="152.174" height="70" fill="white" transform="translate(817.67 5)"/>
</clipPath>
<clipPath id="clip2_1828_36">
<rect width="432" height="54" fill="white" transform="translate(1099.84 13)"/>
</clipPath>
<clipPath id="clip3_1828_36">
<rect width="70.1754" height="80" fill="white" transform="translate(1661.84)"/>
</clipPath>
<clipPath id="clip4_1828_36">
<rect width="172.308" height="35" fill="white" transform="translate(1889 23)"/>
</clipPath>
</defs>
</svg>
