<svg width="21" height="17" viewBox="0 0 21 17" fill="none" xmlns="http://www.w3.org/2000/svg">
<path d="M20.4999 2.39583C19.7497 2.72181 18.9559 2.93658 18.1437 3.03333C18.9973 2.53349 19.6392 1.73941 19.9491 0.800006C19.1421 1.27192 18.2606 1.60303 17.3424 1.77917C16.9558 1.37398 16.4908 1.05163 15.9758 0.831733C15.4607 0.611834 14.9063 0.498972 14.3462 0.500007C12.0787 0.500007 10.2437 2.30833 10.2437 4.53749C10.2421 4.84756 10.2776 5.15671 10.3496 5.45832C8.72359 5.3821 7.13145 4.96732 5.67498 4.24052C4.2185 3.51372 2.92978 2.4909 1.89125 1.2375C1.5269 1.85172 1.33422 2.55252 1.33333 3.26666C1.33333 4.66666 2.06375 5.90416 3.16666 6.62915C2.51321 6.61365 1.87316 6.4407 1.30083 6.12499V6.17499C1.30083 8.13332 2.71749 9.76248 4.59249 10.1333C4.2399 10.2273 3.87656 10.2749 3.51166 10.275C3.25273 10.2754 2.9944 10.2503 2.74041 10.2C3.26166 11.8041 4.77874 12.9708 6.57581 13.0041C5.11556 14.1295 3.32275 14.7378 1.47916 14.7333C1.15192 14.7328 0.824985 14.7133 0.5 14.675C2.37549 15.8726 4.55559 16.506 6.78081 16.5C14.3375 16.5 18.4658 10.3458 18.4658 5.00833C18.4658 4.83333 18.4612 4.65833 18.4529 4.48749C19.2541 3.91752 19.9474 3.20921 20.4999 2.39583Z" fill="#C82323"/>
</svg>
