<svg width="1063" height="318" viewBox="0 0 1063 318" fill="none" xmlns="http://www.w3.org/2000/svg">
<path d="M1025 317.808C1037.58 314.464 1050.24 311 1063 307.417V307.855C1050.79 311.282 1038.66 314.6 1026.63 317.808H1025ZM941.029 317.808C980.652 309.053 1021.3 299.218 1063 288.089V288.524C1021.97 299.468 981.965 309.159 942.947 317.808H941.026H941.029ZM827.298 317.808C901.751 305.133 980.183 289.247 1063 268.286V268.718C981.096 289.443 903.485 305.208 829.766 317.808H827.298ZM656.736 317.808C779.066 303.365 913.629 283.821 1063 248.017V248.446C915.074 283.896 781.667 303.402 660.287 317.805H656.738L656.736 317.808ZM417.025 317.808C460.366 312.638 505.518 308.065 552.678 303.29C700.987 288.277 869.13 271.25 1063 227.31V227.739C869.15 271.665 701.027 288.691 552.733 303.702C506.837 308.347 462.848 312.805 420.578 317.808H417.025ZM253.527 317.808C348.432 296.499 453.131 286.497 570.675 275.291C713.889 261.637 876.171 246.156 1063 206.179V206.608C876.194 246.574 713.929 262.051 570.727 275.705C453.966 286.837 349.889 296.784 255.494 317.811H253.527V317.808ZM167.513 317.808C287.891 274.36 425.218 262.014 587.745 247.444C726.184 235.034 882.916 220.977 1063 184.651V185.077C882.936 221.391 726.224 235.449 587.794 247.856C425.82 262.374 288.888 274.689 168.817 317.808H167.513ZM115.206 317.808C250.676 249.503 408.779 236.146 604.081 219.718C737.998 208.452 889.414 195.705 1063 162.749V163.175C889.434 196.119 738.035 208.866 604.129 220.13C409.266 236.523 251.45 249.852 116.203 317.808H115.206ZM80.0876 317.808C225.579 223.197 398.322 209.54 619.831 192.079C749.423 181.863 895.715 170.326 1063 140.486V140.91C895.735 170.741 749.457 182.278 619.874 192.491C398.745 209.92 226.242 223.56 80.9314 317.805H80.0876V317.808ZM55.2072 317.808C207.79 196.044 391.462 182.471 635.104 164.514C760.525 155.269 901.852 144.847 1063 117.887V118.31C901.87 145.261 760.557 155.687 635.144 164.929C391.827 182.863 208.343 196.39 55.9071 317.808H55.2043H55.2072ZM37.0258 317.808C194.824 168.35 386.966 155.097 649.988 137.01C771.362 128.664 907.843 119.269 1063 94.9709V95.3942C907.86 119.687 771.391 129.079 650.025 137.425C387.352 155.488 195.411 168.754 37.7631 317.811H37.0258V317.808ZM23.5013 317.808C185.228 140.273 384.109 127.5 664.537 109.549C781.969 102.033 913.703 93.6 1063 71.758V72.1786C913.721 94.0148 781.998 102.447 664.575 109.964C384.498 127.892 185.812 140.711 24.23 317.811H23.5013V317.808ZM13.3983 317.808C178.126 111.948 382.462 99.7401 678.817 82.1261C792.378 75.3753 919.466 67.8154 1063.01 48.2458V48.6662C919.481 68.2301 792.404 75.793 678.851 82.5408C382.827 100.135 178.664 112.372 14.0693 317.811H13.4012L13.3983 317.808ZM5.8642 317.808C172.901 83.4278 381.721 71.8503 692.857 54.7315C802.616 48.6922 925.117 41.9472 1063 24.4685V24.8861C925.131 42.359 802.639 49.1069 692.885 55.1462C382.073 72.2477 173.42 83.8656 6.50644 317.808H5.86132H5.8642ZM0.285645 317.808C169.105 54.7085 381.661 43.8624 706.698 27.3629C812.702 21.983 930.684 15.9869 1063.01 0.434875V0.852461C930.695 16.3987 812.725 22.3949 706.727 27.7747C381.995 44.2569 169.592 55.1174 0.884672 317.808H0.285645Z" fill="url(#paint0_linear_110_24)"/>
<defs>
<linearGradient id="paint0_linear_110_24" x1="531.646" y1="0.434875" x2="531.646" y2="317.811" gradientUnits="userSpaceOnUse">
<stop stop-color="white"/>
<stop offset="1" stop-color="#C82323"/>
</linearGradient>
</defs>
</svg>
