<svg width="1109" height="374" viewBox="0 0 1109 374" fill="none" xmlns="http://www.w3.org/2000/svg">
<path d="M39.6431 0C26.5276 3.93408 13.3113 8.01216 -4.96877e-05 12.2285V11.7158C12.7382 7.68096 25.39 3.77568 37.9497 0H39.6431ZM127.259 0C85.9219 10.3046 43.5139 21.8794 -4.96877e-05 34.9776V34.465C42.8111 21.5827 84.551 10.1779 125.257 0H127.261H127.259ZM245.92 0C168.241 14.9155 86.4115 33.6182 -4.96877e-05 58.2883V57.7814C85.4553 33.3878 166.429 14.832 243.346 0H245.923H245.92ZM423.878 0C296.243 17.0006 155.848 40.0032 -4.96877e-05 82.1434V81.6365C154.342 39.911 293.53 16.9517 420.175 0H423.878ZM673.983 0C628.764 6.08544 581.653 11.4682 532.449 17.087C377.712 34.7587 202.277 54.8006 -4.96877e-05 106.517V106.013C202.254 54.311 377.669 34.272 532.391 16.6003C580.277 11.1312 626.172 5.88672 670.277 0H673.983ZM844.569 0C745.548 25.079 636.31 36.8525 513.668 50.0429C364.248 66.1133 194.93 84.335 -4.96877e-05 131.391V130.887C194.904 83.8483 364.208 65.6294 513.616 49.559C635.44 36.455 744.031 24.7507 842.518 0H844.571H844.569ZM934.312 0C808.715 51.1373 665.433 65.6698 495.858 82.8173C351.42 97.4246 187.894 113.967 -4.96877e-05 156.727V156.226C187.871 113.484 351.38 96.9379 495.812 82.3334C664.808 65.2464 807.679 50.7514 932.956 0H934.318H934.312ZM988.885 0C847.544 80.3981 682.583 96.1142 478.811 115.453C339.094 128.716 181.112 143.718 -4.96877e-05 182.508V182.007C181.091 143.231 339.054 128.229 478.768 114.97C682.082 95.6736 846.74 79.9891 987.849 0H988.888H988.885ZM1025.53 0C873.729 111.355 693.495 127.431 462.381 147.983C327.171 160.004 174.534 173.586 -0.00292969 208.708V208.21C174.514 173.1 327.136 159.52 462.335 147.496C693.057 126.985 873.04 110.929 1024.65 0H1025.53H1025.53ZM1051.49 0C892.29 143.317 700.655 159.293 446.446 180.426C315.587 191.304 168.131 203.576 -0.00292969 235.308V234.809C168.114 203.086 315.556 190.817 446.403 179.939C700.275 158.832 891.714 142.908 1050.76 0H1051.49H1051.49ZM1070.46 0C905.82 175.913 705.346 191.514 430.92 212.803C304.283 222.627 161.882 233.683 -0.00292969 262.284V261.786C161.867 233.194 304.252 222.14 430.883 212.316C704.949 191.053 905.21 175.441 1069.7 0H1070.46H1070.46ZM1084.57 0C915.834 208.961 708.327 223.995 415.739 245.123C293.216 253.97 155.768 263.897 -0.00292969 289.604V289.109C155.75 263.408 293.187 253.483 415.702 244.636C707.924 223.534 915.224 208.446 1083.81 0H1084.57H1084.57ZM1095.11 0C923.244 242.3 710.047 256.671 400.844 277.402C282.358 285.345 149.76 294.244 -0.00292969 317.281V316.788C149.746 293.76 282.332 284.861 400.81 276.918C709.672 256.208 922.686 241.805 1094.42 0H1095.12H1095.11ZM1102.98 0C928.696 275.867 710.821 289.495 386.194 309.643C271.676 316.751 143.862 324.691 -0.00292969 345.263V344.771C143.847 324.204 271.65 316.264 386.162 309.156C710.453 289.028 928.152 275.354 1102.31 0H1102.98H1102.98ZM1108.8 0C932.659 309.669 710.888 322.439 371.756 341.859C261.155 348.192 138.059 355.248 -4.96877e-05 373.553V373.061C138.047 354.761 261.132 347.705 371.727 341.372C710.539 321.97 932.149 309.185 1108.17 0H1108.8Z" fill="url(#paint0_linear_110_25)"/>
<defs>
<linearGradient id="paint0_linear_110_25" x1="554.398" y1="0" x2="554.398" y2="373.553" gradientUnits="userSpaceOnUse">
<stop stop-color="white"/>
<stop offset="1" stop-color="#C82323"/>
</linearGradient>
</defs>
</svg>
