<svg width="12" height="13" viewBox="0 0 12 13" fill="none" xmlns="http://www.w3.org/2000/svg">
<path d="M9.85446 1.78571V0.5H2.14286V1.78571H0V2.80357C0 3.66071 0.254464 4.48545 0.716786 5.12348C1.07384 5.61634 1.63205 5.95652 2.13402 6.12018C2.27973 6.90473 2.67509 7.65045 3.47839 8.25848C4.06768 8.70473 4.77616 9.03179 5.41071 9.16545V11.3214H3.42857V12.5H8.57143V11.3214H6.58929V9.16545C7.22384 9.03152 7.93205 8.70473 8.52161 8.25848C9.32518 7.65045 9.72027 6.90473 9.86598 6.12018C10.3679 5.95652 10.9262 5.61634 11.2832 5.12348C11.7455 4.48545 12 3.66071 12 2.80357V1.78571H9.85446ZM1.67143 4.43214C1.38536 4.03893 1.21152 3.51071 1.18286 2.96429H2.14286V4.76884C2.03732 4.7383 1.79679 4.60491 1.67143 4.43214ZM10.3286 4.43214C10.2054 4.6092 10.0179 4.76911 9.85714 4.76911C9.85714 4.16911 9.85714 3.5292 9.8558 2.96429H10.8174C10.7885 3.51071 10.6071 4.03304 10.3286 4.43214Z" fill="#C82323"/>
</svg>
