<svg width="19" height="17" viewBox="0 0 19 17" fill="none" xmlns="http://www.w3.org/2000/svg">
<path d="M5.09091 7.77273H12.3636V1.22727C12.3636 1.03439 12.287 0.849404 12.1506 0.713013C12.0142 0.576623 11.8292 0.5 11.6364 0.5H0.727273C0.534388 0.5 0.349403 0.576623 0.213013 0.713013C0.0766231 0.849404 0 1.03439 0 1.22727V15.7727C0 15.9656 0.0766231 16.1506 0.213013 16.287C0.349403 16.4234 0.534388 16.5 0.727273 16.5H11.6364C11.8292 16.5 12.0142 16.4234 12.1506 16.287C12.287 16.1506 12.3636 15.9656 12.3636 15.7727V9.22727H5.09091V7.77273ZM18.6959 7.98591L14.5455 3.835L13.5168 4.86364L16.4259 7.77273H12.3636V9.22727H16.4259L13.5168 12.1364L14.5455 13.165L18.6959 9.01409C18.8322 8.87772 18.9088 8.6928 18.9088 8.5C18.9088 8.3072 18.8322 8.12229 18.6959 7.98591Z" fill="white"/>
</svg>
