<svg width="17" height="17" viewBox="0 0 17 17" fill="none" xmlns="http://www.w3.org/2000/svg">
<path fill-rule="evenodd" clip-rule="evenodd" d="M14.1689 2.82503C13.4293 2.08506 12.5506 1.49868 11.5835 1.09966C10.6163 0.70064 9.57978 0.496855 8.53355 0.500037C4.14285 0.500037 0.568571 4.05646 0.566786 8.42859C0.564843 9.82077 0.931819 11.1886 1.63035 12.3929L0.5 16.5L4.7232 15.3975C5.89221 16.0308 7.20081 16.3622 8.53034 16.3618H8.53355C12.9239 16.3618 16.4978 12.805 16.5 8.43323C16.5026 7.39058 16.2979 6.3578 15.8977 5.395C15.4975 4.4322 14.9099 3.5586 14.1689 2.82503ZM8.53355 15.0236H8.53069C7.34548 15.0239 6.18181 14.7067 5.1607 14.105L4.91892 13.9621L2.41285 14.6164L3.08178 12.1847L2.92428 11.9347C2.26156 10.8854 1.91044 9.66958 1.91178 8.42859C1.91178 4.79538 4.88356 1.83932 8.53605 1.83932C10.2882 1.83619 11.9698 2.52915 13.2111 3.76579C14.4523 5.00242 15.1516 6.68146 15.155 8.43359C15.1535 12.0672 12.1832 15.0236 8.53355 15.0236ZM12.1653 10.0882C11.9664 9.98894 10.9868 9.50966 10.8053 9.44359C10.6239 9.37752 10.49 9.3443 10.3575 9.54287C10.225 9.74144 9.84319 10.1857 9.72712 10.3197C9.61105 10.4536 9.49498 10.4682 9.29605 10.3689C9.09712 10.2697 8.45534 10.0607 7.69498 9.38573C7.1032 8.86037 6.70391 8.2118 6.58784 8.01359C6.47177 7.81538 6.57534 7.70788 6.67499 7.60931C6.76463 7.52038 6.87391 7.37788 6.97356 7.26216C7.0732 7.14645 7.10641 7.06359 7.17248 6.93145C7.23856 6.79931 7.2057 6.68359 7.15606 6.58466C7.10641 6.48574 6.7082 5.51038 6.54249 5.1136C6.3807 4.72717 6.21677 4.77967 6.09463 4.7736C5.97856 4.76788 5.84463 4.76646 5.71285 4.76646C5.6121 4.76908 5.51298 4.79244 5.42166 4.83509C5.33035 4.87773 5.24881 4.93874 5.18213 5.01431C4.99963 5.21288 4.48535 5.69288 4.48535 6.66716C4.48535 7.64145 5.19963 8.5843 5.2982 8.71645C5.39677 8.84859 6.70177 10.8497 8.69855 11.7079C9.06933 11.8667 9.44819 12.0059 9.83355 12.125C10.3103 12.2757 10.7443 12.2547 11.0871 12.2036C11.4696 12.1468 12.2657 11.7243 12.431 11.2614C12.5964 10.7986 12.5968 10.4022 12.5471 10.3197C12.4975 10.2372 12.3646 10.1872 12.1653 10.0882Z" fill="#C82323"/>
</svg>
